G04 #@! TF.GenerationSoftware,KiCad,Pcbnew,(5.1.9)-1*
G04 #@! TF.CreationDate,2021-01-16T12:12:47+09:00*
G04 #@! TF.ProjectId,bf-026,62662d30-3236-42e6-9b69-6361645f7063,V01L02*
G04 #@! TF.SameCoordinates,Original*
G04 #@! TF.FileFunction,Soldermask,Top*
G04 #@! TF.FilePolarity,Negative*
%FSLAX46Y46*%
G04 Gerber Fmt 4.6, Leading zero omitted, Abs format (unit mm)*
G04 Created by KiCad (PCBNEW (5.1.9)-1) date 2021-01-16 12:12:47*
%MOMM*%
%LPD*%
G01*
G04 APERTURE LIST*
%ADD10C,1.400000*%
%ADD11O,1.400000X1.400000*%
%ADD12R,1.700000X1.700000*%
%ADD13O,1.700000X1.700000*%
%ADD14C,6.400000*%
%ADD15R,1.600000X1.600000*%
%ADD16C,1.600000*%
%ADD17O,1.600000X1.600000*%
%ADD18R,1.800000X1.800000*%
%ADD19C,1.800000*%
%ADD20R,3.000000X3.000000*%
%ADD21C,3.000000*%
%ADD22C,1.500000*%
%ADD23R,1.500000X1.500000*%
%ADD24C,2.000000*%
%ADD25R,2.000000X2.000000*%
%ADD26C,3.500000*%
%ADD27C,2.200000*%
G04 APERTURE END LIST*
D10*
X158750000Y-80010000D03*
D11*
X158750000Y-72390000D03*
D12*
X147320000Y-71120000D03*
D13*
X149860000Y-71120000D03*
X147320000Y-73660000D03*
X149860000Y-73660000D03*
X147320000Y-76200000D03*
X149860000Y-76200000D03*
D14*
X130810000Y-64770000D03*
X130810000Y-123190000D03*
X217170000Y-123190000D03*
X217170000Y-64770000D03*
D15*
X156210000Y-69850000D03*
D16*
X156210000Y-67850000D03*
D15*
X201930000Y-101600000D03*
D16*
X201930000Y-99100000D03*
D15*
X208280000Y-101600000D03*
D17*
X208280000Y-109220000D03*
D18*
X174625000Y-73025000D03*
D19*
X174625000Y-75565000D03*
D12*
X178435000Y-81280000D03*
D13*
X180975000Y-81280000D03*
X178435000Y-83820000D03*
X180975000Y-83820000D03*
D20*
X215900000Y-101600000D03*
D21*
X215900000Y-106680000D03*
D22*
X210820000Y-116840000D03*
X210820000Y-119380000D03*
D23*
X210820000Y-114300000D03*
D11*
X205740000Y-111760000D03*
D10*
X205740000Y-119380000D03*
D24*
X132080000Y-76200000D03*
X132080000Y-71700000D03*
X138580000Y-76200000D03*
X138580000Y-71700000D03*
D15*
X162560000Y-69850000D03*
D17*
X170180000Y-87630000D03*
X162560000Y-72390000D03*
X170180000Y-85090000D03*
X162560000Y-74930000D03*
X170180000Y-82550000D03*
X162560000Y-77470000D03*
X170180000Y-80010000D03*
X162560000Y-80010000D03*
X170180000Y-77470000D03*
X162560000Y-82550000D03*
X170180000Y-74930000D03*
X162560000Y-85090000D03*
X170180000Y-72390000D03*
X162560000Y-87630000D03*
X170180000Y-69850000D03*
D25*
X192300000Y-116470000D03*
D24*
X192300000Y-102020000D03*
D26*
X165200000Y-101720000D03*
X165200000Y-116720000D03*
D20*
X204470000Y-72630000D03*
D21*
X204470000Y-87630000D03*
D27*
X176610000Y-64770000D03*
X181610000Y-64770000D03*
X186610000Y-64770000D03*
D24*
X199390000Y-113030000D03*
X199390000Y-115570000D03*
X199390000Y-118110000D03*
X199390000Y-110490000D03*
X199390000Y-120650000D03*
M02*
