G04 #@! TF.GenerationSoftware,KiCad,Pcbnew,(5.1.9)-1*
G04 #@! TF.CreationDate,2021-01-16T12:12:47+09:00*
G04 #@! TF.ProjectId,bf-026,62662d30-3236-42e6-9b69-6361645f7063,V01L02*
G04 #@! TF.SameCoordinates,Original*
G04 #@! TF.FileFunction,Legend,Top*
G04 #@! TF.FilePolarity,Positive*
%FSLAX46Y46*%
G04 Gerber Fmt 4.6, Leading zero omitted, Abs format (unit mm)*
G04 Created by KiCad (PCBNEW (5.1.9)-1) date 2021-01-16 12:12:47*
%MOMM*%
%LPD*%
G01*
G04 APERTURE LIST*
%ADD10C,0.200000*%
%ADD11C,0.150000*%
%ADD12C,0.120000*%
G04 APERTURE END LIST*
D10*
X215328571Y-97897142D02*
X216471428Y-97897142D01*
X215900000Y-98468571D02*
X215900000Y-97325714D01*
X135777142Y-65448571D02*
X135777142Y-63948571D01*
X135777142Y-64662857D02*
X136634285Y-64662857D01*
X136634285Y-65448571D02*
X136634285Y-63948571D01*
X137348571Y-65448571D02*
X137348571Y-63948571D01*
X138205714Y-65448571D02*
X137562857Y-64591428D01*
X138205714Y-63948571D02*
X137348571Y-64805714D01*
X138705714Y-63948571D02*
X139634285Y-63948571D01*
X139134285Y-64520000D01*
X139348571Y-64520000D01*
X139491428Y-64591428D01*
X139562857Y-64662857D01*
X139634285Y-64805714D01*
X139634285Y-65162857D01*
X139562857Y-65305714D01*
X139491428Y-65377142D01*
X139348571Y-65448571D01*
X138920000Y-65448571D01*
X138777142Y-65377142D01*
X138705714Y-65305714D01*
X140205714Y-64091428D02*
X140277142Y-64020000D01*
X140420000Y-63948571D01*
X140777142Y-63948571D01*
X140920000Y-64020000D01*
X140991428Y-64091428D01*
X141062857Y-64234285D01*
X141062857Y-64377142D01*
X140991428Y-64591428D01*
X140134285Y-65448571D01*
X141062857Y-65448571D01*
X141634285Y-64091428D02*
X141705714Y-64020000D01*
X141848571Y-63948571D01*
X142205714Y-63948571D01*
X142348571Y-64020000D01*
X142420000Y-64091428D01*
X142491428Y-64234285D01*
X142491428Y-64377142D01*
X142420000Y-64591428D01*
X141562857Y-65448571D01*
X142491428Y-65448571D01*
X144205714Y-63877142D02*
X142920000Y-65805714D01*
X144562857Y-63948571D02*
X145491428Y-63948571D01*
X144991428Y-64520000D01*
X145205714Y-64520000D01*
X145348571Y-64591428D01*
X145420000Y-64662857D01*
X145491428Y-64805714D01*
X145491428Y-65162857D01*
X145420000Y-65305714D01*
X145348571Y-65377142D01*
X145205714Y-65448571D01*
X144777142Y-65448571D01*
X144634285Y-65377142D01*
X144562857Y-65305714D01*
X146062857Y-64091428D02*
X146134285Y-64020000D01*
X146277142Y-63948571D01*
X146634285Y-63948571D01*
X146777142Y-64020000D01*
X146848571Y-64091428D01*
X146920000Y-64234285D01*
X146920000Y-64377142D01*
X146848571Y-64591428D01*
X145991428Y-65448571D01*
X146920000Y-65448571D01*
X148205714Y-63948571D02*
X147920000Y-63948571D01*
X147777142Y-64020000D01*
X147705714Y-64091428D01*
X147562857Y-64305714D01*
X147491428Y-64591428D01*
X147491428Y-65162857D01*
X147562857Y-65305714D01*
X147634285Y-65377142D01*
X147777142Y-65448571D01*
X148062857Y-65448571D01*
X148205714Y-65377142D01*
X148277142Y-65305714D01*
X148348571Y-65162857D01*
X148348571Y-64805714D01*
X148277142Y-64662857D01*
X148205714Y-64591428D01*
X148062857Y-64520000D01*
X147777142Y-64520000D01*
X147634285Y-64591428D01*
X147562857Y-64662857D01*
X147491428Y-64805714D01*
X150134285Y-65448571D02*
X150134285Y-63948571D01*
X150991428Y-65448571D01*
X150991428Y-63948571D01*
X151634285Y-65020000D02*
X152348571Y-65020000D01*
X151491428Y-65448571D02*
X151991428Y-63948571D01*
X152491428Y-65448571D01*
X152777142Y-63948571D02*
X153634285Y-63948571D01*
X153205714Y-65448571D02*
X153205714Y-63948571D01*
X154134285Y-63948571D02*
X154134285Y-65162857D01*
X154205714Y-65305714D01*
X154277142Y-65377142D01*
X154420000Y-65448571D01*
X154705714Y-65448571D01*
X154848571Y-65377142D01*
X154920000Y-65305714D01*
X154991428Y-65162857D01*
X154991428Y-63948571D01*
X156562857Y-65448571D02*
X156062857Y-64734285D01*
X155705714Y-65448571D02*
X155705714Y-63948571D01*
X156277142Y-63948571D01*
X156420000Y-64020000D01*
X156491428Y-64091428D01*
X156562857Y-64234285D01*
X156562857Y-64448571D01*
X156491428Y-64591428D01*
X156420000Y-64662857D01*
X156277142Y-64734285D01*
X155705714Y-64734285D01*
X157134285Y-65020000D02*
X157848571Y-65020000D01*
X156991428Y-65448571D02*
X157491428Y-63948571D01*
X157991428Y-65448571D01*
X159205714Y-65448571D02*
X158491428Y-65448571D01*
X158491428Y-63948571D01*
X160848571Y-65448571D02*
X160848571Y-63948571D01*
X160848571Y-64662857D02*
X161705714Y-64662857D01*
X161705714Y-65448571D02*
X161705714Y-63948571D01*
X162348571Y-65020000D02*
X163062857Y-65020000D01*
X162205714Y-65448571D02*
X162705714Y-63948571D01*
X163205714Y-65448571D01*
X164562857Y-65448571D02*
X164062857Y-64734285D01*
X163705714Y-65448571D02*
X163705714Y-63948571D01*
X164277142Y-63948571D01*
X164420000Y-64020000D01*
X164491428Y-64091428D01*
X164562857Y-64234285D01*
X164562857Y-64448571D01*
X164491428Y-64591428D01*
X164420000Y-64662857D01*
X164277142Y-64734285D01*
X163705714Y-64734285D01*
X165205714Y-65448571D02*
X165205714Y-63948571D01*
X165705714Y-65020000D01*
X166205714Y-63948571D01*
X166205714Y-65448571D01*
X167205714Y-63948571D02*
X167491428Y-63948571D01*
X167634285Y-64020000D01*
X167777142Y-64162857D01*
X167848571Y-64448571D01*
X167848571Y-64948571D01*
X167777142Y-65234285D01*
X167634285Y-65377142D01*
X167491428Y-65448571D01*
X167205714Y-65448571D01*
X167062857Y-65377142D01*
X166920000Y-65234285D01*
X166848571Y-64948571D01*
X166848571Y-64448571D01*
X166920000Y-64162857D01*
X167062857Y-64020000D01*
X167205714Y-63948571D01*
X168491428Y-65448571D02*
X168491428Y-63948571D01*
X169348571Y-65448571D01*
X169348571Y-63948571D01*
X170062857Y-65448571D02*
X170062857Y-63948571D01*
X171634285Y-65305714D02*
X171562857Y-65377142D01*
X171348571Y-65448571D01*
X171205714Y-65448571D01*
X170991428Y-65377142D01*
X170848571Y-65234285D01*
X170777142Y-65091428D01*
X170705714Y-64805714D01*
X170705714Y-64591428D01*
X170777142Y-64305714D01*
X170848571Y-64162857D01*
X170991428Y-64020000D01*
X171205714Y-63948571D01*
X171348571Y-63948571D01*
X171562857Y-64020000D01*
X171634285Y-64091428D01*
X183652857Y-80503571D02*
X183938571Y-80503571D01*
X184081428Y-80575000D01*
X184224285Y-80717857D01*
X184295714Y-81003571D01*
X184295714Y-81503571D01*
X184224285Y-81789285D01*
X184081428Y-81932142D01*
X183938571Y-82003571D01*
X183652857Y-82003571D01*
X183510000Y-81932142D01*
X183367142Y-81789285D01*
X183295714Y-81503571D01*
X183295714Y-81003571D01*
X183367142Y-80717857D01*
X183510000Y-80575000D01*
X183652857Y-80503571D01*
X184938571Y-81003571D02*
X184938571Y-82003571D01*
X184938571Y-81146428D02*
X185010000Y-81075000D01*
X185152857Y-81003571D01*
X185367142Y-81003571D01*
X185510000Y-81075000D01*
X185581428Y-81217857D01*
X185581428Y-82003571D01*
X183867142Y-83667857D02*
X184081428Y-83739285D01*
X184152857Y-83810714D01*
X184224285Y-83953571D01*
X184224285Y-84167857D01*
X184152857Y-84310714D01*
X184081428Y-84382142D01*
X183938571Y-84453571D01*
X183367142Y-84453571D01*
X183367142Y-82953571D01*
X183867142Y-82953571D01*
X184010000Y-83025000D01*
X184081428Y-83096428D01*
X184152857Y-83239285D01*
X184152857Y-83382142D01*
X184081428Y-83525000D01*
X184010000Y-83596428D01*
X183867142Y-83667857D01*
X183367142Y-83667857D01*
X185081428Y-84453571D02*
X184938571Y-84382142D01*
X184867142Y-84310714D01*
X184795714Y-84167857D01*
X184795714Y-83739285D01*
X184867142Y-83596428D01*
X184938571Y-83525000D01*
X185081428Y-83453571D01*
X185295714Y-83453571D01*
X185438571Y-83525000D01*
X185510000Y-83596428D01*
X185581428Y-83739285D01*
X185581428Y-84167857D01*
X185510000Y-84310714D01*
X185438571Y-84382142D01*
X185295714Y-84453571D01*
X185081428Y-84453571D01*
X186867142Y-84453571D02*
X186867142Y-83667857D01*
X186795714Y-83525000D01*
X186652857Y-83453571D01*
X186367142Y-83453571D01*
X186224285Y-83525000D01*
X186867142Y-84382142D02*
X186724285Y-84453571D01*
X186367142Y-84453571D01*
X186224285Y-84382142D01*
X186152857Y-84239285D01*
X186152857Y-84096428D01*
X186224285Y-83953571D01*
X186367142Y-83882142D01*
X186724285Y-83882142D01*
X186867142Y-83810714D01*
X187581428Y-84453571D02*
X187581428Y-83453571D01*
X187581428Y-83739285D02*
X187652857Y-83596428D01*
X187724285Y-83525000D01*
X187867142Y-83453571D01*
X188010000Y-83453571D01*
X189152857Y-84453571D02*
X189152857Y-82953571D01*
X189152857Y-84382142D02*
X189010000Y-84453571D01*
X188724285Y-84453571D01*
X188581428Y-84382142D01*
X188510000Y-84310714D01*
X188438571Y-84167857D01*
X188438571Y-83739285D01*
X188510000Y-83596428D01*
X188581428Y-83525000D01*
X188724285Y-83453571D01*
X189010000Y-83453571D01*
X189152857Y-83525000D01*
X175026428Y-87602142D02*
X175240714Y-87673571D01*
X175597857Y-87673571D01*
X175740714Y-87602142D01*
X175812142Y-87530714D01*
X175883571Y-87387857D01*
X175883571Y-87245000D01*
X175812142Y-87102142D01*
X175740714Y-87030714D01*
X175597857Y-86959285D01*
X175312142Y-86887857D01*
X175169285Y-86816428D01*
X175097857Y-86745000D01*
X175026428Y-86602142D01*
X175026428Y-86459285D01*
X175097857Y-86316428D01*
X175169285Y-86245000D01*
X175312142Y-86173571D01*
X175669285Y-86173571D01*
X175883571Y-86245000D01*
X176526428Y-87673571D02*
X176526428Y-86173571D01*
X177097857Y-86173571D01*
X177240714Y-86245000D01*
X177312142Y-86316428D01*
X177383571Y-86459285D01*
X177383571Y-86673571D01*
X177312142Y-86816428D01*
X177240714Y-86887857D01*
X177097857Y-86959285D01*
X176526428Y-86959285D01*
X178026428Y-86887857D02*
X178526428Y-86887857D01*
X178740714Y-87673571D02*
X178026428Y-87673571D01*
X178026428Y-86173571D01*
X178740714Y-86173571D01*
X179312142Y-87245000D02*
X180026428Y-87245000D01*
X179169285Y-87673571D02*
X179669285Y-86173571D01*
X180169285Y-87673571D01*
X180669285Y-87673571D02*
X180669285Y-86173571D01*
X181526428Y-87673571D02*
X180883571Y-86816428D01*
X181526428Y-86173571D02*
X180669285Y-87030714D01*
X182169285Y-86887857D02*
X182669285Y-86887857D01*
X182883571Y-87673571D02*
X182169285Y-87673571D01*
X182169285Y-86173571D01*
X182883571Y-86173571D01*
X184383571Y-87673571D02*
X183883571Y-86959285D01*
X183526428Y-87673571D02*
X183526428Y-86173571D01*
X184097857Y-86173571D01*
X184240714Y-86245000D01*
X184312142Y-86316428D01*
X184383571Y-86459285D01*
X184383571Y-86673571D01*
X184312142Y-86816428D01*
X184240714Y-86887857D01*
X184097857Y-86959285D01*
X183526428Y-86959285D01*
X212507142Y-111803571D02*
X212507142Y-110303571D01*
X213007142Y-111375000D01*
X213507142Y-110303571D01*
X213507142Y-111803571D01*
X214507142Y-110303571D02*
X214792857Y-110303571D01*
X214935714Y-110375000D01*
X215078571Y-110517857D01*
X215150000Y-110803571D01*
X215150000Y-111303571D01*
X215078571Y-111589285D01*
X214935714Y-111732142D01*
X214792857Y-111803571D01*
X214507142Y-111803571D01*
X214364285Y-111732142D01*
X214221428Y-111589285D01*
X214150000Y-111303571D01*
X214150000Y-110803571D01*
X214221428Y-110517857D01*
X214364285Y-110375000D01*
X214507142Y-110303571D01*
X215578571Y-110303571D02*
X216435714Y-110303571D01*
X216007142Y-111803571D02*
X216007142Y-110303571D01*
X217221428Y-110303571D02*
X217507142Y-110303571D01*
X217650000Y-110375000D01*
X217792857Y-110517857D01*
X217864285Y-110803571D01*
X217864285Y-111303571D01*
X217792857Y-111589285D01*
X217650000Y-111732142D01*
X217507142Y-111803571D01*
X217221428Y-111803571D01*
X217078571Y-111732142D01*
X216935714Y-111589285D01*
X216864285Y-111303571D01*
X216864285Y-110803571D01*
X216935714Y-110517857D01*
X217078571Y-110375000D01*
X217221428Y-110303571D01*
X219364285Y-111803571D02*
X218864285Y-111089285D01*
X218507142Y-111803571D02*
X218507142Y-110303571D01*
X219078571Y-110303571D01*
X219221428Y-110375000D01*
X219292857Y-110446428D01*
X219364285Y-110589285D01*
X219364285Y-110803571D01*
X219292857Y-110946428D01*
X219221428Y-111017857D01*
X219078571Y-111089285D01*
X218507142Y-111089285D01*
D11*
X172458095Y-72842380D02*
X172458095Y-71842380D01*
X173029523Y-72842380D02*
X172600952Y-72270952D01*
X173029523Y-71842380D02*
X172458095Y-72413809D01*
D10*
X195925714Y-125138571D02*
X195925714Y-123638571D01*
X196497142Y-123638571D01*
X196640000Y-123710000D01*
X196711428Y-123781428D01*
X196782857Y-123924285D01*
X196782857Y-124138571D01*
X196711428Y-124281428D01*
X196640000Y-124352857D01*
X196497142Y-124424285D01*
X195925714Y-124424285D01*
X197711428Y-123638571D02*
X197997142Y-123638571D01*
X198140000Y-123710000D01*
X198282857Y-123852857D01*
X198354285Y-124138571D01*
X198354285Y-124638571D01*
X198282857Y-124924285D01*
X198140000Y-125067142D01*
X197997142Y-125138571D01*
X197711428Y-125138571D01*
X197568571Y-125067142D01*
X197425714Y-124924285D01*
X197354285Y-124638571D01*
X197354285Y-124138571D01*
X197425714Y-123852857D01*
X197568571Y-123710000D01*
X197711428Y-123638571D01*
X198854285Y-123638571D02*
X199211428Y-125138571D01*
X199497142Y-124067142D01*
X199782857Y-125138571D01*
X200140000Y-123638571D01*
X200711428Y-124352857D02*
X201211428Y-124352857D01*
X201425714Y-125138571D02*
X200711428Y-125138571D01*
X200711428Y-123638571D01*
X201425714Y-123638571D01*
X202925714Y-125138571D02*
X202425714Y-124424285D01*
X202068571Y-125138571D02*
X202068571Y-123638571D01*
X202640000Y-123638571D01*
X202782857Y-123710000D01*
X202854285Y-123781428D01*
X202925714Y-123924285D01*
X202925714Y-124138571D01*
X202854285Y-124281428D01*
X202782857Y-124352857D01*
X202640000Y-124424285D01*
X202068571Y-124424285D01*
X134076428Y-78553571D02*
X134933571Y-78553571D01*
X134505000Y-80053571D02*
X134505000Y-78553571D01*
X136219285Y-78625000D02*
X136076428Y-78553571D01*
X135862142Y-78553571D01*
X135647857Y-78625000D01*
X135505000Y-78767857D01*
X135433571Y-78910714D01*
X135362142Y-79196428D01*
X135362142Y-79410714D01*
X135433571Y-79696428D01*
X135505000Y-79839285D01*
X135647857Y-79982142D01*
X135862142Y-80053571D01*
X136005000Y-80053571D01*
X136219285Y-79982142D01*
X136290714Y-79910714D01*
X136290714Y-79410714D01*
X136005000Y-79410714D01*
X150094285Y-79982142D02*
X150308571Y-80053571D01*
X150665714Y-80053571D01*
X150808571Y-79982142D01*
X150880000Y-79910714D01*
X150951428Y-79767857D01*
X150951428Y-79625000D01*
X150880000Y-79482142D01*
X150808571Y-79410714D01*
X150665714Y-79339285D01*
X150380000Y-79267857D01*
X150237142Y-79196428D01*
X150165714Y-79125000D01*
X150094285Y-78982142D01*
X150094285Y-78839285D01*
X150165714Y-78696428D01*
X150237142Y-78625000D01*
X150380000Y-78553571D01*
X150737142Y-78553571D01*
X150951428Y-78625000D01*
X152308571Y-80053571D02*
X151594285Y-80053571D01*
X151594285Y-78553571D01*
X143335714Y-80053571D02*
X143335714Y-78553571D01*
X143835714Y-79625000D01*
X144335714Y-78553571D01*
X144335714Y-80053571D01*
X145335714Y-78553571D02*
X145621428Y-78553571D01*
X145764285Y-78625000D01*
X145907142Y-78767857D01*
X145978571Y-79053571D01*
X145978571Y-79553571D01*
X145907142Y-79839285D01*
X145764285Y-79982142D01*
X145621428Y-80053571D01*
X145335714Y-80053571D01*
X145192857Y-79982142D01*
X145050000Y-79839285D01*
X144978571Y-79553571D01*
X144978571Y-79053571D01*
X145050000Y-78767857D01*
X145192857Y-78625000D01*
X145335714Y-78553571D01*
X146621428Y-80053571D02*
X146621428Y-78553571D01*
X146978571Y-78553571D01*
X147192857Y-78625000D01*
X147335714Y-78767857D01*
X147407142Y-78910714D01*
X147478571Y-79196428D01*
X147478571Y-79410714D01*
X147407142Y-79696428D01*
X147335714Y-79839285D01*
X147192857Y-79982142D01*
X146978571Y-80053571D01*
X146621428Y-80053571D01*
X148121428Y-79267857D02*
X148621428Y-79267857D01*
X148835714Y-80053571D02*
X148121428Y-80053571D01*
X148121428Y-78553571D01*
X148835714Y-78553571D01*
X141510000Y-70298571D02*
X142010000Y-71798571D01*
X142510000Y-70298571D01*
X143010000Y-71798571D02*
X143010000Y-70298571D01*
X143367142Y-70298571D01*
X143581428Y-70370000D01*
X143724285Y-70512857D01*
X143795714Y-70655714D01*
X143867142Y-70941428D01*
X143867142Y-71155714D01*
X143795714Y-71441428D01*
X143724285Y-71584285D01*
X143581428Y-71727142D01*
X143367142Y-71798571D01*
X143010000Y-71798571D01*
X144510000Y-71798571D02*
X144510000Y-70298571D01*
X144867142Y-70298571D01*
X145081428Y-70370000D01*
X145224285Y-70512857D01*
X145295714Y-70655714D01*
X145367142Y-70941428D01*
X145367142Y-71155714D01*
X145295714Y-71441428D01*
X145224285Y-71584285D01*
X145081428Y-71727142D01*
X144867142Y-71798571D01*
X144510000Y-71798571D01*
X141581428Y-75378571D02*
X142081428Y-76878571D01*
X142581428Y-75378571D01*
X143010000Y-76807142D02*
X143224285Y-76878571D01*
X143581428Y-76878571D01*
X143724285Y-76807142D01*
X143795714Y-76735714D01*
X143867142Y-76592857D01*
X143867142Y-76450000D01*
X143795714Y-76307142D01*
X143724285Y-76235714D01*
X143581428Y-76164285D01*
X143295714Y-76092857D01*
X143152857Y-76021428D01*
X143081428Y-75950000D01*
X143010000Y-75807142D01*
X143010000Y-75664285D01*
X143081428Y-75521428D01*
X143152857Y-75450000D01*
X143295714Y-75378571D01*
X143652857Y-75378571D01*
X143867142Y-75450000D01*
X144438571Y-76807142D02*
X144652857Y-76878571D01*
X145010000Y-76878571D01*
X145152857Y-76807142D01*
X145224285Y-76735714D01*
X145295714Y-76592857D01*
X145295714Y-76450000D01*
X145224285Y-76307142D01*
X145152857Y-76235714D01*
X145010000Y-76164285D01*
X144724285Y-76092857D01*
X144581428Y-76021428D01*
X144510000Y-75950000D01*
X144438571Y-75807142D01*
X144438571Y-75664285D01*
X144510000Y-75521428D01*
X144581428Y-75450000D01*
X144724285Y-75378571D01*
X145081428Y-75378571D01*
X145295714Y-75450000D01*
D11*
X131780595Y-82687380D02*
X131780595Y-81687380D01*
X132113928Y-82401666D01*
X132447261Y-81687380D01*
X132447261Y-82687380D01*
X133113928Y-81687380D02*
X133304404Y-81687380D01*
X133399642Y-81735000D01*
X133494880Y-81830238D01*
X133542500Y-82020714D01*
X133542500Y-82354047D01*
X133494880Y-82544523D01*
X133399642Y-82639761D01*
X133304404Y-82687380D01*
X133113928Y-82687380D01*
X133018690Y-82639761D01*
X132923452Y-82544523D01*
X132875833Y-82354047D01*
X132875833Y-82020714D01*
X132923452Y-81830238D01*
X133018690Y-81735000D01*
X133113928Y-81687380D01*
X133971071Y-82687380D02*
X133971071Y-81687380D01*
X134209166Y-81687380D01*
X134352023Y-81735000D01*
X134447261Y-81830238D01*
X134494880Y-81925476D01*
X134542500Y-82115952D01*
X134542500Y-82258809D01*
X134494880Y-82449285D01*
X134447261Y-82544523D01*
X134352023Y-82639761D01*
X134209166Y-82687380D01*
X133971071Y-82687380D01*
X134971071Y-82163571D02*
X135304404Y-82163571D01*
X135447261Y-82687380D02*
X134971071Y-82687380D01*
X134971071Y-81687380D01*
X135447261Y-81687380D01*
X136590119Y-82639761D02*
X136732976Y-82687380D01*
X136971071Y-82687380D01*
X137066309Y-82639761D01*
X137113928Y-82592142D01*
X137161547Y-82496904D01*
X137161547Y-82401666D01*
X137113928Y-82306428D01*
X137066309Y-82258809D01*
X136971071Y-82211190D01*
X136780595Y-82163571D01*
X136685357Y-82115952D01*
X136637738Y-82068333D01*
X136590119Y-81973095D01*
X136590119Y-81877857D01*
X136637738Y-81782619D01*
X136685357Y-81735000D01*
X136780595Y-81687380D01*
X137018690Y-81687380D01*
X137161547Y-81735000D01*
X138066309Y-82687380D02*
X137590119Y-82687380D01*
X137590119Y-81687380D01*
X139161547Y-82592142D02*
X139209166Y-82639761D01*
X139161547Y-82687380D01*
X139113928Y-82639761D01*
X139161547Y-82592142D01*
X139161547Y-82687380D01*
X139161547Y-82068333D02*
X139209166Y-82115952D01*
X139161547Y-82163571D01*
X139113928Y-82115952D01*
X139161547Y-82068333D01*
X139161547Y-82163571D01*
X140256785Y-81687380D02*
X140828214Y-81687380D01*
X140542500Y-82687380D02*
X140542500Y-81687380D01*
X141732976Y-82687380D02*
X141399642Y-82211190D01*
X141161547Y-82687380D02*
X141161547Y-81687380D01*
X141542500Y-81687380D01*
X141637738Y-81735000D01*
X141685357Y-81782619D01*
X141732976Y-81877857D01*
X141732976Y-82020714D01*
X141685357Y-82115952D01*
X141637738Y-82163571D01*
X141542500Y-82211190D01*
X141161547Y-82211190D01*
X142161547Y-82687380D02*
X142161547Y-81687380D01*
X143161547Y-81735000D02*
X143066309Y-81687380D01*
X142923452Y-81687380D01*
X142780595Y-81735000D01*
X142685357Y-81830238D01*
X142637738Y-81925476D01*
X142590119Y-82115952D01*
X142590119Y-82258809D01*
X142637738Y-82449285D01*
X142685357Y-82544523D01*
X142780595Y-82639761D01*
X142923452Y-82687380D01*
X143018690Y-82687380D01*
X143161547Y-82639761D01*
X143209166Y-82592142D01*
X143209166Y-82258809D01*
X143018690Y-82258809D01*
X144161547Y-81735000D02*
X144066309Y-81687380D01*
X143923452Y-81687380D01*
X143780595Y-81735000D01*
X143685357Y-81830238D01*
X143637738Y-81925476D01*
X143590119Y-82115952D01*
X143590119Y-82258809D01*
X143637738Y-82449285D01*
X143685357Y-82544523D01*
X143780595Y-82639761D01*
X143923452Y-82687380D01*
X144018690Y-82687380D01*
X144161547Y-82639761D01*
X144209166Y-82592142D01*
X144209166Y-82258809D01*
X144018690Y-82258809D01*
X145209166Y-82687380D02*
X144875833Y-82211190D01*
X144637738Y-82687380D02*
X144637738Y-81687380D01*
X145018690Y-81687380D01*
X145113928Y-81735000D01*
X145161547Y-81782619D01*
X145209166Y-81877857D01*
X145209166Y-82020714D01*
X145161547Y-82115952D01*
X145113928Y-82163571D01*
X145018690Y-82211190D01*
X144637738Y-82211190D01*
X146399642Y-82687380D02*
X146399642Y-81687380D01*
X146732976Y-82401666D01*
X147066309Y-81687380D01*
X147066309Y-82687380D01*
X147732976Y-81687380D02*
X147923452Y-81687380D01*
X148018690Y-81735000D01*
X148113928Y-81830238D01*
X148161547Y-82020714D01*
X148161547Y-82354047D01*
X148113928Y-82544523D01*
X148018690Y-82639761D01*
X147923452Y-82687380D01*
X147732976Y-82687380D01*
X147637738Y-82639761D01*
X147542500Y-82544523D01*
X147494880Y-82354047D01*
X147494880Y-82020714D01*
X147542500Y-81830238D01*
X147637738Y-81735000D01*
X147732976Y-81687380D01*
X148590119Y-82687380D02*
X148590119Y-81687380D01*
X148828214Y-81687380D01*
X148971071Y-81735000D01*
X149066309Y-81830238D01*
X149113928Y-81925476D01*
X149161547Y-82115952D01*
X149161547Y-82258809D01*
X149113928Y-82449285D01*
X149066309Y-82544523D01*
X148971071Y-82639761D01*
X148828214Y-82687380D01*
X148590119Y-82687380D01*
X149590119Y-82163571D02*
X149923452Y-82163571D01*
X150066309Y-82687380D02*
X149590119Y-82687380D01*
X149590119Y-81687380D01*
X150066309Y-81687380D01*
X132399642Y-83337380D02*
X132732976Y-84337380D01*
X133066309Y-83337380D01*
X133352023Y-84289761D02*
X133494880Y-84337380D01*
X133732976Y-84337380D01*
X133828214Y-84289761D01*
X133875833Y-84242142D01*
X133923452Y-84146904D01*
X133923452Y-84051666D01*
X133875833Y-83956428D01*
X133828214Y-83908809D01*
X133732976Y-83861190D01*
X133542500Y-83813571D01*
X133447261Y-83765952D01*
X133399642Y-83718333D01*
X133352023Y-83623095D01*
X133352023Y-83527857D01*
X133399642Y-83432619D01*
X133447261Y-83385000D01*
X133542500Y-83337380D01*
X133780595Y-83337380D01*
X133923452Y-83385000D01*
X134304404Y-84289761D02*
X134447261Y-84337380D01*
X134685357Y-84337380D01*
X134780595Y-84289761D01*
X134828214Y-84242142D01*
X134875833Y-84146904D01*
X134875833Y-84051666D01*
X134828214Y-83956428D01*
X134780595Y-83908809D01*
X134685357Y-83861190D01*
X134494880Y-83813571D01*
X134399642Y-83765952D01*
X134352023Y-83718333D01*
X134304404Y-83623095D01*
X134304404Y-83527857D01*
X134352023Y-83432619D01*
X134399642Y-83385000D01*
X134494880Y-83337380D01*
X134732976Y-83337380D01*
X134875833Y-83385000D01*
X135923452Y-83337380D02*
X136256785Y-84337380D01*
X136590119Y-83337380D01*
X136875833Y-84289761D02*
X137018690Y-84337380D01*
X137256785Y-84337380D01*
X137352023Y-84289761D01*
X137399642Y-84242142D01*
X137447261Y-84146904D01*
X137447261Y-84051666D01*
X137399642Y-83956428D01*
X137352023Y-83908809D01*
X137256785Y-83861190D01*
X137066309Y-83813571D01*
X136971071Y-83765952D01*
X136923452Y-83718333D01*
X136875833Y-83623095D01*
X136875833Y-83527857D01*
X136923452Y-83432619D01*
X136971071Y-83385000D01*
X137066309Y-83337380D01*
X137304404Y-83337380D01*
X137447261Y-83385000D01*
X137828214Y-84289761D02*
X137971071Y-84337380D01*
X138209166Y-84337380D01*
X138304404Y-84289761D01*
X138352023Y-84242142D01*
X138399642Y-84146904D01*
X138399642Y-84051666D01*
X138352023Y-83956428D01*
X138304404Y-83908809D01*
X138209166Y-83861190D01*
X138018690Y-83813571D01*
X137923452Y-83765952D01*
X137875833Y-83718333D01*
X137828214Y-83623095D01*
X137828214Y-83527857D01*
X137875833Y-83432619D01*
X137923452Y-83385000D01*
X138018690Y-83337380D01*
X138256785Y-83337380D01*
X138399642Y-83385000D01*
X138828214Y-84242142D02*
X138875833Y-84289761D01*
X138828214Y-84337380D01*
X138780595Y-84289761D01*
X138828214Y-84242142D01*
X138828214Y-84337380D01*
X138828214Y-83718333D02*
X138875833Y-83765952D01*
X138828214Y-83813571D01*
X138780595Y-83765952D01*
X138828214Y-83718333D01*
X138828214Y-83813571D01*
X140066309Y-84337380D02*
X140066309Y-83337380D01*
X140447261Y-83337380D01*
X140542500Y-83385000D01*
X140590119Y-83432619D01*
X140637738Y-83527857D01*
X140637738Y-83670714D01*
X140590119Y-83765952D01*
X140542500Y-83813571D01*
X140447261Y-83861190D01*
X140066309Y-83861190D01*
X141209166Y-84337380D02*
X141113928Y-84289761D01*
X141066309Y-84194523D01*
X141066309Y-83337380D01*
X142018690Y-84337380D02*
X142018690Y-83813571D01*
X141971071Y-83718333D01*
X141875833Y-83670714D01*
X141685357Y-83670714D01*
X141590119Y-83718333D01*
X142018690Y-84289761D02*
X141923452Y-84337380D01*
X141685357Y-84337380D01*
X141590119Y-84289761D01*
X141542500Y-84194523D01*
X141542500Y-84099285D01*
X141590119Y-84004047D01*
X141685357Y-83956428D01*
X141923452Y-83956428D01*
X142018690Y-83908809D01*
X142399642Y-83670714D02*
X142637738Y-84337380D01*
X142875833Y-83670714D02*
X142637738Y-84337380D01*
X142542500Y-84575476D01*
X142494880Y-84623095D01*
X142399642Y-84670714D01*
X143971071Y-84051666D02*
X144447261Y-84051666D01*
X143875833Y-84337380D02*
X144209166Y-83337380D01*
X144542500Y-84337380D01*
X145018690Y-84337380D02*
X144923452Y-84289761D01*
X144875833Y-84194523D01*
X144875833Y-83337380D01*
X145542500Y-84337380D02*
X145447261Y-84289761D01*
X145399642Y-84194523D01*
X145399642Y-83337380D01*
X146637738Y-84289761D02*
X146780595Y-84337380D01*
X147018690Y-84337380D01*
X147113928Y-84289761D01*
X147161547Y-84242142D01*
X147209166Y-84146904D01*
X147209166Y-84051666D01*
X147161547Y-83956428D01*
X147113928Y-83908809D01*
X147018690Y-83861190D01*
X146828214Y-83813571D01*
X146732976Y-83765952D01*
X146685357Y-83718333D01*
X146637738Y-83623095D01*
X146637738Y-83527857D01*
X146685357Y-83432619D01*
X146732976Y-83385000D01*
X146828214Y-83337380D01*
X147066309Y-83337380D01*
X147209166Y-83385000D01*
X147780595Y-84337380D02*
X147685357Y-84289761D01*
X147637738Y-84242142D01*
X147590119Y-84146904D01*
X147590119Y-83861190D01*
X147637738Y-83765952D01*
X147685357Y-83718333D01*
X147780595Y-83670714D01*
X147923452Y-83670714D01*
X148018690Y-83718333D01*
X148066309Y-83765952D01*
X148113928Y-83861190D01*
X148113928Y-84146904D01*
X148066309Y-84242142D01*
X148018690Y-84289761D01*
X147923452Y-84337380D01*
X147780595Y-84337380D01*
X148542500Y-83670714D02*
X148542500Y-84337380D01*
X148542500Y-83765952D02*
X148590119Y-83718333D01*
X148685357Y-83670714D01*
X148828214Y-83670714D01*
X148923452Y-83718333D01*
X148971071Y-83813571D01*
X148971071Y-84337380D01*
X149875833Y-83670714D02*
X149875833Y-84480238D01*
X149828214Y-84575476D01*
X149780595Y-84623095D01*
X149685357Y-84670714D01*
X149542500Y-84670714D01*
X149447261Y-84623095D01*
X149875833Y-84289761D02*
X149780595Y-84337380D01*
X149590119Y-84337380D01*
X149494880Y-84289761D01*
X149447261Y-84242142D01*
X149399642Y-84146904D01*
X149399642Y-83861190D01*
X149447261Y-83765952D01*
X149494880Y-83718333D01*
X149590119Y-83670714D01*
X149780595Y-83670714D01*
X149875833Y-83718333D01*
X150304404Y-84289761D02*
X150399642Y-84337380D01*
X150590119Y-84337380D01*
X150685357Y-84289761D01*
X150732976Y-84194523D01*
X150732976Y-84146904D01*
X150685357Y-84051666D01*
X150590119Y-84004047D01*
X150447261Y-84004047D01*
X150352023Y-83956428D01*
X150304404Y-83861190D01*
X150304404Y-83813571D01*
X150352023Y-83718333D01*
X150447261Y-83670714D01*
X150590119Y-83670714D01*
X150685357Y-83718333D01*
X132399642Y-84987380D02*
X132732976Y-85987380D01*
X133066309Y-84987380D01*
X133352023Y-85939761D02*
X133494880Y-85987380D01*
X133732976Y-85987380D01*
X133828214Y-85939761D01*
X133875833Y-85892142D01*
X133923452Y-85796904D01*
X133923452Y-85701666D01*
X133875833Y-85606428D01*
X133828214Y-85558809D01*
X133732976Y-85511190D01*
X133542500Y-85463571D01*
X133447261Y-85415952D01*
X133399642Y-85368333D01*
X133352023Y-85273095D01*
X133352023Y-85177857D01*
X133399642Y-85082619D01*
X133447261Y-85035000D01*
X133542500Y-84987380D01*
X133780595Y-84987380D01*
X133923452Y-85035000D01*
X134304404Y-85939761D02*
X134447261Y-85987380D01*
X134685357Y-85987380D01*
X134780595Y-85939761D01*
X134828214Y-85892142D01*
X134875833Y-85796904D01*
X134875833Y-85701666D01*
X134828214Y-85606428D01*
X134780595Y-85558809D01*
X134685357Y-85511190D01*
X134494880Y-85463571D01*
X134399642Y-85415952D01*
X134352023Y-85368333D01*
X134304404Y-85273095D01*
X134304404Y-85177857D01*
X134352023Y-85082619D01*
X134399642Y-85035000D01*
X134494880Y-84987380D01*
X134732976Y-84987380D01*
X134875833Y-85035000D01*
X135923452Y-84987380D02*
X136256785Y-85987380D01*
X136590119Y-84987380D01*
X136923452Y-85987380D02*
X136923452Y-84987380D01*
X137161547Y-84987380D01*
X137304404Y-85035000D01*
X137399642Y-85130238D01*
X137447261Y-85225476D01*
X137494880Y-85415952D01*
X137494880Y-85558809D01*
X137447261Y-85749285D01*
X137399642Y-85844523D01*
X137304404Y-85939761D01*
X137161547Y-85987380D01*
X136923452Y-85987380D01*
X137923452Y-85987380D02*
X137923452Y-84987380D01*
X138161547Y-84987380D01*
X138304404Y-85035000D01*
X138399642Y-85130238D01*
X138447261Y-85225476D01*
X138494880Y-85415952D01*
X138494880Y-85558809D01*
X138447261Y-85749285D01*
X138399642Y-85844523D01*
X138304404Y-85939761D01*
X138161547Y-85987380D01*
X137923452Y-85987380D01*
X138923452Y-85892142D02*
X138971071Y-85939761D01*
X138923452Y-85987380D01*
X138875833Y-85939761D01*
X138923452Y-85892142D01*
X138923452Y-85987380D01*
X138923452Y-85368333D02*
X138971071Y-85415952D01*
X138923452Y-85463571D01*
X138875833Y-85415952D01*
X138923452Y-85368333D01*
X138923452Y-85463571D01*
X140352023Y-84987380D02*
X140542500Y-84987380D01*
X140637738Y-85035000D01*
X140732976Y-85130238D01*
X140780595Y-85320714D01*
X140780595Y-85654047D01*
X140732976Y-85844523D01*
X140637738Y-85939761D01*
X140542500Y-85987380D01*
X140352023Y-85987380D01*
X140256785Y-85939761D01*
X140161547Y-85844523D01*
X140113928Y-85654047D01*
X140113928Y-85320714D01*
X140161547Y-85130238D01*
X140256785Y-85035000D01*
X140352023Y-84987380D01*
X141209166Y-85320714D02*
X141209166Y-85987380D01*
X141209166Y-85415952D02*
X141256785Y-85368333D01*
X141352023Y-85320714D01*
X141494880Y-85320714D01*
X141590119Y-85368333D01*
X141637738Y-85463571D01*
X141637738Y-85987380D01*
X142494880Y-85939761D02*
X142399642Y-85987380D01*
X142209166Y-85987380D01*
X142113928Y-85939761D01*
X142066309Y-85844523D01*
X142066309Y-85463571D01*
X142113928Y-85368333D01*
X142209166Y-85320714D01*
X142399642Y-85320714D01*
X142494880Y-85368333D01*
X142542500Y-85463571D01*
X142542500Y-85558809D01*
X142066309Y-85654047D01*
X143685357Y-85939761D02*
X143828214Y-85987380D01*
X144066309Y-85987380D01*
X144161547Y-85939761D01*
X144209166Y-85892142D01*
X144256785Y-85796904D01*
X144256785Y-85701666D01*
X144209166Y-85606428D01*
X144161547Y-85558809D01*
X144066309Y-85511190D01*
X143875833Y-85463571D01*
X143780595Y-85415952D01*
X143732976Y-85368333D01*
X143685357Y-85273095D01*
X143685357Y-85177857D01*
X143732976Y-85082619D01*
X143780595Y-85035000D01*
X143875833Y-84987380D01*
X144113928Y-84987380D01*
X144256785Y-85035000D01*
X144685357Y-85987380D02*
X144685357Y-84987380D01*
X145113928Y-85987380D02*
X145113928Y-85463571D01*
X145066309Y-85368333D01*
X144971071Y-85320714D01*
X144828214Y-85320714D01*
X144732976Y-85368333D01*
X144685357Y-85415952D01*
X145732976Y-85987380D02*
X145637738Y-85939761D01*
X145590119Y-85892142D01*
X145542500Y-85796904D01*
X145542500Y-85511190D01*
X145590119Y-85415952D01*
X145637738Y-85368333D01*
X145732976Y-85320714D01*
X145875833Y-85320714D01*
X145971071Y-85368333D01*
X146018690Y-85415952D01*
X146066309Y-85511190D01*
X146066309Y-85796904D01*
X146018690Y-85892142D01*
X145971071Y-85939761D01*
X145875833Y-85987380D01*
X145732976Y-85987380D01*
X146352023Y-85320714D02*
X146732976Y-85320714D01*
X146494880Y-84987380D02*
X146494880Y-85844523D01*
X146542500Y-85939761D01*
X146637738Y-85987380D01*
X146732976Y-85987380D01*
X148399642Y-85987380D02*
X148066309Y-85511190D01*
X147828214Y-85987380D02*
X147828214Y-84987380D01*
X148209166Y-84987380D01*
X148304404Y-85035000D01*
X148352023Y-85082619D01*
X148399642Y-85177857D01*
X148399642Y-85320714D01*
X148352023Y-85415952D01*
X148304404Y-85463571D01*
X148209166Y-85511190D01*
X147828214Y-85511190D01*
X149209166Y-85939761D02*
X149113928Y-85987380D01*
X148923452Y-85987380D01*
X148828214Y-85939761D01*
X148780595Y-85844523D01*
X148780595Y-85463571D01*
X148828214Y-85368333D01*
X148923452Y-85320714D01*
X149113928Y-85320714D01*
X149209166Y-85368333D01*
X149256785Y-85463571D01*
X149256785Y-85558809D01*
X148780595Y-85654047D01*
X149685357Y-85606428D02*
X150447261Y-85606428D01*
X150780595Y-84987380D02*
X151352023Y-84987380D01*
X151066309Y-85987380D02*
X151066309Y-84987380D01*
X151685357Y-85987380D02*
X151685357Y-85320714D01*
X151685357Y-85511190D02*
X151732976Y-85415952D01*
X151780595Y-85368333D01*
X151875833Y-85320714D01*
X151971071Y-85320714D01*
X152304404Y-85987380D02*
X152304404Y-85320714D01*
X152304404Y-84987380D02*
X152256785Y-85035000D01*
X152304404Y-85082619D01*
X152352023Y-85035000D01*
X152304404Y-84987380D01*
X152304404Y-85082619D01*
X153209166Y-85320714D02*
X153209166Y-86130238D01*
X153161547Y-86225476D01*
X153113928Y-86273095D01*
X153018690Y-86320714D01*
X152875833Y-86320714D01*
X152780595Y-86273095D01*
X153209166Y-85939761D02*
X153113928Y-85987380D01*
X152923452Y-85987380D01*
X152828214Y-85939761D01*
X152780595Y-85892142D01*
X152732976Y-85796904D01*
X152732976Y-85511190D01*
X152780595Y-85415952D01*
X152828214Y-85368333D01*
X152923452Y-85320714D01*
X153113928Y-85320714D01*
X153209166Y-85368333D01*
X154113928Y-85320714D02*
X154113928Y-86130238D01*
X154066309Y-86225476D01*
X154018690Y-86273095D01*
X153923452Y-86320714D01*
X153780595Y-86320714D01*
X153685357Y-86273095D01*
X154113928Y-85939761D02*
X154018690Y-85987380D01*
X153828214Y-85987380D01*
X153732976Y-85939761D01*
X153685357Y-85892142D01*
X153637738Y-85796904D01*
X153637738Y-85511190D01*
X153685357Y-85415952D01*
X153732976Y-85368333D01*
X153828214Y-85320714D01*
X154018690Y-85320714D01*
X154113928Y-85368333D01*
X154971071Y-85939761D02*
X154875833Y-85987380D01*
X154685357Y-85987380D01*
X154590119Y-85939761D01*
X154542500Y-85844523D01*
X154542500Y-85463571D01*
X154590119Y-85368333D01*
X154685357Y-85320714D01*
X154875833Y-85320714D01*
X154971071Y-85368333D01*
X155018690Y-85463571D01*
X155018690Y-85558809D01*
X154542500Y-85654047D01*
X155447261Y-85987380D02*
X155447261Y-85320714D01*
X155447261Y-85511190D02*
X155494880Y-85415952D01*
X155542500Y-85368333D01*
X155637738Y-85320714D01*
X155732976Y-85320714D01*
X132399642Y-86637380D02*
X132732976Y-87637380D01*
X133066309Y-86637380D01*
X133399642Y-87637380D02*
X133399642Y-86637380D01*
X133637738Y-86637380D01*
X133780595Y-86685000D01*
X133875833Y-86780238D01*
X133923452Y-86875476D01*
X133971071Y-87065952D01*
X133971071Y-87208809D01*
X133923452Y-87399285D01*
X133875833Y-87494523D01*
X133780595Y-87589761D01*
X133637738Y-87637380D01*
X133399642Y-87637380D01*
X134399642Y-87637380D02*
X134399642Y-86637380D01*
X134637738Y-86637380D01*
X134780595Y-86685000D01*
X134875833Y-86780238D01*
X134923452Y-86875476D01*
X134971071Y-87065952D01*
X134971071Y-87208809D01*
X134923452Y-87399285D01*
X134875833Y-87494523D01*
X134780595Y-87589761D01*
X134637738Y-87637380D01*
X134399642Y-87637380D01*
X136018690Y-86637380D02*
X136352023Y-87637380D01*
X136685357Y-86637380D01*
X136971071Y-87589761D02*
X137113928Y-87637380D01*
X137352023Y-87637380D01*
X137447261Y-87589761D01*
X137494880Y-87542142D01*
X137542500Y-87446904D01*
X137542500Y-87351666D01*
X137494880Y-87256428D01*
X137447261Y-87208809D01*
X137352023Y-87161190D01*
X137161547Y-87113571D01*
X137066309Y-87065952D01*
X137018690Y-87018333D01*
X136971071Y-86923095D01*
X136971071Y-86827857D01*
X137018690Y-86732619D01*
X137066309Y-86685000D01*
X137161547Y-86637380D01*
X137399642Y-86637380D01*
X137542500Y-86685000D01*
X137923452Y-87589761D02*
X138066309Y-87637380D01*
X138304404Y-87637380D01*
X138399642Y-87589761D01*
X138447261Y-87542142D01*
X138494880Y-87446904D01*
X138494880Y-87351666D01*
X138447261Y-87256428D01*
X138399642Y-87208809D01*
X138304404Y-87161190D01*
X138113928Y-87113571D01*
X138018690Y-87065952D01*
X137971071Y-87018333D01*
X137923452Y-86923095D01*
X137923452Y-86827857D01*
X137971071Y-86732619D01*
X138018690Y-86685000D01*
X138113928Y-86637380D01*
X138352023Y-86637380D01*
X138494880Y-86685000D01*
X138923452Y-87542142D02*
X138971071Y-87589761D01*
X138923452Y-87637380D01*
X138875833Y-87589761D01*
X138923452Y-87542142D01*
X138923452Y-87637380D01*
X138923452Y-87018333D02*
X138971071Y-87065952D01*
X138923452Y-87113571D01*
X138875833Y-87065952D01*
X138923452Y-87018333D01*
X138923452Y-87113571D01*
X140352023Y-86637380D02*
X140542500Y-86637380D01*
X140637738Y-86685000D01*
X140732976Y-86780238D01*
X140780595Y-86970714D01*
X140780595Y-87304047D01*
X140732976Y-87494523D01*
X140637738Y-87589761D01*
X140542500Y-87637380D01*
X140352023Y-87637380D01*
X140256785Y-87589761D01*
X140161547Y-87494523D01*
X140113928Y-87304047D01*
X140113928Y-86970714D01*
X140161547Y-86780238D01*
X140256785Y-86685000D01*
X140352023Y-86637380D01*
X141209166Y-86970714D02*
X141209166Y-87637380D01*
X141209166Y-87065952D02*
X141256785Y-87018333D01*
X141352023Y-86970714D01*
X141494880Y-86970714D01*
X141590119Y-87018333D01*
X141637738Y-87113571D01*
X141637738Y-87637380D01*
X142494880Y-87589761D02*
X142399642Y-87637380D01*
X142209166Y-87637380D01*
X142113928Y-87589761D01*
X142066309Y-87494523D01*
X142066309Y-87113571D01*
X142113928Y-87018333D01*
X142209166Y-86970714D01*
X142399642Y-86970714D01*
X142494880Y-87018333D01*
X142542500Y-87113571D01*
X142542500Y-87208809D01*
X142066309Y-87304047D01*
X143685357Y-87589761D02*
X143828214Y-87637380D01*
X144066309Y-87637380D01*
X144161547Y-87589761D01*
X144209166Y-87542142D01*
X144256785Y-87446904D01*
X144256785Y-87351666D01*
X144209166Y-87256428D01*
X144161547Y-87208809D01*
X144066309Y-87161190D01*
X143875833Y-87113571D01*
X143780595Y-87065952D01*
X143732976Y-87018333D01*
X143685357Y-86923095D01*
X143685357Y-86827857D01*
X143732976Y-86732619D01*
X143780595Y-86685000D01*
X143875833Y-86637380D01*
X144113928Y-86637380D01*
X144256785Y-86685000D01*
X144685357Y-87637380D02*
X144685357Y-86637380D01*
X145113928Y-87637380D02*
X145113928Y-87113571D01*
X145066309Y-87018333D01*
X144971071Y-86970714D01*
X144828214Y-86970714D01*
X144732976Y-87018333D01*
X144685357Y-87065952D01*
X145732976Y-87637380D02*
X145637738Y-87589761D01*
X145590119Y-87542142D01*
X145542500Y-87446904D01*
X145542500Y-87161190D01*
X145590119Y-87065952D01*
X145637738Y-87018333D01*
X145732976Y-86970714D01*
X145875833Y-86970714D01*
X145971071Y-87018333D01*
X146018690Y-87065952D01*
X146066309Y-87161190D01*
X146066309Y-87446904D01*
X146018690Y-87542142D01*
X145971071Y-87589761D01*
X145875833Y-87637380D01*
X145732976Y-87637380D01*
X146352023Y-86970714D02*
X146732976Y-86970714D01*
X146494880Y-86637380D02*
X146494880Y-87494523D01*
X146542500Y-87589761D01*
X146637738Y-87637380D01*
X146732976Y-87637380D01*
X147828214Y-87637380D02*
X147828214Y-86637380D01*
X148399642Y-87637380D01*
X148399642Y-86637380D01*
X149018690Y-87637380D02*
X148923452Y-87589761D01*
X148875833Y-87542142D01*
X148828214Y-87446904D01*
X148828214Y-87161190D01*
X148875833Y-87065952D01*
X148923452Y-87018333D01*
X149018690Y-86970714D01*
X149161547Y-86970714D01*
X149256785Y-87018333D01*
X149304404Y-87065952D01*
X149352023Y-87161190D01*
X149352023Y-87446904D01*
X149304404Y-87542142D01*
X149256785Y-87589761D01*
X149161547Y-87637380D01*
X149018690Y-87637380D01*
X149780595Y-86970714D02*
X149780595Y-87637380D01*
X149780595Y-87065952D02*
X149828214Y-87018333D01*
X149923452Y-86970714D01*
X150066309Y-86970714D01*
X150161547Y-87018333D01*
X150209166Y-87113571D01*
X150209166Y-87637380D01*
X152018690Y-87637380D02*
X151685357Y-87161190D01*
X151447261Y-87637380D02*
X151447261Y-86637380D01*
X151828214Y-86637380D01*
X151923452Y-86685000D01*
X151971071Y-86732619D01*
X152018690Y-86827857D01*
X152018690Y-86970714D01*
X151971071Y-87065952D01*
X151923452Y-87113571D01*
X151828214Y-87161190D01*
X151447261Y-87161190D01*
X152828214Y-87589761D02*
X152732976Y-87637380D01*
X152542500Y-87637380D01*
X152447261Y-87589761D01*
X152399642Y-87494523D01*
X152399642Y-87113571D01*
X152447261Y-87018333D01*
X152542500Y-86970714D01*
X152732976Y-86970714D01*
X152828214Y-87018333D01*
X152875833Y-87113571D01*
X152875833Y-87208809D01*
X152399642Y-87304047D01*
X153304404Y-87256428D02*
X154066309Y-87256428D01*
X154399642Y-86637380D02*
X154971071Y-86637380D01*
X154685357Y-87637380D02*
X154685357Y-86637380D01*
X155304404Y-87637380D02*
X155304404Y-86970714D01*
X155304404Y-87161190D02*
X155352023Y-87065952D01*
X155399642Y-87018333D01*
X155494880Y-86970714D01*
X155590119Y-86970714D01*
X155923452Y-87637380D02*
X155923452Y-86970714D01*
X155923452Y-86637380D02*
X155875833Y-86685000D01*
X155923452Y-86732619D01*
X155971071Y-86685000D01*
X155923452Y-86637380D01*
X155923452Y-86732619D01*
X156828214Y-86970714D02*
X156828214Y-87780238D01*
X156780595Y-87875476D01*
X156732976Y-87923095D01*
X156637738Y-87970714D01*
X156494880Y-87970714D01*
X156399642Y-87923095D01*
X156828214Y-87589761D02*
X156732976Y-87637380D01*
X156542500Y-87637380D01*
X156447261Y-87589761D01*
X156399642Y-87542142D01*
X156352023Y-87446904D01*
X156352023Y-87161190D01*
X156399642Y-87065952D01*
X156447261Y-87018333D01*
X156542500Y-86970714D01*
X156732976Y-86970714D01*
X156828214Y-87018333D01*
X157732976Y-86970714D02*
X157732976Y-87780238D01*
X157685357Y-87875476D01*
X157637738Y-87923095D01*
X157542500Y-87970714D01*
X157399642Y-87970714D01*
X157304404Y-87923095D01*
X157732976Y-87589761D02*
X157637738Y-87637380D01*
X157447261Y-87637380D01*
X157352023Y-87589761D01*
X157304404Y-87542142D01*
X157256785Y-87446904D01*
X157256785Y-87161190D01*
X157304404Y-87065952D01*
X157352023Y-87018333D01*
X157447261Y-86970714D01*
X157637738Y-86970714D01*
X157732976Y-87018333D01*
X158590119Y-87589761D02*
X158494880Y-87637380D01*
X158304404Y-87637380D01*
X158209166Y-87589761D01*
X158161547Y-87494523D01*
X158161547Y-87113571D01*
X158209166Y-87018333D01*
X158304404Y-86970714D01*
X158494880Y-86970714D01*
X158590119Y-87018333D01*
X158637738Y-87113571D01*
X158637738Y-87208809D01*
X158161547Y-87304047D01*
X159066309Y-87637380D02*
X159066309Y-86970714D01*
X159066309Y-87161190D02*
X159113928Y-87065952D01*
X159161547Y-87018333D01*
X159256785Y-86970714D01*
X159352023Y-86970714D01*
X132399642Y-88287380D02*
X132732976Y-89287380D01*
X133066309Y-88287380D01*
X133399642Y-89287380D02*
X133399642Y-88287380D01*
X133637738Y-88287380D01*
X133780595Y-88335000D01*
X133875833Y-88430238D01*
X133923452Y-88525476D01*
X133971071Y-88715952D01*
X133971071Y-88858809D01*
X133923452Y-89049285D01*
X133875833Y-89144523D01*
X133780595Y-89239761D01*
X133637738Y-89287380D01*
X133399642Y-89287380D01*
X134399642Y-89287380D02*
X134399642Y-88287380D01*
X134637738Y-88287380D01*
X134780595Y-88335000D01*
X134875833Y-88430238D01*
X134923452Y-88525476D01*
X134971071Y-88715952D01*
X134971071Y-88858809D01*
X134923452Y-89049285D01*
X134875833Y-89144523D01*
X134780595Y-89239761D01*
X134637738Y-89287380D01*
X134399642Y-89287380D01*
X136018690Y-88287380D02*
X136352023Y-89287380D01*
X136685357Y-88287380D01*
X137018690Y-89287380D02*
X137018690Y-88287380D01*
X137256785Y-88287380D01*
X137399642Y-88335000D01*
X137494880Y-88430238D01*
X137542500Y-88525476D01*
X137590119Y-88715952D01*
X137590119Y-88858809D01*
X137542500Y-89049285D01*
X137494880Y-89144523D01*
X137399642Y-89239761D01*
X137256785Y-89287380D01*
X137018690Y-89287380D01*
X138018690Y-89287380D02*
X138018690Y-88287380D01*
X138256785Y-88287380D01*
X138399642Y-88335000D01*
X138494880Y-88430238D01*
X138542500Y-88525476D01*
X138590119Y-88715952D01*
X138590119Y-88858809D01*
X138542500Y-89049285D01*
X138494880Y-89144523D01*
X138399642Y-89239761D01*
X138256785Y-89287380D01*
X138018690Y-89287380D01*
X139018690Y-89192142D02*
X139066309Y-89239761D01*
X139018690Y-89287380D01*
X138971071Y-89239761D01*
X139018690Y-89192142D01*
X139018690Y-89287380D01*
X139018690Y-88668333D02*
X139066309Y-88715952D01*
X139018690Y-88763571D01*
X138971071Y-88715952D01*
X139018690Y-88668333D01*
X139018690Y-88763571D01*
X140447261Y-88287380D02*
X140637738Y-88287380D01*
X140732976Y-88335000D01*
X140828214Y-88430238D01*
X140875833Y-88620714D01*
X140875833Y-88954047D01*
X140828214Y-89144523D01*
X140732976Y-89239761D01*
X140637738Y-89287380D01*
X140447261Y-89287380D01*
X140352023Y-89239761D01*
X140256785Y-89144523D01*
X140209166Y-88954047D01*
X140209166Y-88620714D01*
X140256785Y-88430238D01*
X140352023Y-88335000D01*
X140447261Y-88287380D01*
X141304404Y-88620714D02*
X141304404Y-89287380D01*
X141304404Y-88715952D02*
X141352023Y-88668333D01*
X141447261Y-88620714D01*
X141590119Y-88620714D01*
X141685357Y-88668333D01*
X141732976Y-88763571D01*
X141732976Y-89287380D01*
X142923452Y-88239761D02*
X142066309Y-89525476D01*
X143447261Y-88287380D02*
X143637738Y-88287380D01*
X143732976Y-88335000D01*
X143828214Y-88430238D01*
X143875833Y-88620714D01*
X143875833Y-88954047D01*
X143828214Y-89144523D01*
X143732976Y-89239761D01*
X143637738Y-89287380D01*
X143447261Y-89287380D01*
X143352023Y-89239761D01*
X143256785Y-89144523D01*
X143209166Y-88954047D01*
X143209166Y-88620714D01*
X143256785Y-88430238D01*
X143352023Y-88335000D01*
X143447261Y-88287380D01*
X144161547Y-88620714D02*
X144542500Y-88620714D01*
X144304404Y-89287380D02*
X144304404Y-88430238D01*
X144352023Y-88335000D01*
X144447261Y-88287380D01*
X144542500Y-88287380D01*
X144732976Y-88620714D02*
X145113928Y-88620714D01*
X144875833Y-89287380D02*
X144875833Y-88430238D01*
X144923452Y-88335000D01*
X145018690Y-88287380D01*
X145113928Y-88287380D01*
X146161547Y-89239761D02*
X146304404Y-89287380D01*
X146542500Y-89287380D01*
X146637738Y-89239761D01*
X146685357Y-89192142D01*
X146732976Y-89096904D01*
X146732976Y-89001666D01*
X146685357Y-88906428D01*
X146637738Y-88858809D01*
X146542500Y-88811190D01*
X146352023Y-88763571D01*
X146256785Y-88715952D01*
X146209166Y-88668333D01*
X146161547Y-88573095D01*
X146161547Y-88477857D01*
X146209166Y-88382619D01*
X146256785Y-88335000D01*
X146352023Y-88287380D01*
X146590119Y-88287380D01*
X146732976Y-88335000D01*
X147066309Y-88620714D02*
X147256785Y-89287380D01*
X147447261Y-88811190D01*
X147637738Y-89287380D01*
X147828214Y-88620714D01*
X148209166Y-89287380D02*
X148209166Y-88620714D01*
X148209166Y-88287380D02*
X148161547Y-88335000D01*
X148209166Y-88382619D01*
X148256785Y-88335000D01*
X148209166Y-88287380D01*
X148209166Y-88382619D01*
X148542500Y-88620714D02*
X148923452Y-88620714D01*
X148685357Y-88287380D02*
X148685357Y-89144523D01*
X148732976Y-89239761D01*
X148828214Y-89287380D01*
X148923452Y-89287380D01*
X149685357Y-89239761D02*
X149590119Y-89287380D01*
X149399642Y-89287380D01*
X149304404Y-89239761D01*
X149256785Y-89192142D01*
X149209166Y-89096904D01*
X149209166Y-88811190D01*
X149256785Y-88715952D01*
X149304404Y-88668333D01*
X149399642Y-88620714D01*
X149590119Y-88620714D01*
X149685357Y-88668333D01*
X150113928Y-89287380D02*
X150113928Y-88287380D01*
X150542500Y-89287380D02*
X150542500Y-88763571D01*
X150494880Y-88668333D01*
X150399642Y-88620714D01*
X150256785Y-88620714D01*
X150161547Y-88668333D01*
X150113928Y-88715952D01*
X132399642Y-89937380D02*
X132732976Y-90937380D01*
X133066309Y-89937380D01*
X133352023Y-90889761D02*
X133494880Y-90937380D01*
X133732976Y-90937380D01*
X133828214Y-90889761D01*
X133875833Y-90842142D01*
X133923452Y-90746904D01*
X133923452Y-90651666D01*
X133875833Y-90556428D01*
X133828214Y-90508809D01*
X133732976Y-90461190D01*
X133542500Y-90413571D01*
X133447261Y-90365952D01*
X133399642Y-90318333D01*
X133352023Y-90223095D01*
X133352023Y-90127857D01*
X133399642Y-90032619D01*
X133447261Y-89985000D01*
X133542500Y-89937380D01*
X133780595Y-89937380D01*
X133923452Y-89985000D01*
X134304404Y-90889761D02*
X134447261Y-90937380D01*
X134685357Y-90937380D01*
X134780595Y-90889761D01*
X134828214Y-90842142D01*
X134875833Y-90746904D01*
X134875833Y-90651666D01*
X134828214Y-90556428D01*
X134780595Y-90508809D01*
X134685357Y-90461190D01*
X134494880Y-90413571D01*
X134399642Y-90365952D01*
X134352023Y-90318333D01*
X134304404Y-90223095D01*
X134304404Y-90127857D01*
X134352023Y-90032619D01*
X134399642Y-89985000D01*
X134494880Y-89937380D01*
X134732976Y-89937380D01*
X134875833Y-89985000D01*
X135923452Y-89937380D02*
X136256785Y-90937380D01*
X136590119Y-89937380D01*
X136875833Y-90889761D02*
X137018690Y-90937380D01*
X137256785Y-90937380D01*
X137352023Y-90889761D01*
X137399642Y-90842142D01*
X137447261Y-90746904D01*
X137447261Y-90651666D01*
X137399642Y-90556428D01*
X137352023Y-90508809D01*
X137256785Y-90461190D01*
X137066309Y-90413571D01*
X136971071Y-90365952D01*
X136923452Y-90318333D01*
X136875833Y-90223095D01*
X136875833Y-90127857D01*
X136923452Y-90032619D01*
X136971071Y-89985000D01*
X137066309Y-89937380D01*
X137304404Y-89937380D01*
X137447261Y-89985000D01*
X137828214Y-90889761D02*
X137971071Y-90937380D01*
X138209166Y-90937380D01*
X138304404Y-90889761D01*
X138352023Y-90842142D01*
X138399642Y-90746904D01*
X138399642Y-90651666D01*
X138352023Y-90556428D01*
X138304404Y-90508809D01*
X138209166Y-90461190D01*
X138018690Y-90413571D01*
X137923452Y-90365952D01*
X137875833Y-90318333D01*
X137828214Y-90223095D01*
X137828214Y-90127857D01*
X137875833Y-90032619D01*
X137923452Y-89985000D01*
X138018690Y-89937380D01*
X138256785Y-89937380D01*
X138399642Y-89985000D01*
X139447261Y-89937380D02*
X140018690Y-89937380D01*
X139732976Y-90937380D02*
X139732976Y-89937380D01*
X140875833Y-89985000D02*
X140780595Y-89937380D01*
X140637738Y-89937380D01*
X140494880Y-89985000D01*
X140399642Y-90080238D01*
X140352023Y-90175476D01*
X140304404Y-90365952D01*
X140304404Y-90508809D01*
X140352023Y-90699285D01*
X140399642Y-90794523D01*
X140494880Y-90889761D01*
X140637738Y-90937380D01*
X140732976Y-90937380D01*
X140875833Y-90889761D01*
X140923452Y-90842142D01*
X140923452Y-90508809D01*
X140732976Y-90508809D01*
X141352023Y-90413571D02*
X142113928Y-90413571D01*
X142113928Y-90699285D02*
X141352023Y-90699285D01*
X142447261Y-89937380D02*
X142780595Y-90937380D01*
X143113928Y-89937380D01*
X143399642Y-90889761D02*
X143542500Y-90937380D01*
X143780595Y-90937380D01*
X143875833Y-90889761D01*
X143923452Y-90842142D01*
X143971071Y-90746904D01*
X143971071Y-90651666D01*
X143923452Y-90556428D01*
X143875833Y-90508809D01*
X143780595Y-90461190D01*
X143590119Y-90413571D01*
X143494880Y-90365952D01*
X143447261Y-90318333D01*
X143399642Y-90223095D01*
X143399642Y-90127857D01*
X143447261Y-90032619D01*
X143494880Y-89985000D01*
X143590119Y-89937380D01*
X143828214Y-89937380D01*
X143971071Y-89985000D01*
X144352023Y-90889761D02*
X144494880Y-90937380D01*
X144732976Y-90937380D01*
X144828214Y-90889761D01*
X144875833Y-90842142D01*
X144923452Y-90746904D01*
X144923452Y-90651666D01*
X144875833Y-90556428D01*
X144828214Y-90508809D01*
X144732976Y-90461190D01*
X144542500Y-90413571D01*
X144447261Y-90365952D01*
X144399642Y-90318333D01*
X144352023Y-90223095D01*
X144352023Y-90127857D01*
X144399642Y-90032619D01*
X144447261Y-89985000D01*
X144542500Y-89937380D01*
X144780595Y-89937380D01*
X144923452Y-89985000D01*
X145352023Y-90842142D02*
X145399642Y-90889761D01*
X145352023Y-90937380D01*
X145304404Y-90889761D01*
X145352023Y-90842142D01*
X145352023Y-90937380D01*
X145352023Y-90318333D02*
X145399642Y-90365952D01*
X145352023Y-90413571D01*
X145304404Y-90365952D01*
X145352023Y-90318333D01*
X145352023Y-90413571D01*
X146590119Y-90937380D02*
X146590119Y-89937380D01*
X146971071Y-89937380D01*
X147066309Y-89985000D01*
X147113928Y-90032619D01*
X147161547Y-90127857D01*
X147161547Y-90270714D01*
X147113928Y-90365952D01*
X147066309Y-90413571D01*
X146971071Y-90461190D01*
X146590119Y-90461190D01*
X147732976Y-90937380D02*
X147637738Y-90889761D01*
X147590119Y-90842142D01*
X147542500Y-90746904D01*
X147542500Y-90461190D01*
X147590119Y-90365952D01*
X147637738Y-90318333D01*
X147732976Y-90270714D01*
X147875833Y-90270714D01*
X147971071Y-90318333D01*
X148018690Y-90365952D01*
X148066309Y-90461190D01*
X148066309Y-90746904D01*
X148018690Y-90842142D01*
X147971071Y-90889761D01*
X147875833Y-90937380D01*
X147732976Y-90937380D01*
X148399642Y-90270714D02*
X148590119Y-90937380D01*
X148780595Y-90461190D01*
X148971071Y-90937380D01*
X149161547Y-90270714D01*
X149923452Y-90889761D02*
X149828214Y-90937380D01*
X149637738Y-90937380D01*
X149542500Y-90889761D01*
X149494880Y-90794523D01*
X149494880Y-90413571D01*
X149542500Y-90318333D01*
X149637738Y-90270714D01*
X149828214Y-90270714D01*
X149923452Y-90318333D01*
X149971071Y-90413571D01*
X149971071Y-90508809D01*
X149494880Y-90604047D01*
X150399642Y-90937380D02*
X150399642Y-90270714D01*
X150399642Y-90461190D02*
X150447261Y-90365952D01*
X150494880Y-90318333D01*
X150590119Y-90270714D01*
X150685357Y-90270714D01*
X151971071Y-89937380D02*
X152161547Y-89937380D01*
X152256785Y-89985000D01*
X152352023Y-90080238D01*
X152399642Y-90270714D01*
X152399642Y-90604047D01*
X152352023Y-90794523D01*
X152256785Y-90889761D01*
X152161547Y-90937380D01*
X151971071Y-90937380D01*
X151875833Y-90889761D01*
X151780595Y-90794523D01*
X151732976Y-90604047D01*
X151732976Y-90270714D01*
X151780595Y-90080238D01*
X151875833Y-89985000D01*
X151971071Y-89937380D01*
X152828214Y-90270714D02*
X152828214Y-90937380D01*
X152828214Y-90365952D02*
X152875833Y-90318333D01*
X152971071Y-90270714D01*
X153113928Y-90270714D01*
X153209166Y-90318333D01*
X153256785Y-90413571D01*
X153256785Y-90937380D01*
X154447261Y-89889761D02*
X153590119Y-91175476D01*
X154971071Y-89937380D02*
X155161547Y-89937380D01*
X155256785Y-89985000D01*
X155352023Y-90080238D01*
X155399642Y-90270714D01*
X155399642Y-90604047D01*
X155352023Y-90794523D01*
X155256785Y-90889761D01*
X155161547Y-90937380D01*
X154971071Y-90937380D01*
X154875833Y-90889761D01*
X154780595Y-90794523D01*
X154732976Y-90604047D01*
X154732976Y-90270714D01*
X154780595Y-90080238D01*
X154875833Y-89985000D01*
X154971071Y-89937380D01*
X155685357Y-90270714D02*
X156066309Y-90270714D01*
X155828214Y-90937380D02*
X155828214Y-90080238D01*
X155875833Y-89985000D01*
X155971071Y-89937380D01*
X156066309Y-89937380D01*
X156256785Y-90270714D02*
X156637738Y-90270714D01*
X156399642Y-90937380D02*
X156399642Y-90080238D01*
X156447261Y-89985000D01*
X156542500Y-89937380D01*
X156637738Y-89937380D01*
D12*
X158750000Y-73330000D02*
X158750000Y-74280000D01*
X158750000Y-79070000D02*
X158750000Y-78120000D01*
X157830000Y-74280000D02*
X157830000Y-78120000D01*
X159670000Y-74280000D02*
X157830000Y-74280000D01*
X159670000Y-78120000D02*
X159670000Y-74280000D01*
X157830000Y-78120000D02*
X159670000Y-78120000D01*
X145990000Y-69790000D02*
X147320000Y-69790000D01*
X145990000Y-71120000D02*
X145990000Y-69790000D01*
X148590000Y-69790000D02*
X151190000Y-69790000D01*
X148590000Y-72390000D02*
X148590000Y-69790000D01*
X145990000Y-72390000D02*
X148590000Y-72390000D01*
X151190000Y-69790000D02*
X151190000Y-77530000D01*
X145990000Y-72390000D02*
X145990000Y-77530000D01*
X145990000Y-77530000D02*
X151190000Y-77530000D01*
X154485000Y-71404775D02*
X154985000Y-71404775D01*
X154735000Y-71654775D02*
X154735000Y-71154775D01*
X155926000Y-66249000D02*
X156494000Y-66249000D01*
X155692000Y-66289000D02*
X156728000Y-66289000D01*
X155533000Y-66329000D02*
X156887000Y-66329000D01*
X155405000Y-66369000D02*
X157015000Y-66369000D01*
X155295000Y-66409000D02*
X157125000Y-66409000D01*
X155199000Y-66449000D02*
X157221000Y-66449000D01*
X155112000Y-66489000D02*
X157308000Y-66489000D01*
X155032000Y-66529000D02*
X157388000Y-66529000D01*
X154959000Y-66569000D02*
X157461000Y-66569000D01*
X154891000Y-66609000D02*
X157529000Y-66609000D01*
X154827000Y-66649000D02*
X157593000Y-66649000D01*
X154767000Y-66689000D02*
X157653000Y-66689000D01*
X154710000Y-66729000D02*
X157710000Y-66729000D01*
X154656000Y-66769000D02*
X157764000Y-66769000D01*
X154605000Y-66809000D02*
X157815000Y-66809000D01*
X157250000Y-66849000D02*
X157863000Y-66849000D01*
X154557000Y-66849000D02*
X155170000Y-66849000D01*
X157250000Y-66889000D02*
X157909000Y-66889000D01*
X154511000Y-66889000D02*
X155170000Y-66889000D01*
X157250000Y-66929000D02*
X157953000Y-66929000D01*
X154467000Y-66929000D02*
X155170000Y-66929000D01*
X157250000Y-66969000D02*
X157995000Y-66969000D01*
X154425000Y-66969000D02*
X155170000Y-66969000D01*
X157250000Y-67009000D02*
X158036000Y-67009000D01*
X154384000Y-67009000D02*
X155170000Y-67009000D01*
X157250000Y-67049000D02*
X158074000Y-67049000D01*
X154346000Y-67049000D02*
X155170000Y-67049000D01*
X157250000Y-67089000D02*
X158111000Y-67089000D01*
X154309000Y-67089000D02*
X155170000Y-67089000D01*
X157250000Y-67129000D02*
X158147000Y-67129000D01*
X154273000Y-67129000D02*
X155170000Y-67129000D01*
X157250000Y-67169000D02*
X158181000Y-67169000D01*
X154239000Y-67169000D02*
X155170000Y-67169000D01*
X157250000Y-67209000D02*
X158214000Y-67209000D01*
X154206000Y-67209000D02*
X155170000Y-67209000D01*
X157250000Y-67249000D02*
X158245000Y-67249000D01*
X154175000Y-67249000D02*
X155170000Y-67249000D01*
X157250000Y-67289000D02*
X158275000Y-67289000D01*
X154145000Y-67289000D02*
X155170000Y-67289000D01*
X157250000Y-67329000D02*
X158305000Y-67329000D01*
X154115000Y-67329000D02*
X155170000Y-67329000D01*
X157250000Y-67369000D02*
X158332000Y-67369000D01*
X154088000Y-67369000D02*
X155170000Y-67369000D01*
X157250000Y-67409000D02*
X158359000Y-67409000D01*
X154061000Y-67409000D02*
X155170000Y-67409000D01*
X157250000Y-67449000D02*
X158385000Y-67449000D01*
X154035000Y-67449000D02*
X155170000Y-67449000D01*
X157250000Y-67489000D02*
X158410000Y-67489000D01*
X154010000Y-67489000D02*
X155170000Y-67489000D01*
X157250000Y-67529000D02*
X158434000Y-67529000D01*
X153986000Y-67529000D02*
X155170000Y-67529000D01*
X157250000Y-67569000D02*
X158457000Y-67569000D01*
X153963000Y-67569000D02*
X155170000Y-67569000D01*
X157250000Y-67609000D02*
X158478000Y-67609000D01*
X153942000Y-67609000D02*
X155170000Y-67609000D01*
X157250000Y-67649000D02*
X158500000Y-67649000D01*
X153920000Y-67649000D02*
X155170000Y-67649000D01*
X157250000Y-67689000D02*
X158520000Y-67689000D01*
X153900000Y-67689000D02*
X155170000Y-67689000D01*
X157250000Y-67729000D02*
X158539000Y-67729000D01*
X153881000Y-67729000D02*
X155170000Y-67729000D01*
X157250000Y-67769000D02*
X158558000Y-67769000D01*
X153862000Y-67769000D02*
X155170000Y-67769000D01*
X157250000Y-67809000D02*
X158575000Y-67809000D01*
X153845000Y-67809000D02*
X155170000Y-67809000D01*
X157250000Y-67849000D02*
X158592000Y-67849000D01*
X153828000Y-67849000D02*
X155170000Y-67849000D01*
X157250000Y-67889000D02*
X158608000Y-67889000D01*
X153812000Y-67889000D02*
X155170000Y-67889000D01*
X157250000Y-67929000D02*
X158624000Y-67929000D01*
X153796000Y-67929000D02*
X155170000Y-67929000D01*
X157250000Y-67969000D02*
X158638000Y-67969000D01*
X153782000Y-67969000D02*
X155170000Y-67969000D01*
X157250000Y-68009000D02*
X158652000Y-68009000D01*
X153768000Y-68009000D02*
X155170000Y-68009000D01*
X157250000Y-68049000D02*
X158665000Y-68049000D01*
X153755000Y-68049000D02*
X155170000Y-68049000D01*
X157250000Y-68089000D02*
X158678000Y-68089000D01*
X153742000Y-68089000D02*
X155170000Y-68089000D01*
X157250000Y-68129000D02*
X158690000Y-68129000D01*
X153730000Y-68129000D02*
X155170000Y-68129000D01*
X157250000Y-68170000D02*
X158701000Y-68170000D01*
X153719000Y-68170000D02*
X155170000Y-68170000D01*
X157250000Y-68210000D02*
X158711000Y-68210000D01*
X153709000Y-68210000D02*
X155170000Y-68210000D01*
X157250000Y-68250000D02*
X158721000Y-68250000D01*
X153699000Y-68250000D02*
X155170000Y-68250000D01*
X157250000Y-68290000D02*
X158730000Y-68290000D01*
X153690000Y-68290000D02*
X155170000Y-68290000D01*
X157250000Y-68330000D02*
X158738000Y-68330000D01*
X153682000Y-68330000D02*
X155170000Y-68330000D01*
X157250000Y-68370000D02*
X158746000Y-68370000D01*
X153674000Y-68370000D02*
X155170000Y-68370000D01*
X157250000Y-68410000D02*
X158753000Y-68410000D01*
X153667000Y-68410000D02*
X155170000Y-68410000D01*
X157250000Y-68450000D02*
X158760000Y-68450000D01*
X153660000Y-68450000D02*
X155170000Y-68450000D01*
X157250000Y-68490000D02*
X158766000Y-68490000D01*
X153654000Y-68490000D02*
X155170000Y-68490000D01*
X157250000Y-68530000D02*
X158771000Y-68530000D01*
X153649000Y-68530000D02*
X155170000Y-68530000D01*
X157250000Y-68570000D02*
X158775000Y-68570000D01*
X153645000Y-68570000D02*
X155170000Y-68570000D01*
X157250000Y-68610000D02*
X158779000Y-68610000D01*
X153641000Y-68610000D02*
X155170000Y-68610000D01*
X157250000Y-68650000D02*
X158783000Y-68650000D01*
X153637000Y-68650000D02*
X155170000Y-68650000D01*
X157250000Y-68690000D02*
X158786000Y-68690000D01*
X153634000Y-68690000D02*
X155170000Y-68690000D01*
X157250000Y-68730000D02*
X158788000Y-68730000D01*
X153632000Y-68730000D02*
X155170000Y-68730000D01*
X157250000Y-68770000D02*
X158789000Y-68770000D01*
X153631000Y-68770000D02*
X155170000Y-68770000D01*
X153630000Y-68810000D02*
X155170000Y-68810000D01*
X157250000Y-68810000D02*
X158790000Y-68810000D01*
X153630000Y-68850000D02*
X155170000Y-68850000D01*
X157250000Y-68850000D02*
X158790000Y-68850000D01*
X158830000Y-68850000D02*
G75*
G03*
X158830000Y-68850000I-2620000J0D01*
G01*
X199776000Y-103535241D02*
X200406000Y-103535241D01*
X200091000Y-103850241D02*
X200091000Y-103220241D01*
X201528000Y-97109000D02*
X202332000Y-97109000D01*
X201297000Y-97149000D02*
X202563000Y-97149000D01*
X201128000Y-97189000D02*
X202732000Y-97189000D01*
X200990000Y-97229000D02*
X202870000Y-97229000D01*
X200871000Y-97269000D02*
X202989000Y-97269000D01*
X200765000Y-97309000D02*
X203095000Y-97309000D01*
X200668000Y-97349000D02*
X203192000Y-97349000D01*
X200580000Y-97389000D02*
X203280000Y-97389000D01*
X200498000Y-97429000D02*
X203362000Y-97429000D01*
X200421000Y-97469000D02*
X203439000Y-97469000D01*
X200349000Y-97509000D02*
X203511000Y-97509000D01*
X200280000Y-97549000D02*
X203580000Y-97549000D01*
X200216000Y-97589000D02*
X203644000Y-97589000D01*
X200154000Y-97629000D02*
X203706000Y-97629000D01*
X200096000Y-97669000D02*
X203764000Y-97669000D01*
X200040000Y-97709000D02*
X203820000Y-97709000D01*
X199986000Y-97749000D02*
X203874000Y-97749000D01*
X199935000Y-97789000D02*
X203925000Y-97789000D01*
X199886000Y-97829000D02*
X203974000Y-97829000D01*
X199838000Y-97869000D02*
X204022000Y-97869000D01*
X199793000Y-97909000D02*
X204067000Y-97909000D01*
X199748000Y-97949000D02*
X204112000Y-97949000D01*
X199706000Y-97989000D02*
X204154000Y-97989000D01*
X199665000Y-98029000D02*
X204195000Y-98029000D01*
X202970000Y-98069000D02*
X204235000Y-98069000D01*
X199625000Y-98069000D02*
X200890000Y-98069000D01*
X202970000Y-98109000D02*
X204273000Y-98109000D01*
X199587000Y-98109000D02*
X200890000Y-98109000D01*
X202970000Y-98149000D02*
X204310000Y-98149000D01*
X199550000Y-98149000D02*
X200890000Y-98149000D01*
X202970000Y-98189000D02*
X204346000Y-98189000D01*
X199514000Y-98189000D02*
X200890000Y-98189000D01*
X202970000Y-98229000D02*
X204380000Y-98229000D01*
X199480000Y-98229000D02*
X200890000Y-98229000D01*
X202970000Y-98269000D02*
X204414000Y-98269000D01*
X199446000Y-98269000D02*
X200890000Y-98269000D01*
X202970000Y-98309000D02*
X204446000Y-98309000D01*
X199414000Y-98309000D02*
X200890000Y-98309000D01*
X202970000Y-98349000D02*
X204478000Y-98349000D01*
X199382000Y-98349000D02*
X200890000Y-98349000D01*
X202970000Y-98389000D02*
X204508000Y-98389000D01*
X199352000Y-98389000D02*
X200890000Y-98389000D01*
X202970000Y-98429000D02*
X204537000Y-98429000D01*
X199323000Y-98429000D02*
X200890000Y-98429000D01*
X202970000Y-98469000D02*
X204566000Y-98469000D01*
X199294000Y-98469000D02*
X200890000Y-98469000D01*
X202970000Y-98509000D02*
X204594000Y-98509000D01*
X199266000Y-98509000D02*
X200890000Y-98509000D01*
X202970000Y-98549000D02*
X204620000Y-98549000D01*
X199240000Y-98549000D02*
X200890000Y-98549000D01*
X202970000Y-98589000D02*
X204646000Y-98589000D01*
X199214000Y-98589000D02*
X200890000Y-98589000D01*
X202970000Y-98629000D02*
X204672000Y-98629000D01*
X199188000Y-98629000D02*
X200890000Y-98629000D01*
X202970000Y-98669000D02*
X204696000Y-98669000D01*
X199164000Y-98669000D02*
X200890000Y-98669000D01*
X202970000Y-98709000D02*
X204720000Y-98709000D01*
X199140000Y-98709000D02*
X200890000Y-98709000D01*
X202970000Y-98749000D02*
X204742000Y-98749000D01*
X199118000Y-98749000D02*
X200890000Y-98749000D01*
X202970000Y-98789000D02*
X204764000Y-98789000D01*
X199096000Y-98789000D02*
X200890000Y-98789000D01*
X202970000Y-98829000D02*
X204786000Y-98829000D01*
X199074000Y-98829000D02*
X200890000Y-98829000D01*
X202970000Y-98869000D02*
X204806000Y-98869000D01*
X199054000Y-98869000D02*
X200890000Y-98869000D01*
X202970000Y-98909000D02*
X204826000Y-98909000D01*
X199034000Y-98909000D02*
X200890000Y-98909000D01*
X202970000Y-98949000D02*
X204846000Y-98949000D01*
X199014000Y-98949000D02*
X200890000Y-98949000D01*
X202970000Y-98989000D02*
X204864000Y-98989000D01*
X198996000Y-98989000D02*
X200890000Y-98989000D01*
X202970000Y-99029000D02*
X204882000Y-99029000D01*
X198978000Y-99029000D02*
X200890000Y-99029000D01*
X202970000Y-99069000D02*
X204900000Y-99069000D01*
X198960000Y-99069000D02*
X200890000Y-99069000D01*
X202970000Y-99109000D02*
X204916000Y-99109000D01*
X198944000Y-99109000D02*
X200890000Y-99109000D01*
X202970000Y-99149000D02*
X204932000Y-99149000D01*
X198928000Y-99149000D02*
X200890000Y-99149000D01*
X202970000Y-99189000D02*
X204948000Y-99189000D01*
X198912000Y-99189000D02*
X200890000Y-99189000D01*
X202970000Y-99229000D02*
X204963000Y-99229000D01*
X198897000Y-99229000D02*
X200890000Y-99229000D01*
X202970000Y-99269000D02*
X204977000Y-99269000D01*
X198883000Y-99269000D02*
X200890000Y-99269000D01*
X202970000Y-99309000D02*
X204991000Y-99309000D01*
X198869000Y-99309000D02*
X200890000Y-99309000D01*
X202970000Y-99349000D02*
X205004000Y-99349000D01*
X198856000Y-99349000D02*
X200890000Y-99349000D01*
X202970000Y-99389000D02*
X205016000Y-99389000D01*
X198844000Y-99389000D02*
X200890000Y-99389000D01*
X202970000Y-99429000D02*
X205028000Y-99429000D01*
X198832000Y-99429000D02*
X200890000Y-99429000D01*
X202970000Y-99469000D02*
X205040000Y-99469000D01*
X198820000Y-99469000D02*
X200890000Y-99469000D01*
X202970000Y-99509000D02*
X205051000Y-99509000D01*
X198809000Y-99509000D02*
X200890000Y-99509000D01*
X202970000Y-99549000D02*
X205061000Y-99549000D01*
X198799000Y-99549000D02*
X200890000Y-99549000D01*
X202970000Y-99589000D02*
X205071000Y-99589000D01*
X198789000Y-99589000D02*
X200890000Y-99589000D01*
X202970000Y-99629000D02*
X205080000Y-99629000D01*
X198780000Y-99629000D02*
X200890000Y-99629000D01*
X202970000Y-99670000D02*
X205089000Y-99670000D01*
X198771000Y-99670000D02*
X200890000Y-99670000D01*
X202970000Y-99710000D02*
X205097000Y-99710000D01*
X198763000Y-99710000D02*
X200890000Y-99710000D01*
X202970000Y-99750000D02*
X205105000Y-99750000D01*
X198755000Y-99750000D02*
X200890000Y-99750000D01*
X202970000Y-99790000D02*
X205112000Y-99790000D01*
X198748000Y-99790000D02*
X200890000Y-99790000D01*
X202970000Y-99830000D02*
X205119000Y-99830000D01*
X198741000Y-99830000D02*
X200890000Y-99830000D01*
X202970000Y-99870000D02*
X205125000Y-99870000D01*
X198735000Y-99870000D02*
X200890000Y-99870000D01*
X202970000Y-99910000D02*
X205131000Y-99910000D01*
X198729000Y-99910000D02*
X200890000Y-99910000D01*
X202970000Y-99950000D02*
X205136000Y-99950000D01*
X198724000Y-99950000D02*
X200890000Y-99950000D01*
X202970000Y-99990000D02*
X205141000Y-99990000D01*
X198719000Y-99990000D02*
X200890000Y-99990000D01*
X202970000Y-100030000D02*
X205145000Y-100030000D01*
X198715000Y-100030000D02*
X200890000Y-100030000D01*
X202970000Y-100070000D02*
X205148000Y-100070000D01*
X198712000Y-100070000D02*
X200890000Y-100070000D01*
X202970000Y-100110000D02*
X205152000Y-100110000D01*
X198708000Y-100110000D02*
X200890000Y-100110000D01*
X198706000Y-100150000D02*
X205154000Y-100150000D01*
X198703000Y-100190000D02*
X205157000Y-100190000D01*
X198702000Y-100230000D02*
X205158000Y-100230000D01*
X198700000Y-100270000D02*
X205160000Y-100270000D01*
X198700000Y-100310000D02*
X205160000Y-100310000D01*
X198700000Y-100350000D02*
X205160000Y-100350000D01*
X205200000Y-100350000D02*
G75*
G03*
X205200000Y-100350000I-3270000J0D01*
G01*
X209400000Y-103890000D02*
X207160000Y-103890000D01*
X209400000Y-104130000D02*
X207160000Y-104130000D01*
X209400000Y-104010000D02*
X207160000Y-104010000D01*
X208280000Y-108180000D02*
X208280000Y-107530000D01*
X208280000Y-102640000D02*
X208280000Y-103290000D01*
X209400000Y-107530000D02*
X209400000Y-103290000D01*
X207160000Y-107530000D02*
X209400000Y-107530000D01*
X207160000Y-103290000D02*
X207160000Y-107530000D01*
X209400000Y-103290000D02*
X207160000Y-103290000D01*
X173545000Y-72735000D02*
X173389000Y-72735000D01*
X175861000Y-72735000D02*
X175705000Y-72735000D01*
X175703608Y-75967335D02*
G75*
G03*
X175860516Y-72735000I-1078608J1672335D01*
G01*
X173546392Y-75967335D02*
G75*
G02*
X173389484Y-72735000I1078608J1672335D01*
G01*
X175704837Y-75336130D02*
G75*
G03*
X175705000Y-73254039I-1079837J1041130D01*
G01*
X173545163Y-75336130D02*
G75*
G02*
X173545000Y-73254039I1079837J1041130D01*
G01*
X177105000Y-79950000D02*
X178435000Y-79950000D01*
X177105000Y-81280000D02*
X177105000Y-79950000D01*
X179705000Y-79950000D02*
X182305000Y-79950000D01*
X179705000Y-82550000D02*
X179705000Y-79950000D01*
X177105000Y-82550000D02*
X179705000Y-82550000D01*
X182305000Y-79950000D02*
X182305000Y-85150000D01*
X177105000Y-82550000D02*
X177105000Y-85150000D01*
X177105000Y-85150000D02*
X182305000Y-85150000D01*
X212090000Y-99060000D02*
X212090000Y-109220000D01*
X219710000Y-99060000D02*
X212090000Y-99060000D01*
X219710000Y-109220000D02*
X219710000Y-99060000D01*
X212090000Y-109220000D02*
X219710000Y-109220000D01*
X213360000Y-109220000D02*
X213360000Y-99060000D01*
X209120000Y-114900000D02*
X209120000Y-118750000D01*
X209697955Y-114517369D02*
G75*
G03*
X209120000Y-114900000I1122045J-2322631D01*
G01*
X211918807Y-114483600D02*
G75*
G02*
X213420000Y-116840000I-1098807J-2356400D01*
G01*
X211918807Y-119196400D02*
G75*
G03*
X213420000Y-116840000I-1098807J2356400D01*
G01*
X209707736Y-119142383D02*
G75*
G02*
X209120000Y-118750000I1112264J2302383D01*
G01*
X204820000Y-117490000D02*
X206660000Y-117490000D01*
X206660000Y-117490000D02*
X206660000Y-113650000D01*
X206660000Y-113650000D02*
X204820000Y-113650000D01*
X204820000Y-113650000D02*
X204820000Y-117490000D01*
X205740000Y-118440000D02*
X205740000Y-117490000D01*
X205740000Y-112700000D02*
X205740000Y-113650000D01*
X138830000Y-74700000D02*
X138830000Y-73200000D01*
X137580000Y-70700000D02*
X133080000Y-70700000D01*
X131830000Y-73200000D02*
X131830000Y-74700000D01*
X133080000Y-77200000D02*
X137580000Y-77200000D01*
X171510000Y-68460000D02*
X161230000Y-68460000D01*
X171510000Y-89020000D02*
X171510000Y-68460000D01*
X161230000Y-89020000D02*
X171510000Y-89020000D01*
X161230000Y-68460000D02*
X161230000Y-89020000D01*
X169020000Y-68520000D02*
X167370000Y-68520000D01*
X169020000Y-88960000D02*
X169020000Y-68520000D01*
X163720000Y-88960000D02*
X169020000Y-88960000D01*
X163720000Y-68520000D02*
X163720000Y-88960000D01*
X165370000Y-68520000D02*
X163720000Y-68520000D01*
X167370000Y-68520000D02*
G75*
G02*
X165370000Y-68520000I-1000000J0D01*
G01*
X135700000Y-92820000D02*
X135700000Y-125620000D01*
X194500000Y-92820000D02*
X135700000Y-92820000D01*
X194500000Y-125620000D02*
X194500000Y-92820000D01*
X135700000Y-125620000D02*
X194500000Y-125620000D01*
X174475000Y-99190000D02*
X174475000Y-104270000D01*
X174475000Y-104270000D02*
X156695000Y-104270000D01*
X156695000Y-104270000D02*
X156695000Y-103000000D01*
X156695000Y-103000000D02*
X155425000Y-103000000D01*
X155425000Y-103000000D02*
X155425000Y-100460000D01*
X155425000Y-100460000D02*
X156695000Y-100460000D01*
X156695000Y-100460000D02*
X156695000Y-99190000D01*
X156695000Y-99190000D02*
X174475000Y-99190000D01*
X155425000Y-117990000D02*
X155425000Y-114180000D01*
X155425000Y-114180000D02*
X173205000Y-114180000D01*
X173205000Y-114180000D02*
X173205000Y-115450000D01*
X173205000Y-115450000D02*
X174475000Y-115450000D01*
X174475000Y-115450000D02*
X174475000Y-117990000D01*
X174475000Y-117990000D02*
X173205000Y-117990000D01*
X173205000Y-117990000D02*
X173205000Y-119260000D01*
X173205000Y-119260000D02*
X155425000Y-119260000D01*
X155425000Y-119260000D02*
X155425000Y-117990000D01*
X193520000Y-109479000D02*
X136350000Y-109479000D01*
X136350000Y-108971000D02*
X193520000Y-108971000D01*
X174475000Y-96475000D02*
X174475000Y-93935000D01*
X174475000Y-93935000D02*
X155425000Y-93935000D01*
X155425000Y-93935000D02*
X155425000Y-96475000D01*
X142725000Y-121975000D02*
X155425000Y-121975000D01*
X155425000Y-121975000D02*
X155425000Y-124515000D01*
X155425000Y-124515000D02*
X174475000Y-124515000D01*
X174475000Y-124515000D02*
X174475000Y-121975000D01*
X142725000Y-96475000D02*
X155425000Y-96475000D01*
X187175000Y-121975000D02*
X174475000Y-121975000D01*
X187175000Y-121975000D02*
X187175000Y-124515000D01*
X187175000Y-124515000D02*
X193520000Y-124515000D01*
X193520000Y-124515000D02*
X193520000Y-93935000D01*
X193520000Y-93935000D02*
X187175000Y-93935000D01*
X187175000Y-93935000D02*
X187175000Y-96475000D01*
X187175000Y-96475000D02*
X174475000Y-96475000D01*
X136350000Y-124515000D02*
X142725000Y-124515000D01*
X142725000Y-124515000D02*
X142725000Y-121975000D01*
X136350000Y-124515000D02*
X136350000Y-93935000D01*
X136350000Y-93935000D02*
X142725000Y-93935000D01*
X142725000Y-93935000D02*
X142725000Y-96475000D01*
X219762825Y-80130000D02*
G75*
G03*
X219762825Y-80130000I-15292825J0D01*
G01*
X173110000Y-70270000D02*
X173110000Y-60970000D01*
X190110000Y-70270000D02*
X190110000Y-60970000D01*
X173110000Y-70270000D02*
X190110000Y-70270000D01*
X173110000Y-60970000D02*
X190110000Y-60970000D01*
X178110000Y-60950000D02*
X178110000Y-54770000D01*
X185110000Y-60950000D02*
X185110000Y-54770000D01*
X178110000Y-54770000D02*
X185110000Y-54770000D01*
X178610000Y-54770000D02*
X178610000Y-48970000D01*
X184610000Y-54770000D02*
X184610000Y-48970000D01*
X178610000Y-48970000D02*
X184610000Y-48970000D01*
X201930000Y-120650000D02*
X201930000Y-110490000D01*
X201930000Y-110490000D02*
X196850000Y-110490000D01*
X196850000Y-110490000D02*
X196850000Y-120650000D01*
X196850000Y-120650000D02*
X201930000Y-120650000D01*
D11*
X157282380Y-76366666D02*
X156806190Y-76700000D01*
X157282380Y-76938095D02*
X156282380Y-76938095D01*
X156282380Y-76557142D01*
X156330000Y-76461904D01*
X156377619Y-76414285D01*
X156472857Y-76366666D01*
X156615714Y-76366666D01*
X156710952Y-76414285D01*
X156758571Y-76461904D01*
X156806190Y-76557142D01*
X156806190Y-76938095D01*
X157282380Y-75414285D02*
X157282380Y-75985714D01*
X157282380Y-75700000D02*
X156282380Y-75700000D01*
X156425238Y-75795238D01*
X156520476Y-75890476D01*
X156568095Y-75985714D01*
X148256666Y-68032380D02*
X148256666Y-68746666D01*
X148209047Y-68889523D01*
X148113809Y-68984761D01*
X147970952Y-69032380D01*
X147875714Y-69032380D01*
X149256666Y-69032380D02*
X148685238Y-69032380D01*
X148970952Y-69032380D02*
X148970952Y-68032380D01*
X148875714Y-68175238D01*
X148780476Y-68270476D01*
X148685238Y-68318095D01*
X152817142Y-69016666D02*
X152864761Y-69064285D01*
X152912380Y-69207142D01*
X152912380Y-69302380D01*
X152864761Y-69445238D01*
X152769523Y-69540476D01*
X152674285Y-69588095D01*
X152483809Y-69635714D01*
X152340952Y-69635714D01*
X152150476Y-69588095D01*
X152055238Y-69540476D01*
X151960000Y-69445238D01*
X151912380Y-69302380D01*
X151912380Y-69207142D01*
X151960000Y-69064285D01*
X152007619Y-69016666D01*
X152912380Y-68064285D02*
X152912380Y-68635714D01*
X152912380Y-68350000D02*
X151912380Y-68350000D01*
X152055238Y-68445238D01*
X152150476Y-68540476D01*
X152198095Y-68635714D01*
X197887142Y-100516666D02*
X197934761Y-100564285D01*
X197982380Y-100707142D01*
X197982380Y-100802380D01*
X197934761Y-100945238D01*
X197839523Y-101040476D01*
X197744285Y-101088095D01*
X197553809Y-101135714D01*
X197410952Y-101135714D01*
X197220476Y-101088095D01*
X197125238Y-101040476D01*
X197030000Y-100945238D01*
X196982380Y-100802380D01*
X196982380Y-100707142D01*
X197030000Y-100564285D01*
X197077619Y-100516666D01*
X197077619Y-100135714D02*
X197030000Y-100088095D01*
X196982380Y-99992857D01*
X196982380Y-99754761D01*
X197030000Y-99659523D01*
X197077619Y-99611904D01*
X197172857Y-99564285D01*
X197268095Y-99564285D01*
X197410952Y-99611904D01*
X197982380Y-100183333D01*
X197982380Y-99564285D01*
X210852380Y-106148095D02*
X209852380Y-106148095D01*
X209852380Y-105910000D01*
X209900000Y-105767142D01*
X209995238Y-105671904D01*
X210090476Y-105624285D01*
X210280952Y-105576666D01*
X210423809Y-105576666D01*
X210614285Y-105624285D01*
X210709523Y-105671904D01*
X210804761Y-105767142D01*
X210852380Y-105910000D01*
X210852380Y-106148095D01*
X210852380Y-104624285D02*
X210852380Y-105195714D01*
X210852380Y-104910000D02*
X209852380Y-104910000D01*
X209995238Y-105005238D01*
X210090476Y-105100476D01*
X210138095Y-105195714D01*
X210532380Y-101861904D02*
X209532380Y-101861904D01*
X210532380Y-101290476D02*
X209960952Y-101719047D01*
X209532380Y-101290476D02*
X210103809Y-101861904D01*
X178037380Y-75033095D02*
X177037380Y-75033095D01*
X177037380Y-74795000D01*
X177085000Y-74652142D01*
X177180238Y-74556904D01*
X177275476Y-74509285D01*
X177465952Y-74461666D01*
X177608809Y-74461666D01*
X177799285Y-74509285D01*
X177894523Y-74556904D01*
X177989761Y-74652142D01*
X178037380Y-74795000D01*
X178037380Y-75033095D01*
X177132619Y-74080714D02*
X177085000Y-74033095D01*
X177037380Y-73937857D01*
X177037380Y-73699761D01*
X177085000Y-73604523D01*
X177132619Y-73556904D01*
X177227857Y-73509285D01*
X177323095Y-73509285D01*
X177465952Y-73556904D01*
X178037380Y-74128333D01*
X178037380Y-73509285D01*
X179371666Y-78402380D02*
X179371666Y-79116666D01*
X179324047Y-79259523D01*
X179228809Y-79354761D01*
X179085952Y-79402380D01*
X178990714Y-79402380D01*
X179800238Y-78497619D02*
X179847857Y-78450000D01*
X179943095Y-78402380D01*
X180181190Y-78402380D01*
X180276428Y-78450000D01*
X180324047Y-78497619D01*
X180371666Y-78592857D01*
X180371666Y-78688095D01*
X180324047Y-78830952D01*
X179752619Y-79402380D01*
X180371666Y-79402380D01*
X217892380Y-98123333D02*
X218606666Y-98123333D01*
X218749523Y-98170952D01*
X218844761Y-98266190D01*
X218892380Y-98409047D01*
X218892380Y-98504285D01*
X217892380Y-97742380D02*
X217892380Y-97123333D01*
X218273333Y-97456666D01*
X218273333Y-97313809D01*
X218320952Y-97218571D01*
X218368571Y-97170952D01*
X218463809Y-97123333D01*
X218701904Y-97123333D01*
X218797142Y-97170952D01*
X218844761Y-97218571D01*
X218892380Y-97313809D01*
X218892380Y-97599523D01*
X218844761Y-97694761D01*
X218797142Y-97742380D01*
X214927619Y-116935238D02*
X214880000Y-117030476D01*
X214784761Y-117125714D01*
X214641904Y-117268571D01*
X214594285Y-117363809D01*
X214594285Y-117459047D01*
X214832380Y-117411428D02*
X214784761Y-117506666D01*
X214689523Y-117601904D01*
X214499047Y-117649523D01*
X214165714Y-117649523D01*
X213975238Y-117601904D01*
X213880000Y-117506666D01*
X213832380Y-117411428D01*
X213832380Y-117220952D01*
X213880000Y-117125714D01*
X213975238Y-117030476D01*
X214165714Y-116982857D01*
X214499047Y-116982857D01*
X214689523Y-117030476D01*
X214784761Y-117125714D01*
X214832380Y-117220952D01*
X214832380Y-117411428D01*
X214832380Y-116030476D02*
X214832380Y-116601904D01*
X214832380Y-116316190D02*
X213832380Y-116316190D01*
X213975238Y-116411428D01*
X214070476Y-116506666D01*
X214118095Y-116601904D01*
X204272380Y-115736666D02*
X203796190Y-116070000D01*
X204272380Y-116308095D02*
X203272380Y-116308095D01*
X203272380Y-115927142D01*
X203320000Y-115831904D01*
X203367619Y-115784285D01*
X203462857Y-115736666D01*
X203605714Y-115736666D01*
X203700952Y-115784285D01*
X203748571Y-115831904D01*
X203796190Y-115927142D01*
X203796190Y-116308095D01*
X203367619Y-115355714D02*
X203320000Y-115308095D01*
X203272380Y-115212857D01*
X203272380Y-114974761D01*
X203320000Y-114879523D01*
X203367619Y-114831904D01*
X203462857Y-114784285D01*
X203558095Y-114784285D01*
X203700952Y-114831904D01*
X204272380Y-115403333D01*
X204272380Y-114784285D01*
X133921666Y-69619761D02*
X134064523Y-69667380D01*
X134302619Y-69667380D01*
X134397857Y-69619761D01*
X134445476Y-69572142D01*
X134493095Y-69476904D01*
X134493095Y-69381666D01*
X134445476Y-69286428D01*
X134397857Y-69238809D01*
X134302619Y-69191190D01*
X134112142Y-69143571D01*
X134016904Y-69095952D01*
X133969285Y-69048333D01*
X133921666Y-68953095D01*
X133921666Y-68857857D01*
X133969285Y-68762619D01*
X134016904Y-68715000D01*
X134112142Y-68667380D01*
X134350238Y-68667380D01*
X134493095Y-68715000D01*
X134826428Y-68667380D02*
X135064523Y-69667380D01*
X135255000Y-68953095D01*
X135445476Y-69667380D01*
X135683571Y-68667380D01*
X136016904Y-68762619D02*
X136064523Y-68715000D01*
X136159761Y-68667380D01*
X136397857Y-68667380D01*
X136493095Y-68715000D01*
X136540714Y-68762619D01*
X136588333Y-68857857D01*
X136588333Y-68953095D01*
X136540714Y-69095952D01*
X135969285Y-69667380D01*
X136588333Y-69667380D01*
X165608095Y-66972380D02*
X165608095Y-67781904D01*
X165655714Y-67877142D01*
X165703333Y-67924761D01*
X165798571Y-67972380D01*
X165989047Y-67972380D01*
X166084285Y-67924761D01*
X166131904Y-67877142D01*
X166179523Y-67781904D01*
X166179523Y-66972380D01*
X167179523Y-67972380D02*
X166608095Y-67972380D01*
X166893809Y-67972380D02*
X166893809Y-66972380D01*
X166798571Y-67115238D01*
X166703333Y-67210476D01*
X166608095Y-67258095D01*
X133199285Y-107878571D02*
X133342142Y-107926190D01*
X133389761Y-107973809D01*
X133437380Y-108069047D01*
X133437380Y-108211904D01*
X133389761Y-108307142D01*
X133342142Y-108354761D01*
X133246904Y-108402380D01*
X132865952Y-108402380D01*
X132865952Y-107402380D01*
X133199285Y-107402380D01*
X133294523Y-107450000D01*
X133342142Y-107497619D01*
X133389761Y-107592857D01*
X133389761Y-107688095D01*
X133342142Y-107783333D01*
X133294523Y-107830952D01*
X133199285Y-107878571D01*
X132865952Y-107878571D01*
X133723095Y-107402380D02*
X134294523Y-107402380D01*
X134008809Y-108402380D02*
X134008809Y-107402380D01*
X135151666Y-108402380D02*
X134580238Y-108402380D01*
X134865952Y-108402380D02*
X134865952Y-107402380D01*
X134770714Y-107545238D01*
X134675476Y-107640476D01*
X134580238Y-107688095D01*
X153583571Y-116827142D02*
X154726428Y-116827142D01*
X175173571Y-116827142D02*
X176316428Y-116827142D01*
X175745000Y-117398571D02*
X175745000Y-116255714D01*
X153583571Y-101837142D02*
X154726428Y-101837142D01*
X154155000Y-102408571D02*
X154155000Y-101265714D01*
X175173571Y-101837142D02*
X176316428Y-101837142D01*
X195338571Y-116827142D02*
X196481428Y-116827142D01*
X195910000Y-117398571D02*
X195910000Y-116255714D01*
X195338571Y-101837142D02*
X196481428Y-101837142D01*
X203827142Y-63952380D02*
X203350952Y-63952380D01*
X203350952Y-62952380D01*
X204112857Y-63904761D02*
X204255714Y-63952380D01*
X204493809Y-63952380D01*
X204589047Y-63904761D01*
X204636666Y-63857142D01*
X204684285Y-63761904D01*
X204684285Y-63666666D01*
X204636666Y-63571428D01*
X204589047Y-63523809D01*
X204493809Y-63476190D01*
X204303333Y-63428571D01*
X204208095Y-63380952D01*
X204160476Y-63333333D01*
X204112857Y-63238095D01*
X204112857Y-63142857D01*
X204160476Y-63047619D01*
X204208095Y-63000000D01*
X204303333Y-62952380D01*
X204541428Y-62952380D01*
X204684285Y-63000000D01*
X205636666Y-63952380D02*
X205065238Y-63952380D01*
X205350952Y-63952380D02*
X205350952Y-62952380D01*
X205255714Y-63095238D01*
X205160476Y-63190476D01*
X205065238Y-63238095D01*
X207796190Y-72600714D02*
X208763809Y-72600714D01*
X208280000Y-73084523D02*
X208280000Y-72116904D01*
X207796190Y-87840714D02*
X208763809Y-87840714D01*
X191587380Y-66635238D02*
X191111190Y-66968571D01*
X191587380Y-67206666D02*
X190587380Y-67206666D01*
X190587380Y-66825714D01*
X190635000Y-66730476D01*
X190682619Y-66682857D01*
X190777857Y-66635238D01*
X190920714Y-66635238D01*
X191015952Y-66682857D01*
X191063571Y-66730476D01*
X191111190Y-66825714D01*
X191111190Y-67206666D01*
X190587380Y-66349523D02*
X191587380Y-66016190D01*
X190587380Y-65682857D01*
X191587380Y-64825714D02*
X191587380Y-65397142D01*
X191587380Y-65111428D02*
X190587380Y-65111428D01*
X190730238Y-65206666D01*
X190825476Y-65301904D01*
X190873095Y-65397142D01*
X198056666Y-108354761D02*
X198199523Y-108402380D01*
X198437619Y-108402380D01*
X198532857Y-108354761D01*
X198580476Y-108307142D01*
X198628095Y-108211904D01*
X198628095Y-108116666D01*
X198580476Y-108021428D01*
X198532857Y-107973809D01*
X198437619Y-107926190D01*
X198247142Y-107878571D01*
X198151904Y-107830952D01*
X198104285Y-107783333D01*
X198056666Y-107688095D01*
X198056666Y-107592857D01*
X198104285Y-107497619D01*
X198151904Y-107450000D01*
X198247142Y-107402380D01*
X198485238Y-107402380D01*
X198628095Y-107450000D01*
X198961428Y-107402380D02*
X199199523Y-108402380D01*
X199390000Y-107688095D01*
X199580476Y-108402380D01*
X199818571Y-107402380D01*
X200723333Y-108402380D02*
X200151904Y-108402380D01*
X200437619Y-108402380D02*
X200437619Y-107402380D01*
X200342380Y-107545238D01*
X200247142Y-107640476D01*
X200151904Y-107688095D01*
M02*
