G04 #@! TF.GenerationSoftware,KiCad,Pcbnew,(5.1.9)-1*
G04 #@! TF.CreationDate,2021-01-16T12:12:47+09:00*
G04 #@! TF.ProjectId,bf-026,62662d30-3236-42e6-9b69-6361645f7063,V01L02*
G04 #@! TF.SameCoordinates,Original*
G04 #@! TF.FileFunction,Copper,L1,Top*
G04 #@! TF.FilePolarity,Positive*
%FSLAX46Y46*%
G04 Gerber Fmt 4.6, Leading zero omitted, Abs format (unit mm)*
G04 Created by KiCad (PCBNEW (5.1.9)-1) date 2021-01-16 12:12:47*
%MOMM*%
%LPD*%
G01*
G04 APERTURE LIST*
G04 #@! TA.AperFunction,ComponentPad*
%ADD10C,1.400000*%
G04 #@! TD*
G04 #@! TA.AperFunction,ComponentPad*
%ADD11O,1.400000X1.400000*%
G04 #@! TD*
G04 #@! TA.AperFunction,ComponentPad*
%ADD12R,1.700000X1.700000*%
G04 #@! TD*
G04 #@! TA.AperFunction,ComponentPad*
%ADD13O,1.700000X1.700000*%
G04 #@! TD*
G04 #@! TA.AperFunction,ComponentPad*
%ADD14C,6.400000*%
G04 #@! TD*
G04 #@! TA.AperFunction,ComponentPad*
%ADD15R,1.600000X1.600000*%
G04 #@! TD*
G04 #@! TA.AperFunction,ComponentPad*
%ADD16C,1.600000*%
G04 #@! TD*
G04 #@! TA.AperFunction,ComponentPad*
%ADD17O,1.600000X1.600000*%
G04 #@! TD*
G04 #@! TA.AperFunction,ComponentPad*
%ADD18R,1.800000X1.800000*%
G04 #@! TD*
G04 #@! TA.AperFunction,ComponentPad*
%ADD19C,1.800000*%
G04 #@! TD*
G04 #@! TA.AperFunction,ComponentPad*
%ADD20R,3.000000X3.000000*%
G04 #@! TD*
G04 #@! TA.AperFunction,ComponentPad*
%ADD21C,3.000000*%
G04 #@! TD*
G04 #@! TA.AperFunction,ComponentPad*
%ADD22C,1.500000*%
G04 #@! TD*
G04 #@! TA.AperFunction,ComponentPad*
%ADD23R,1.500000X1.500000*%
G04 #@! TD*
G04 #@! TA.AperFunction,ComponentPad*
%ADD24C,2.000000*%
G04 #@! TD*
G04 #@! TA.AperFunction,ComponentPad*
%ADD25R,2.000000X2.000000*%
G04 #@! TD*
G04 #@! TA.AperFunction,ComponentPad*
%ADD26C,2.200000*%
G04 #@! TD*
G04 #@! TA.AperFunction,ViaPad*
%ADD27C,0.800000*%
G04 #@! TD*
G04 #@! TA.AperFunction,Conductor*
%ADD28C,0.600000*%
G04 #@! TD*
G04 #@! TA.AperFunction,Conductor*
%ADD29C,0.250000*%
G04 #@! TD*
G04 #@! TA.AperFunction,Conductor*
%ADD30C,0.254000*%
G04 #@! TD*
G04 #@! TA.AperFunction,Conductor*
%ADD31C,0.100000*%
G04 #@! TD*
G04 APERTURE END LIST*
D10*
X158750000Y-80010000D03*
D11*
X158750000Y-72390000D03*
D12*
X147320000Y-71120000D03*
D13*
X149860000Y-71120000D03*
X147320000Y-73660000D03*
X149860000Y-73660000D03*
X147320000Y-76200000D03*
X149860000Y-76200000D03*
D14*
X130810000Y-64770000D03*
X130810000Y-123190000D03*
X217170000Y-123190000D03*
X217170000Y-64770000D03*
D15*
X156210000Y-69850000D03*
D16*
X156210000Y-67850000D03*
D15*
X201930000Y-101600000D03*
D16*
X201930000Y-99100000D03*
D15*
X208280000Y-101600000D03*
D17*
X208280000Y-109220000D03*
D18*
X174625000Y-73025000D03*
D19*
X174625000Y-75565000D03*
D12*
X178435000Y-81280000D03*
D13*
X180975000Y-81280000D03*
X178435000Y-83820000D03*
X180975000Y-83820000D03*
D20*
X215900000Y-101600000D03*
D21*
X215900000Y-106680000D03*
D22*
X210820000Y-116840000D03*
X210820000Y-119380000D03*
D23*
X210820000Y-114300000D03*
D11*
X205740000Y-111760000D03*
D10*
X205740000Y-119380000D03*
D24*
X132080000Y-76200000D03*
X132080000Y-71700000D03*
X138580000Y-76200000D03*
X138580000Y-71700000D03*
D15*
X162560000Y-69850000D03*
D17*
X170180000Y-87630000D03*
X162560000Y-72390000D03*
X170180000Y-85090000D03*
X162560000Y-74930000D03*
X170180000Y-82550000D03*
X162560000Y-77470000D03*
X170180000Y-80010000D03*
X162560000Y-80010000D03*
X170180000Y-77470000D03*
X162560000Y-82550000D03*
X170180000Y-74930000D03*
X162560000Y-85090000D03*
X170180000Y-72390000D03*
X162560000Y-87630000D03*
X170180000Y-69850000D03*
D25*
X192300000Y-116470000D03*
D24*
X192300000Y-102020000D03*
D20*
X204470000Y-72630000D03*
D21*
X204470000Y-87630000D03*
D26*
X176610000Y-64770000D03*
X181610000Y-64770000D03*
X186610000Y-64770000D03*
D24*
X199390000Y-113030000D03*
X199390000Y-115570000D03*
X199390000Y-118110000D03*
X199390000Y-110490000D03*
X199390000Y-120650000D03*
D27*
X139700000Y-63500000D03*
X149860000Y-63500000D03*
X160020000Y-63500000D03*
X170180000Y-63500000D03*
X210820000Y-63500000D03*
X218440000Y-73660000D03*
X218440000Y-114300000D03*
X210820000Y-93980000D03*
X200660000Y-93980000D03*
X190500000Y-93980000D03*
X180340000Y-93980000D03*
X160020000Y-93980000D03*
X149860000Y-93980000D03*
X139700000Y-93980000D03*
X129540000Y-93980000D03*
X200660000Y-63500000D03*
X190500000Y-63500000D03*
X218440000Y-83820000D03*
X210820000Y-83820000D03*
X210820000Y-73660000D03*
X218440000Y-93980000D03*
X200660000Y-73660000D03*
X190500000Y-73660000D03*
X200660000Y-83820000D03*
X129540000Y-73660000D03*
X129540000Y-83820000D03*
X149860000Y-124460000D03*
X160020000Y-124460000D03*
X170180000Y-124460000D03*
X180340000Y-124460000D03*
X190500000Y-124460000D03*
X210820000Y-124460000D03*
X149860000Y-114300000D03*
X149860000Y-104140000D03*
X160020000Y-104140000D03*
X160020000Y-114300000D03*
X170180000Y-114300000D03*
X180340000Y-114300000D03*
X129540000Y-104140000D03*
X129540000Y-114300000D03*
X139700000Y-104140000D03*
X139700000Y-114300000D03*
X139700000Y-124460000D03*
X200660000Y-124460000D03*
X180340000Y-86360000D03*
X190500000Y-83820000D03*
X170180000Y-93980000D03*
X180340000Y-104140000D03*
X190500000Y-104140000D03*
X210820000Y-104140000D03*
X170180000Y-104140000D03*
X139700000Y-80010000D03*
X153670000Y-80010000D03*
X174625000Y-95885000D03*
X175895000Y-95885000D03*
X172720000Y-107950000D03*
D28*
X170180000Y-80010000D02*
X174625000Y-80010000D01*
X174625000Y-80010000D02*
X174625000Y-75565000D01*
X174625000Y-95250000D02*
X175895000Y-95250000D01*
X175895000Y-95885000D02*
X175895000Y-95250000D01*
X174625000Y-95885000D02*
X174625000Y-95250000D01*
X174625000Y-95250000D02*
X174625000Y-80010000D01*
X201930000Y-116840000D02*
X200660000Y-118110000D01*
X201930000Y-101600000D02*
X201930000Y-116840000D01*
X199390000Y-118110000D02*
X200660000Y-118110000D01*
X178435000Y-66595000D02*
X176610000Y-64770000D01*
X178435000Y-81280000D02*
X178435000Y-66595000D01*
D29*
X161290000Y-77470000D02*
X158750000Y-80010000D01*
X162560000Y-77470000D02*
X161290000Y-77470000D01*
X167640000Y-72390000D02*
X170180000Y-72390000D01*
X166370000Y-73660000D02*
X167640000Y-72390000D01*
X166370000Y-93980000D02*
X166370000Y-73660000D01*
X172720000Y-100330000D02*
X166370000Y-93980000D01*
X172720000Y-107950000D02*
X172720000Y-100330000D01*
D30*
X214648724Y-62069119D02*
X217170000Y-64590395D01*
X217184143Y-64576253D01*
X217363748Y-64755858D01*
X217349605Y-64770000D01*
X219870881Y-67291276D01*
X220320000Y-66960914D01*
X220320001Y-120999087D01*
X219870881Y-120668724D01*
X217349605Y-123190000D01*
X217363748Y-123204143D01*
X217184143Y-123383748D01*
X217170000Y-123369605D01*
X214648724Y-125890881D01*
X214979086Y-126340000D01*
X133000914Y-126340000D01*
X133331276Y-125890881D01*
X130810000Y-123369605D01*
X130795858Y-123383748D01*
X130616253Y-123204143D01*
X130630395Y-123190000D01*
X130989605Y-123190000D01*
X133510881Y-125711276D01*
X134000548Y-125351088D01*
X134360849Y-124687118D01*
X134584694Y-123965615D01*
X134663480Y-123214305D01*
X134659002Y-123165695D01*
X213316520Y-123165695D01*
X213385822Y-123917938D01*
X213600548Y-124642208D01*
X213952445Y-125310670D01*
X213979452Y-125351088D01*
X214469119Y-125711276D01*
X216990395Y-123190000D01*
X214469119Y-120668724D01*
X213979452Y-121028912D01*
X213619151Y-121692882D01*
X213395306Y-122414385D01*
X213316520Y-123165695D01*
X134659002Y-123165695D01*
X134594178Y-122462062D01*
X134393571Y-121785413D01*
X198434192Y-121785413D01*
X198529956Y-122049814D01*
X198819571Y-122190704D01*
X199131108Y-122272384D01*
X199452595Y-122291718D01*
X199771675Y-122247961D01*
X200076088Y-122142795D01*
X200250044Y-122049814D01*
X200345808Y-121785413D01*
X199390000Y-120829605D01*
X198434192Y-121785413D01*
X134393571Y-121785413D01*
X134379452Y-121737792D01*
X134027555Y-121069330D01*
X134000548Y-121028912D01*
X133570523Y-120712595D01*
X197748282Y-120712595D01*
X197792039Y-121031675D01*
X197897205Y-121336088D01*
X197990186Y-121510044D01*
X198254587Y-121605808D01*
X199210395Y-120650000D01*
X199569605Y-120650000D01*
X200525413Y-121605808D01*
X200789814Y-121510044D01*
X200930704Y-121220429D01*
X201012384Y-120908892D01*
X201031718Y-120587405D01*
X200987961Y-120268325D01*
X200882795Y-119963912D01*
X200789814Y-119789956D01*
X200525413Y-119694192D01*
X199569605Y-120650000D01*
X199210395Y-120650000D01*
X198254587Y-119694192D01*
X197990186Y-119789956D01*
X197849296Y-120079571D01*
X197767616Y-120391108D01*
X197748282Y-120712595D01*
X133570523Y-120712595D01*
X133510881Y-120668724D01*
X130989605Y-123190000D01*
X130630395Y-123190000D01*
X128109119Y-120668724D01*
X127660000Y-120999086D01*
X127660000Y-120489119D01*
X128288724Y-120489119D01*
X130810000Y-123010395D01*
X133331276Y-120489119D01*
X132971088Y-119999452D01*
X132307118Y-119639151D01*
X131585615Y-119415306D01*
X130834305Y-119336520D01*
X130082062Y-119405822D01*
X129357792Y-119620548D01*
X128689330Y-119972445D01*
X128648912Y-119999452D01*
X128288724Y-120489119D01*
X127660000Y-120489119D01*
X127660000Y-116485098D01*
X162815000Y-116485098D01*
X162815000Y-116954902D01*
X162906654Y-117415679D01*
X163086440Y-117849721D01*
X163347450Y-118240349D01*
X163679651Y-118572550D01*
X164070279Y-118833560D01*
X164504321Y-119013346D01*
X164965098Y-119105000D01*
X165434902Y-119105000D01*
X165895679Y-119013346D01*
X166329721Y-118833560D01*
X166720349Y-118572550D01*
X167052550Y-118240349D01*
X167313560Y-117849721D01*
X167493346Y-117415679D01*
X167585000Y-116954902D01*
X167585000Y-116485098D01*
X167493346Y-116024321D01*
X167313560Y-115590279D01*
X167233192Y-115470000D01*
X190661928Y-115470000D01*
X190661928Y-117470000D01*
X190674188Y-117594482D01*
X190710498Y-117714180D01*
X190769463Y-117824494D01*
X190848815Y-117921185D01*
X190945506Y-118000537D01*
X191055820Y-118059502D01*
X191175518Y-118095812D01*
X191300000Y-118108072D01*
X193300000Y-118108072D01*
X193424482Y-118095812D01*
X193544180Y-118059502D01*
X193654494Y-118000537D01*
X193751185Y-117921185D01*
X193830537Y-117824494D01*
X193889502Y-117714180D01*
X193925812Y-117594482D01*
X193938072Y-117470000D01*
X193938072Y-115470000D01*
X193925812Y-115345518D01*
X193889502Y-115225820D01*
X193830537Y-115115506D01*
X193751185Y-115018815D01*
X193654494Y-114939463D01*
X193544180Y-114880498D01*
X193424482Y-114844188D01*
X193300000Y-114831928D01*
X191300000Y-114831928D01*
X191175518Y-114844188D01*
X191055820Y-114880498D01*
X190945506Y-114939463D01*
X190848815Y-115018815D01*
X190769463Y-115115506D01*
X190710498Y-115225820D01*
X190674188Y-115345518D01*
X190661928Y-115470000D01*
X167233192Y-115470000D01*
X167052550Y-115199651D01*
X166720349Y-114867450D01*
X166329721Y-114606440D01*
X165895679Y-114426654D01*
X165434902Y-114335000D01*
X164965098Y-114335000D01*
X164504321Y-114426654D01*
X164070279Y-114606440D01*
X163679651Y-114867450D01*
X163347450Y-115199651D01*
X163086440Y-115590279D01*
X162906654Y-116024321D01*
X162815000Y-116485098D01*
X127660000Y-116485098D01*
X127660000Y-112868967D01*
X197755000Y-112868967D01*
X197755000Y-113191033D01*
X197817832Y-113506912D01*
X197941082Y-113804463D01*
X198120013Y-114072252D01*
X198347748Y-114299987D01*
X198347767Y-114300000D01*
X198347748Y-114300013D01*
X198120013Y-114527748D01*
X197941082Y-114795537D01*
X197817832Y-115093088D01*
X197755000Y-115408967D01*
X197755000Y-115731033D01*
X197817832Y-116046912D01*
X197941082Y-116344463D01*
X198120013Y-116612252D01*
X198347748Y-116839987D01*
X198347767Y-116840000D01*
X198347748Y-116840013D01*
X198120013Y-117067748D01*
X197941082Y-117335537D01*
X197817832Y-117633088D01*
X197755000Y-117948967D01*
X197755000Y-118271033D01*
X197817832Y-118586912D01*
X197941082Y-118884463D01*
X198120013Y-119152252D01*
X198347748Y-119379987D01*
X198456600Y-119452720D01*
X198434192Y-119514587D01*
X199390000Y-120470395D01*
X200345808Y-119514587D01*
X200323400Y-119452720D01*
X200432252Y-119379987D01*
X200563725Y-119248514D01*
X204405000Y-119248514D01*
X204405000Y-119511486D01*
X204456304Y-119769405D01*
X204556939Y-120012359D01*
X204703038Y-120231013D01*
X204888987Y-120416962D01*
X205107641Y-120563061D01*
X205350595Y-120663696D01*
X205608514Y-120715000D01*
X205871486Y-120715000D01*
X206129405Y-120663696D01*
X206372359Y-120563061D01*
X206591013Y-120416962D01*
X206776962Y-120231013D01*
X206923061Y-120012359D01*
X207023696Y-119769405D01*
X207075000Y-119511486D01*
X207075000Y-119248514D01*
X207074021Y-119243589D01*
X209435000Y-119243589D01*
X209435000Y-119516411D01*
X209488225Y-119783989D01*
X209592629Y-120036043D01*
X209744201Y-120262886D01*
X209937114Y-120455799D01*
X210163957Y-120607371D01*
X210416011Y-120711775D01*
X210683589Y-120765000D01*
X210956411Y-120765000D01*
X211223989Y-120711775D01*
X211476043Y-120607371D01*
X211653019Y-120489119D01*
X214648724Y-120489119D01*
X217170000Y-123010395D01*
X219691276Y-120489119D01*
X219331088Y-119999452D01*
X218667118Y-119639151D01*
X217945615Y-119415306D01*
X217194305Y-119336520D01*
X216442062Y-119405822D01*
X215717792Y-119620548D01*
X215049330Y-119972445D01*
X215008912Y-119999452D01*
X214648724Y-120489119D01*
X211653019Y-120489119D01*
X211702886Y-120455799D01*
X211895799Y-120262886D01*
X212047371Y-120036043D01*
X212151775Y-119783989D01*
X212205000Y-119516411D01*
X212205000Y-119243589D01*
X212151775Y-118976011D01*
X212047371Y-118723957D01*
X211895799Y-118497114D01*
X211702886Y-118304201D01*
X211476043Y-118152629D01*
X211376721Y-118111489D01*
X211418832Y-118096277D01*
X211531863Y-118035860D01*
X211597388Y-117796993D01*
X210820000Y-117019605D01*
X210042612Y-117796993D01*
X210108137Y-118035860D01*
X210266477Y-118110164D01*
X210163957Y-118152629D01*
X209937114Y-118304201D01*
X209744201Y-118497114D01*
X209592629Y-118723957D01*
X209488225Y-118976011D01*
X209435000Y-119243589D01*
X207074021Y-119243589D01*
X207023696Y-118990595D01*
X206923061Y-118747641D01*
X206776962Y-118528987D01*
X206591013Y-118343038D01*
X206372359Y-118196939D01*
X206129405Y-118096304D01*
X205871486Y-118045000D01*
X205608514Y-118045000D01*
X205350595Y-118096304D01*
X205107641Y-118196939D01*
X204888987Y-118343038D01*
X204703038Y-118528987D01*
X204556939Y-118747641D01*
X204456304Y-118990595D01*
X204405000Y-119248514D01*
X200563725Y-119248514D01*
X200659987Y-119152252D01*
X200733462Y-119042288D01*
X200843292Y-119031471D01*
X201019540Y-118978007D01*
X201181972Y-118891186D01*
X201324344Y-118774344D01*
X201353630Y-118738659D01*
X202558664Y-117533626D01*
X202594344Y-117504344D01*
X202711186Y-117361972D01*
X202798007Y-117199540D01*
X202835253Y-117076757D01*
X202851471Y-117023293D01*
X202862384Y-116912492D01*
X209430188Y-116912492D01*
X209471035Y-117182238D01*
X209563723Y-117438832D01*
X209624140Y-117551863D01*
X209863007Y-117617388D01*
X210640395Y-116840000D01*
X210999605Y-116840000D01*
X211776993Y-117617388D01*
X212015860Y-117551863D01*
X212131760Y-117304884D01*
X212197250Y-117040040D01*
X212209812Y-116767508D01*
X212168965Y-116497762D01*
X212076277Y-116241168D01*
X212015860Y-116128137D01*
X211776993Y-116062612D01*
X210999605Y-116840000D01*
X210640395Y-116840000D01*
X209863007Y-116062612D01*
X209624140Y-116128137D01*
X209508240Y-116375116D01*
X209442750Y-116639960D01*
X209430188Y-116912492D01*
X202862384Y-116912492D01*
X202869524Y-116840001D01*
X202865000Y-116794069D01*
X202865000Y-113550000D01*
X209431928Y-113550000D01*
X209431928Y-115050000D01*
X209444188Y-115174482D01*
X209480498Y-115294180D01*
X209539463Y-115404494D01*
X209618815Y-115501185D01*
X209715506Y-115580537D01*
X209825820Y-115639502D01*
X209945518Y-115675812D01*
X210070000Y-115688072D01*
X210096086Y-115688072D01*
X210042612Y-115883007D01*
X210820000Y-116660395D01*
X211597388Y-115883007D01*
X211543914Y-115688072D01*
X211570000Y-115688072D01*
X211694482Y-115675812D01*
X211814180Y-115639502D01*
X211924494Y-115580537D01*
X212021185Y-115501185D01*
X212100537Y-115404494D01*
X212159502Y-115294180D01*
X212195812Y-115174482D01*
X212208072Y-115050000D01*
X212208072Y-113550000D01*
X212195812Y-113425518D01*
X212159502Y-113305820D01*
X212100537Y-113195506D01*
X212021185Y-113098815D01*
X211924494Y-113019463D01*
X211814180Y-112960498D01*
X211694482Y-112924188D01*
X211570000Y-112911928D01*
X210070000Y-112911928D01*
X209945518Y-112924188D01*
X209825820Y-112960498D01*
X209715506Y-113019463D01*
X209618815Y-113098815D01*
X209539463Y-113195506D01*
X209480498Y-113305820D01*
X209444188Y-113425518D01*
X209431928Y-113550000D01*
X202865000Y-113550000D01*
X202865000Y-111628514D01*
X204405000Y-111628514D01*
X204405000Y-111891486D01*
X204456304Y-112149405D01*
X204556939Y-112392359D01*
X204703038Y-112611013D01*
X204888987Y-112796962D01*
X205107641Y-112943061D01*
X205350595Y-113043696D01*
X205608514Y-113095000D01*
X205871486Y-113095000D01*
X206129405Y-113043696D01*
X206372359Y-112943061D01*
X206591013Y-112796962D01*
X206776962Y-112611013D01*
X206923061Y-112392359D01*
X207023696Y-112149405D01*
X207075000Y-111891486D01*
X207075000Y-111628514D01*
X207023696Y-111370595D01*
X206923061Y-111127641D01*
X206776962Y-110908987D01*
X206591013Y-110723038D01*
X206372359Y-110576939D01*
X206129405Y-110476304D01*
X205871486Y-110425000D01*
X205608514Y-110425000D01*
X205350595Y-110476304D01*
X205107641Y-110576939D01*
X204888987Y-110723038D01*
X204703038Y-110908987D01*
X204556939Y-111127641D01*
X204456304Y-111370595D01*
X204405000Y-111628514D01*
X202865000Y-111628514D01*
X202865000Y-109078665D01*
X206845000Y-109078665D01*
X206845000Y-109361335D01*
X206900147Y-109638574D01*
X207008320Y-109899727D01*
X207165363Y-110134759D01*
X207365241Y-110334637D01*
X207600273Y-110491680D01*
X207861426Y-110599853D01*
X208138665Y-110655000D01*
X208421335Y-110655000D01*
X208698574Y-110599853D01*
X208959727Y-110491680D01*
X209194759Y-110334637D01*
X209394637Y-110134759D01*
X209551680Y-109899727D01*
X209659853Y-109638574D01*
X209715000Y-109361335D01*
X209715000Y-109078665D01*
X209659853Y-108801426D01*
X209551680Y-108540273D01*
X209394637Y-108305241D01*
X209194759Y-108105363D01*
X208959727Y-107948320D01*
X208698574Y-107840147D01*
X208421335Y-107785000D01*
X208138665Y-107785000D01*
X207861426Y-107840147D01*
X207600273Y-107948320D01*
X207365241Y-108105363D01*
X207165363Y-108305241D01*
X207008320Y-108540273D01*
X206900147Y-108801426D01*
X206845000Y-109078665D01*
X202865000Y-109078665D01*
X202865000Y-106469721D01*
X213765000Y-106469721D01*
X213765000Y-106890279D01*
X213847047Y-107302756D01*
X214007988Y-107691302D01*
X214241637Y-108040983D01*
X214539017Y-108338363D01*
X214888698Y-108572012D01*
X215277244Y-108732953D01*
X215689721Y-108815000D01*
X216110279Y-108815000D01*
X216522756Y-108732953D01*
X216911302Y-108572012D01*
X217260983Y-108338363D01*
X217558363Y-108040983D01*
X217792012Y-107691302D01*
X217952953Y-107302756D01*
X218035000Y-106890279D01*
X218035000Y-106469721D01*
X217952953Y-106057244D01*
X217792012Y-105668698D01*
X217558363Y-105319017D01*
X217260983Y-105021637D01*
X216911302Y-104787988D01*
X216522756Y-104627047D01*
X216110279Y-104545000D01*
X215689721Y-104545000D01*
X215277244Y-104627047D01*
X214888698Y-104787988D01*
X214539017Y-105021637D01*
X214241637Y-105319017D01*
X214007988Y-105668698D01*
X213847047Y-106057244D01*
X213765000Y-106469721D01*
X202865000Y-106469721D01*
X202865000Y-103022621D01*
X202974180Y-102989502D01*
X203084494Y-102930537D01*
X203181185Y-102851185D01*
X203260537Y-102754494D01*
X203319502Y-102644180D01*
X203355812Y-102524482D01*
X203368072Y-102400000D01*
X203368072Y-100800000D01*
X206841928Y-100800000D01*
X206841928Y-102400000D01*
X206854188Y-102524482D01*
X206890498Y-102644180D01*
X206949463Y-102754494D01*
X207028815Y-102851185D01*
X207125506Y-102930537D01*
X207235820Y-102989502D01*
X207355518Y-103025812D01*
X207480000Y-103038072D01*
X209080000Y-103038072D01*
X209204482Y-103025812D01*
X209324180Y-102989502D01*
X209434494Y-102930537D01*
X209531185Y-102851185D01*
X209610537Y-102754494D01*
X209669502Y-102644180D01*
X209705812Y-102524482D01*
X209718072Y-102400000D01*
X209718072Y-100800000D01*
X209705812Y-100675518D01*
X209669502Y-100555820D01*
X209610537Y-100445506D01*
X209531185Y-100348815D01*
X209434494Y-100269463D01*
X209324180Y-100210498D01*
X209204482Y-100174188D01*
X209080000Y-100161928D01*
X207480000Y-100161928D01*
X207355518Y-100174188D01*
X207235820Y-100210498D01*
X207125506Y-100269463D01*
X207028815Y-100348815D01*
X206949463Y-100445506D01*
X206890498Y-100555820D01*
X206854188Y-100675518D01*
X206841928Y-100800000D01*
X203368072Y-100800000D01*
X203355812Y-100675518D01*
X203319502Y-100555820D01*
X203260537Y-100445506D01*
X203181185Y-100348815D01*
X203084494Y-100269463D01*
X202974180Y-100210498D01*
X202854482Y-100174188D01*
X202730000Y-100161928D01*
X202722785Y-100161928D01*
X202740955Y-100100000D01*
X213761928Y-100100000D01*
X213761928Y-103100000D01*
X213774188Y-103224482D01*
X213810498Y-103344180D01*
X213869463Y-103454494D01*
X213948815Y-103551185D01*
X214045506Y-103630537D01*
X214155820Y-103689502D01*
X214275518Y-103725812D01*
X214400000Y-103738072D01*
X217400000Y-103738072D01*
X217524482Y-103725812D01*
X217644180Y-103689502D01*
X217754494Y-103630537D01*
X217851185Y-103551185D01*
X217930537Y-103454494D01*
X217989502Y-103344180D01*
X218025812Y-103224482D01*
X218038072Y-103100000D01*
X218038072Y-100100000D01*
X218025812Y-99975518D01*
X217989502Y-99855820D01*
X217930537Y-99745506D01*
X217851185Y-99648815D01*
X217754494Y-99569463D01*
X217644180Y-99510498D01*
X217524482Y-99474188D01*
X217400000Y-99461928D01*
X214400000Y-99461928D01*
X214275518Y-99474188D01*
X214155820Y-99510498D01*
X214045506Y-99569463D01*
X213948815Y-99648815D01*
X213869463Y-99745506D01*
X213810498Y-99855820D01*
X213774188Y-99975518D01*
X213761928Y-100100000D01*
X202740955Y-100100000D01*
X202743097Y-100092702D01*
X201930000Y-99279605D01*
X201116903Y-100092702D01*
X201137215Y-100161928D01*
X201130000Y-100161928D01*
X201005518Y-100174188D01*
X200885820Y-100210498D01*
X200775506Y-100269463D01*
X200678815Y-100348815D01*
X200599463Y-100445506D01*
X200540498Y-100555820D01*
X200504188Y-100675518D01*
X200491928Y-100800000D01*
X200491928Y-102400000D01*
X200504188Y-102524482D01*
X200540498Y-102644180D01*
X200599463Y-102754494D01*
X200678815Y-102851185D01*
X200775506Y-102930537D01*
X200885820Y-102989502D01*
X200995000Y-103022621D01*
X200995001Y-110159658D01*
X200987961Y-110108325D01*
X200882795Y-109803912D01*
X200789814Y-109629956D01*
X200525413Y-109534192D01*
X199569605Y-110490000D01*
X200525413Y-111445808D01*
X200789814Y-111350044D01*
X200930704Y-111060429D01*
X200995001Y-110815194D01*
X200995001Y-112718150D01*
X200962168Y-112553088D01*
X200838918Y-112255537D01*
X200659987Y-111987748D01*
X200432252Y-111760013D01*
X200323400Y-111687280D01*
X200345808Y-111625413D01*
X199390000Y-110669605D01*
X198434192Y-111625413D01*
X198456600Y-111687280D01*
X198347748Y-111760013D01*
X198120013Y-111987748D01*
X197941082Y-112255537D01*
X197817832Y-112553088D01*
X197755000Y-112868967D01*
X127660000Y-112868967D01*
X127660000Y-110552595D01*
X197748282Y-110552595D01*
X197792039Y-110871675D01*
X197897205Y-111176088D01*
X197990186Y-111350044D01*
X198254587Y-111445808D01*
X199210395Y-110490000D01*
X198254587Y-109534192D01*
X197990186Y-109629956D01*
X197849296Y-109919571D01*
X197767616Y-110231108D01*
X197748282Y-110552595D01*
X127660000Y-110552595D01*
X127660000Y-109354587D01*
X198434192Y-109354587D01*
X199390000Y-110310395D01*
X200345808Y-109354587D01*
X200250044Y-109090186D01*
X199960429Y-108949296D01*
X199648892Y-108867616D01*
X199327405Y-108848282D01*
X199008325Y-108892039D01*
X198703912Y-108997205D01*
X198529956Y-109090186D01*
X198434192Y-109354587D01*
X127660000Y-109354587D01*
X127660000Y-101485098D01*
X162815000Y-101485098D01*
X162815000Y-101954902D01*
X162906654Y-102415679D01*
X163086440Y-102849721D01*
X163347450Y-103240349D01*
X163679651Y-103572550D01*
X164070279Y-103833560D01*
X164504321Y-104013346D01*
X164965098Y-104105000D01*
X165434902Y-104105000D01*
X165895679Y-104013346D01*
X166329721Y-103833560D01*
X166720349Y-103572550D01*
X167052550Y-103240349D01*
X167313560Y-102849721D01*
X167493346Y-102415679D01*
X167585000Y-101954902D01*
X167585000Y-101485098D01*
X167493346Y-101024321D01*
X167313560Y-100590279D01*
X167052550Y-100199651D01*
X166720349Y-99867450D01*
X166329721Y-99606440D01*
X165895679Y-99426654D01*
X165434902Y-99335000D01*
X164965098Y-99335000D01*
X164504321Y-99426654D01*
X164070279Y-99606440D01*
X163679651Y-99867450D01*
X163347450Y-100199651D01*
X163086440Y-100590279D01*
X162906654Y-101024321D01*
X162815000Y-101485098D01*
X127660000Y-101485098D01*
X127660000Y-79878514D01*
X157415000Y-79878514D01*
X157415000Y-80141486D01*
X157466304Y-80399405D01*
X157566939Y-80642359D01*
X157713038Y-80861013D01*
X157898987Y-81046962D01*
X158117641Y-81193061D01*
X158360595Y-81293696D01*
X158618514Y-81345000D01*
X158881486Y-81345000D01*
X159139405Y-81293696D01*
X159382359Y-81193061D01*
X159601013Y-81046962D01*
X159786962Y-80861013D01*
X159933061Y-80642359D01*
X160033696Y-80399405D01*
X160085000Y-80141486D01*
X160085000Y-79878514D01*
X160063645Y-79771157D01*
X161447703Y-78387099D01*
X161645241Y-78584637D01*
X161877759Y-78740000D01*
X161645241Y-78895363D01*
X161445363Y-79095241D01*
X161288320Y-79330273D01*
X161180147Y-79591426D01*
X161125000Y-79868665D01*
X161125000Y-80151335D01*
X161180147Y-80428574D01*
X161288320Y-80689727D01*
X161445363Y-80924759D01*
X161645241Y-81124637D01*
X161877759Y-81280000D01*
X161645241Y-81435363D01*
X161445363Y-81635241D01*
X161288320Y-81870273D01*
X161180147Y-82131426D01*
X161125000Y-82408665D01*
X161125000Y-82691335D01*
X161180147Y-82968574D01*
X161288320Y-83229727D01*
X161445363Y-83464759D01*
X161645241Y-83664637D01*
X161877759Y-83820000D01*
X161645241Y-83975363D01*
X161445363Y-84175241D01*
X161288320Y-84410273D01*
X161180147Y-84671426D01*
X161125000Y-84948665D01*
X161125000Y-85231335D01*
X161180147Y-85508574D01*
X161288320Y-85769727D01*
X161445363Y-86004759D01*
X161645241Y-86204637D01*
X161877759Y-86360000D01*
X161645241Y-86515363D01*
X161445363Y-86715241D01*
X161288320Y-86950273D01*
X161180147Y-87211426D01*
X161125000Y-87488665D01*
X161125000Y-87771335D01*
X161180147Y-88048574D01*
X161288320Y-88309727D01*
X161445363Y-88544759D01*
X161645241Y-88744637D01*
X161880273Y-88901680D01*
X162141426Y-89009853D01*
X162418665Y-89065000D01*
X162701335Y-89065000D01*
X162978574Y-89009853D01*
X163239727Y-88901680D01*
X163474759Y-88744637D01*
X163674637Y-88544759D01*
X163831680Y-88309727D01*
X163939853Y-88048574D01*
X163995000Y-87771335D01*
X163995000Y-87488665D01*
X163939853Y-87211426D01*
X163831680Y-86950273D01*
X163674637Y-86715241D01*
X163474759Y-86515363D01*
X163242241Y-86360000D01*
X163474759Y-86204637D01*
X163674637Y-86004759D01*
X163831680Y-85769727D01*
X163939853Y-85508574D01*
X163995000Y-85231335D01*
X163995000Y-84948665D01*
X163939853Y-84671426D01*
X163831680Y-84410273D01*
X163674637Y-84175241D01*
X163474759Y-83975363D01*
X163242241Y-83820000D01*
X163474759Y-83664637D01*
X163674637Y-83464759D01*
X163831680Y-83229727D01*
X163939853Y-82968574D01*
X163995000Y-82691335D01*
X163995000Y-82408665D01*
X163939853Y-82131426D01*
X163831680Y-81870273D01*
X163674637Y-81635241D01*
X163474759Y-81435363D01*
X163242241Y-81280000D01*
X163474759Y-81124637D01*
X163674637Y-80924759D01*
X163831680Y-80689727D01*
X163939853Y-80428574D01*
X163995000Y-80151335D01*
X163995000Y-79868665D01*
X163939853Y-79591426D01*
X163831680Y-79330273D01*
X163674637Y-79095241D01*
X163474759Y-78895363D01*
X163242241Y-78740000D01*
X163474759Y-78584637D01*
X163674637Y-78384759D01*
X163831680Y-78149727D01*
X163939853Y-77888574D01*
X163995000Y-77611335D01*
X163995000Y-77328665D01*
X163939853Y-77051426D01*
X163831680Y-76790273D01*
X163674637Y-76555241D01*
X163474759Y-76355363D01*
X163242241Y-76200000D01*
X163474759Y-76044637D01*
X163674637Y-75844759D01*
X163831680Y-75609727D01*
X163939853Y-75348574D01*
X163995000Y-75071335D01*
X163995000Y-74788665D01*
X163939853Y-74511426D01*
X163831680Y-74250273D01*
X163674637Y-74015241D01*
X163474759Y-73815363D01*
X163242241Y-73660000D01*
X165606324Y-73660000D01*
X165610001Y-73697333D01*
X165610000Y-93942678D01*
X165606324Y-93980000D01*
X165610000Y-94017322D01*
X165610000Y-94017332D01*
X165620997Y-94128985D01*
X165664454Y-94272246D01*
X165735026Y-94404276D01*
X165774871Y-94452826D01*
X165829999Y-94520001D01*
X165859003Y-94543804D01*
X171960001Y-100644803D01*
X171960000Y-107246289D01*
X171916063Y-107290226D01*
X171802795Y-107459744D01*
X171724774Y-107648102D01*
X171685000Y-107848061D01*
X171685000Y-108051939D01*
X171724774Y-108251898D01*
X171802795Y-108440256D01*
X171916063Y-108609774D01*
X172060226Y-108753937D01*
X172229744Y-108867205D01*
X172418102Y-108945226D01*
X172618061Y-108985000D01*
X172821939Y-108985000D01*
X173021898Y-108945226D01*
X173210256Y-108867205D01*
X173379774Y-108753937D01*
X173523937Y-108609774D01*
X173637205Y-108440256D01*
X173715226Y-108251898D01*
X173755000Y-108051939D01*
X173755000Y-107848061D01*
X173715226Y-107648102D01*
X173637205Y-107459744D01*
X173523937Y-107290226D01*
X173480000Y-107246289D01*
X173480000Y-103155413D01*
X191344192Y-103155413D01*
X191439956Y-103419814D01*
X191729571Y-103560704D01*
X192041108Y-103642384D01*
X192362595Y-103661718D01*
X192681675Y-103617961D01*
X192986088Y-103512795D01*
X193160044Y-103419814D01*
X193255808Y-103155413D01*
X192300000Y-102199605D01*
X191344192Y-103155413D01*
X173480000Y-103155413D01*
X173480000Y-102082595D01*
X190658282Y-102082595D01*
X190702039Y-102401675D01*
X190807205Y-102706088D01*
X190900186Y-102880044D01*
X191164587Y-102975808D01*
X192120395Y-102020000D01*
X192479605Y-102020000D01*
X193435413Y-102975808D01*
X193699814Y-102880044D01*
X193840704Y-102590429D01*
X193922384Y-102278892D01*
X193941718Y-101957405D01*
X193897961Y-101638325D01*
X193792795Y-101333912D01*
X193699814Y-101159956D01*
X193435413Y-101064192D01*
X192479605Y-102020000D01*
X192120395Y-102020000D01*
X191164587Y-101064192D01*
X190900186Y-101159956D01*
X190759296Y-101449571D01*
X190677616Y-101761108D01*
X190658282Y-102082595D01*
X173480000Y-102082595D01*
X173480000Y-100884587D01*
X191344192Y-100884587D01*
X192300000Y-101840395D01*
X193255808Y-100884587D01*
X193160044Y-100620186D01*
X192870429Y-100479296D01*
X192558892Y-100397616D01*
X192237405Y-100378282D01*
X191918325Y-100422039D01*
X191613912Y-100527205D01*
X191439956Y-100620186D01*
X191344192Y-100884587D01*
X173480000Y-100884587D01*
X173480000Y-100367322D01*
X173483676Y-100329999D01*
X173480000Y-100292676D01*
X173480000Y-100292667D01*
X173469003Y-100181014D01*
X173425546Y-100037753D01*
X173392280Y-99975518D01*
X173354974Y-99905723D01*
X173283799Y-99818997D01*
X173260001Y-99789999D01*
X173231003Y-99766201D01*
X172635314Y-99170512D01*
X200489783Y-99170512D01*
X200531213Y-99450130D01*
X200626397Y-99716292D01*
X200693329Y-99841514D01*
X200937298Y-99913097D01*
X201750395Y-99100000D01*
X202109605Y-99100000D01*
X202922702Y-99913097D01*
X203166671Y-99841514D01*
X203287571Y-99586004D01*
X203356300Y-99311816D01*
X203370217Y-99029488D01*
X203328787Y-98749870D01*
X203233603Y-98483708D01*
X203166671Y-98358486D01*
X202922702Y-98286903D01*
X202109605Y-99100000D01*
X201750395Y-99100000D01*
X200937298Y-98286903D01*
X200693329Y-98358486D01*
X200572429Y-98613996D01*
X200503700Y-98888184D01*
X200489783Y-99170512D01*
X172635314Y-99170512D01*
X171572100Y-98107298D01*
X201116903Y-98107298D01*
X201930000Y-98920395D01*
X202743097Y-98107298D01*
X202671514Y-97863329D01*
X202416004Y-97742429D01*
X202141816Y-97673700D01*
X201859488Y-97659783D01*
X201579870Y-97701213D01*
X201313708Y-97796397D01*
X201188486Y-97863329D01*
X201116903Y-98107298D01*
X171572100Y-98107298D01*
X167130000Y-93665199D01*
X167130000Y-87488665D01*
X168745000Y-87488665D01*
X168745000Y-87771335D01*
X168800147Y-88048574D01*
X168908320Y-88309727D01*
X169065363Y-88544759D01*
X169265241Y-88744637D01*
X169500273Y-88901680D01*
X169761426Y-89009853D01*
X170038665Y-89065000D01*
X170321335Y-89065000D01*
X170598574Y-89009853D01*
X170859727Y-88901680D01*
X171094759Y-88744637D01*
X171294637Y-88544759D01*
X171451680Y-88309727D01*
X171559853Y-88048574D01*
X171615000Y-87771335D01*
X171615000Y-87488665D01*
X171559853Y-87211426D01*
X171451680Y-86950273D01*
X171294637Y-86715241D01*
X171094759Y-86515363D01*
X170859727Y-86358320D01*
X170849135Y-86353933D01*
X171035131Y-86242385D01*
X171243519Y-86053414D01*
X171411037Y-85827420D01*
X171531246Y-85573087D01*
X171571904Y-85439039D01*
X171449915Y-85217000D01*
X170307000Y-85217000D01*
X170307000Y-85237000D01*
X170053000Y-85237000D01*
X170053000Y-85217000D01*
X168910085Y-85217000D01*
X168788096Y-85439039D01*
X168828754Y-85573087D01*
X168948963Y-85827420D01*
X169116481Y-86053414D01*
X169324869Y-86242385D01*
X169510865Y-86353933D01*
X169500273Y-86358320D01*
X169265241Y-86515363D01*
X169065363Y-86715241D01*
X168908320Y-86950273D01*
X168800147Y-87211426D01*
X168745000Y-87488665D01*
X167130000Y-87488665D01*
X167130000Y-77328665D01*
X168745000Y-77328665D01*
X168745000Y-77611335D01*
X168800147Y-77888574D01*
X168908320Y-78149727D01*
X169065363Y-78384759D01*
X169265241Y-78584637D01*
X169497759Y-78740000D01*
X169265241Y-78895363D01*
X169065363Y-79095241D01*
X168908320Y-79330273D01*
X168800147Y-79591426D01*
X168745000Y-79868665D01*
X168745000Y-80151335D01*
X168800147Y-80428574D01*
X168908320Y-80689727D01*
X169065363Y-80924759D01*
X169265241Y-81124637D01*
X169497759Y-81280000D01*
X169265241Y-81435363D01*
X169065363Y-81635241D01*
X168908320Y-81870273D01*
X168800147Y-82131426D01*
X168745000Y-82408665D01*
X168745000Y-82691335D01*
X168800147Y-82968574D01*
X168908320Y-83229727D01*
X169065363Y-83464759D01*
X169265241Y-83664637D01*
X169500273Y-83821680D01*
X169510865Y-83826067D01*
X169324869Y-83937615D01*
X169116481Y-84126586D01*
X168948963Y-84352580D01*
X168828754Y-84606913D01*
X168788096Y-84740961D01*
X168910085Y-84963000D01*
X170053000Y-84963000D01*
X170053000Y-84943000D01*
X170307000Y-84943000D01*
X170307000Y-84963000D01*
X171449915Y-84963000D01*
X171571904Y-84740961D01*
X171531246Y-84606913D01*
X171411037Y-84352580D01*
X171243519Y-84126586D01*
X171035131Y-83937615D01*
X170849135Y-83826067D01*
X170859727Y-83821680D01*
X171094759Y-83664637D01*
X171294637Y-83464759D01*
X171451680Y-83229727D01*
X171559853Y-82968574D01*
X171615000Y-82691335D01*
X171615000Y-82408665D01*
X171559853Y-82131426D01*
X171451680Y-81870273D01*
X171294637Y-81635241D01*
X171094759Y-81435363D01*
X170862241Y-81280000D01*
X171094759Y-81124637D01*
X171274396Y-80945000D01*
X173690001Y-80945000D01*
X173690000Y-95204068D01*
X173685476Y-95250000D01*
X173690000Y-95295931D01*
X173690000Y-95437705D01*
X173629774Y-95583102D01*
X173590000Y-95783061D01*
X173590000Y-95986939D01*
X173629774Y-96186898D01*
X173707795Y-96375256D01*
X173821063Y-96544774D01*
X173965226Y-96688937D01*
X174134744Y-96802205D01*
X174323102Y-96880226D01*
X174523061Y-96920000D01*
X174726939Y-96920000D01*
X174926898Y-96880226D01*
X175115256Y-96802205D01*
X175260000Y-96705490D01*
X175404744Y-96802205D01*
X175593102Y-96880226D01*
X175793061Y-96920000D01*
X175996939Y-96920000D01*
X176196898Y-96880226D01*
X176385256Y-96802205D01*
X176554774Y-96688937D01*
X176698937Y-96544774D01*
X176812205Y-96375256D01*
X176890226Y-96186898D01*
X176930000Y-95986939D01*
X176930000Y-95783061D01*
X176890226Y-95583102D01*
X176830000Y-95437705D01*
X176830000Y-95295931D01*
X176834524Y-95250000D01*
X176816471Y-95066708D01*
X176763007Y-94890460D01*
X176676186Y-94728028D01*
X176559344Y-94585656D01*
X176416972Y-94468814D01*
X176254540Y-94381993D01*
X176078292Y-94328529D01*
X175940932Y-94315000D01*
X175895000Y-94310476D01*
X175849068Y-94315000D01*
X175560000Y-94315000D01*
X175560000Y-87419721D01*
X202335000Y-87419721D01*
X202335000Y-87840279D01*
X202417047Y-88252756D01*
X202577988Y-88641302D01*
X202811637Y-88990983D01*
X203109017Y-89288363D01*
X203458698Y-89522012D01*
X203847244Y-89682953D01*
X204259721Y-89765000D01*
X204680279Y-89765000D01*
X205092756Y-89682953D01*
X205481302Y-89522012D01*
X205830983Y-89288363D01*
X206128363Y-88990983D01*
X206362012Y-88641302D01*
X206522953Y-88252756D01*
X206605000Y-87840279D01*
X206605000Y-87419721D01*
X206522953Y-87007244D01*
X206362012Y-86618698D01*
X206128363Y-86269017D01*
X205830983Y-85971637D01*
X205481302Y-85737988D01*
X205092756Y-85577047D01*
X204680279Y-85495000D01*
X204259721Y-85495000D01*
X203847244Y-85577047D01*
X203458698Y-85737988D01*
X203109017Y-85971637D01*
X202811637Y-86269017D01*
X202577988Y-86618698D01*
X202417047Y-87007244D01*
X202335000Y-87419721D01*
X175560000Y-87419721D01*
X175560000Y-80055931D01*
X175564524Y-80010000D01*
X175560000Y-79964068D01*
X175560000Y-76786381D01*
X175603505Y-76757312D01*
X175817312Y-76543505D01*
X175985299Y-76292095D01*
X176101011Y-76012743D01*
X176160000Y-75716184D01*
X176160000Y-75413816D01*
X176101011Y-75117257D01*
X175985299Y-74837905D01*
X175817312Y-74586495D01*
X175750873Y-74520056D01*
X175769180Y-74514502D01*
X175879494Y-74455537D01*
X175976185Y-74376185D01*
X176055537Y-74279494D01*
X176114502Y-74169180D01*
X176150812Y-74049482D01*
X176163072Y-73925000D01*
X176163072Y-72125000D01*
X176150812Y-72000518D01*
X176114502Y-71880820D01*
X176055537Y-71770506D01*
X175976185Y-71673815D01*
X175879494Y-71594463D01*
X175769180Y-71535498D01*
X175649482Y-71499188D01*
X175525000Y-71486928D01*
X173725000Y-71486928D01*
X173600518Y-71499188D01*
X173480820Y-71535498D01*
X173370506Y-71594463D01*
X173273815Y-71673815D01*
X173194463Y-71770506D01*
X173135498Y-71880820D01*
X173099188Y-72000518D01*
X173086928Y-72125000D01*
X173086928Y-73925000D01*
X173099188Y-74049482D01*
X173135498Y-74169180D01*
X173194463Y-74279494D01*
X173273815Y-74376185D01*
X173370506Y-74455537D01*
X173480820Y-74514502D01*
X173499127Y-74520056D01*
X173432688Y-74586495D01*
X173264701Y-74837905D01*
X173148989Y-75117257D01*
X173090000Y-75413816D01*
X173090000Y-75716184D01*
X173148989Y-76012743D01*
X173264701Y-76292095D01*
X173432688Y-76543505D01*
X173646495Y-76757312D01*
X173690001Y-76786382D01*
X173690000Y-79075000D01*
X171274396Y-79075000D01*
X171094759Y-78895363D01*
X170862241Y-78740000D01*
X171094759Y-78584637D01*
X171294637Y-78384759D01*
X171451680Y-78149727D01*
X171559853Y-77888574D01*
X171615000Y-77611335D01*
X171615000Y-77328665D01*
X171559853Y-77051426D01*
X171451680Y-76790273D01*
X171294637Y-76555241D01*
X171094759Y-76355363D01*
X170859727Y-76198320D01*
X170849135Y-76193933D01*
X171035131Y-76082385D01*
X171243519Y-75893414D01*
X171411037Y-75667420D01*
X171531246Y-75413087D01*
X171571904Y-75279039D01*
X171449915Y-75057000D01*
X170307000Y-75057000D01*
X170307000Y-75077000D01*
X170053000Y-75077000D01*
X170053000Y-75057000D01*
X168910085Y-75057000D01*
X168788096Y-75279039D01*
X168828754Y-75413087D01*
X168948963Y-75667420D01*
X169116481Y-75893414D01*
X169324869Y-76082385D01*
X169510865Y-76193933D01*
X169500273Y-76198320D01*
X169265241Y-76355363D01*
X169065363Y-76555241D01*
X168908320Y-76790273D01*
X168800147Y-77051426D01*
X168745000Y-77328665D01*
X167130000Y-77328665D01*
X167130000Y-73974801D01*
X167954802Y-73150000D01*
X168961957Y-73150000D01*
X169065363Y-73304759D01*
X169265241Y-73504637D01*
X169500273Y-73661680D01*
X169510865Y-73666067D01*
X169324869Y-73777615D01*
X169116481Y-73966586D01*
X168948963Y-74192580D01*
X168828754Y-74446913D01*
X168788096Y-74580961D01*
X168910085Y-74803000D01*
X170053000Y-74803000D01*
X170053000Y-74783000D01*
X170307000Y-74783000D01*
X170307000Y-74803000D01*
X171449915Y-74803000D01*
X171571904Y-74580961D01*
X171531246Y-74446913D01*
X171411037Y-74192580D01*
X171243519Y-73966586D01*
X171035131Y-73777615D01*
X170849135Y-73666067D01*
X170859727Y-73661680D01*
X171094759Y-73504637D01*
X171294637Y-73304759D01*
X171451680Y-73069727D01*
X171559853Y-72808574D01*
X171615000Y-72531335D01*
X171615000Y-72248665D01*
X171559853Y-71971426D01*
X171451680Y-71710273D01*
X171294637Y-71475241D01*
X171094759Y-71275363D01*
X170862241Y-71120000D01*
X171094759Y-70964637D01*
X171294637Y-70764759D01*
X171451680Y-70529727D01*
X171559853Y-70268574D01*
X171615000Y-69991335D01*
X171615000Y-69708665D01*
X171559853Y-69431426D01*
X171451680Y-69170273D01*
X171294637Y-68935241D01*
X171094759Y-68735363D01*
X170859727Y-68578320D01*
X170598574Y-68470147D01*
X170321335Y-68415000D01*
X170038665Y-68415000D01*
X169761426Y-68470147D01*
X169500273Y-68578320D01*
X169265241Y-68735363D01*
X169065363Y-68935241D01*
X168908320Y-69170273D01*
X168800147Y-69431426D01*
X168745000Y-69708665D01*
X168745000Y-69991335D01*
X168800147Y-70268574D01*
X168908320Y-70529727D01*
X169065363Y-70764759D01*
X169265241Y-70964637D01*
X169497759Y-71120000D01*
X169265241Y-71275363D01*
X169065363Y-71475241D01*
X168961957Y-71630000D01*
X167677322Y-71630000D01*
X167639999Y-71626324D01*
X167602676Y-71630000D01*
X167602667Y-71630000D01*
X167491014Y-71640997D01*
X167347753Y-71684454D01*
X167215724Y-71755026D01*
X167099999Y-71849999D01*
X167076201Y-71878997D01*
X165858998Y-73096201D01*
X165830000Y-73119999D01*
X165806202Y-73148997D01*
X165806201Y-73148998D01*
X165735026Y-73235724D01*
X165664454Y-73367754D01*
X165646494Y-73426962D01*
X165622933Y-73504637D01*
X165620998Y-73511015D01*
X165606324Y-73660000D01*
X163242241Y-73660000D01*
X163474759Y-73504637D01*
X163674637Y-73304759D01*
X163831680Y-73069727D01*
X163939853Y-72808574D01*
X163995000Y-72531335D01*
X163995000Y-72248665D01*
X163939853Y-71971426D01*
X163831680Y-71710273D01*
X163674637Y-71475241D01*
X163476039Y-71276643D01*
X163484482Y-71275812D01*
X163604180Y-71239502D01*
X163714494Y-71180537D01*
X163811185Y-71101185D01*
X163890537Y-71004494D01*
X163949502Y-70894180D01*
X163985812Y-70774482D01*
X163998072Y-70650000D01*
X163998072Y-69050000D01*
X163985812Y-68925518D01*
X163949502Y-68805820D01*
X163890537Y-68695506D01*
X163811185Y-68598815D01*
X163714494Y-68519463D01*
X163604180Y-68460498D01*
X163484482Y-68424188D01*
X163360000Y-68411928D01*
X161760000Y-68411928D01*
X161635518Y-68424188D01*
X161515820Y-68460498D01*
X161405506Y-68519463D01*
X161308815Y-68598815D01*
X161229463Y-68695506D01*
X161170498Y-68805820D01*
X161134188Y-68925518D01*
X161121928Y-69050000D01*
X161121928Y-70650000D01*
X161134188Y-70774482D01*
X161170498Y-70894180D01*
X161229463Y-71004494D01*
X161308815Y-71101185D01*
X161405506Y-71180537D01*
X161515820Y-71239502D01*
X161635518Y-71275812D01*
X161643961Y-71276643D01*
X161445363Y-71475241D01*
X161288320Y-71710273D01*
X161180147Y-71971426D01*
X161125000Y-72248665D01*
X161125000Y-72531335D01*
X161180147Y-72808574D01*
X161288320Y-73069727D01*
X161445363Y-73304759D01*
X161645241Y-73504637D01*
X161877759Y-73660000D01*
X161645241Y-73815363D01*
X161445363Y-74015241D01*
X161288320Y-74250273D01*
X161180147Y-74511426D01*
X161125000Y-74788665D01*
X161125000Y-75071335D01*
X161180147Y-75348574D01*
X161288320Y-75609727D01*
X161445363Y-75844759D01*
X161645241Y-76044637D01*
X161877759Y-76200000D01*
X161645241Y-76355363D01*
X161445363Y-76555241D01*
X161341957Y-76710000D01*
X161327322Y-76710000D01*
X161289999Y-76706324D01*
X161252676Y-76710000D01*
X161252667Y-76710000D01*
X161141014Y-76720997D01*
X160997753Y-76764454D01*
X160865724Y-76835026D01*
X160865722Y-76835027D01*
X160865723Y-76835027D01*
X160778996Y-76906201D01*
X160778992Y-76906205D01*
X160749999Y-76929999D01*
X160726205Y-76958992D01*
X158988843Y-78696355D01*
X158881486Y-78675000D01*
X158618514Y-78675000D01*
X158360595Y-78726304D01*
X158117641Y-78826939D01*
X157898987Y-78973038D01*
X157713038Y-79158987D01*
X157566939Y-79377641D01*
X157466304Y-79620595D01*
X157415000Y-79878514D01*
X127660000Y-79878514D01*
X127660000Y-77335413D01*
X131124192Y-77335413D01*
X131219956Y-77599814D01*
X131509571Y-77740704D01*
X131821108Y-77822384D01*
X132142595Y-77841718D01*
X132461675Y-77797961D01*
X132766088Y-77692795D01*
X132940044Y-77599814D01*
X133035808Y-77335413D01*
X137624192Y-77335413D01*
X137719956Y-77599814D01*
X138009571Y-77740704D01*
X138321108Y-77822384D01*
X138642595Y-77841718D01*
X138961675Y-77797961D01*
X139266088Y-77692795D01*
X139440044Y-77599814D01*
X139535808Y-77335413D01*
X138580000Y-76379605D01*
X137624192Y-77335413D01*
X133035808Y-77335413D01*
X132080000Y-76379605D01*
X131124192Y-77335413D01*
X127660000Y-77335413D01*
X127660000Y-76262595D01*
X130438282Y-76262595D01*
X130482039Y-76581675D01*
X130587205Y-76886088D01*
X130680186Y-77060044D01*
X130944587Y-77155808D01*
X131900395Y-76200000D01*
X132259605Y-76200000D01*
X133215413Y-77155808D01*
X133479814Y-77060044D01*
X133620704Y-76770429D01*
X133702384Y-76458892D01*
X133714189Y-76262595D01*
X136938282Y-76262595D01*
X136982039Y-76581675D01*
X137087205Y-76886088D01*
X137180186Y-77060044D01*
X137444587Y-77155808D01*
X138400395Y-76200000D01*
X138759605Y-76200000D01*
X139715413Y-77155808D01*
X139979814Y-77060044D01*
X140120704Y-76770429D01*
X140176690Y-76556890D01*
X145878524Y-76556890D01*
X145923175Y-76704099D01*
X146048359Y-76966920D01*
X146222412Y-77200269D01*
X146438645Y-77395178D01*
X146688748Y-77544157D01*
X146963109Y-77641481D01*
X147193000Y-77520814D01*
X147193000Y-76327000D01*
X147447000Y-76327000D01*
X147447000Y-77520814D01*
X147676891Y-77641481D01*
X147951252Y-77544157D01*
X148201355Y-77395178D01*
X148417588Y-77200269D01*
X148590000Y-76969120D01*
X148762412Y-77200269D01*
X148978645Y-77395178D01*
X149228748Y-77544157D01*
X149503109Y-77641481D01*
X149733000Y-77520814D01*
X149733000Y-76327000D01*
X149987000Y-76327000D01*
X149987000Y-77520814D01*
X150216891Y-77641481D01*
X150491252Y-77544157D01*
X150741355Y-77395178D01*
X150957588Y-77200269D01*
X151131641Y-76966920D01*
X151256825Y-76704099D01*
X151301476Y-76556890D01*
X151180155Y-76327000D01*
X149987000Y-76327000D01*
X149733000Y-76327000D01*
X147447000Y-76327000D01*
X147193000Y-76327000D01*
X145999845Y-76327000D01*
X145878524Y-76556890D01*
X140176690Y-76556890D01*
X140202384Y-76458892D01*
X140221718Y-76137405D01*
X140177961Y-75818325D01*
X140072795Y-75513912D01*
X139979814Y-75339956D01*
X139715413Y-75244192D01*
X138759605Y-76200000D01*
X138400395Y-76200000D01*
X137444587Y-75244192D01*
X137180186Y-75339956D01*
X137039296Y-75629571D01*
X136957616Y-75941108D01*
X136938282Y-76262595D01*
X133714189Y-76262595D01*
X133721718Y-76137405D01*
X133677961Y-75818325D01*
X133572795Y-75513912D01*
X133479814Y-75339956D01*
X133215413Y-75244192D01*
X132259605Y-76200000D01*
X131900395Y-76200000D01*
X130944587Y-75244192D01*
X130680186Y-75339956D01*
X130539296Y-75629571D01*
X130457616Y-75941108D01*
X130438282Y-76262595D01*
X127660000Y-76262595D01*
X127660000Y-75064587D01*
X131124192Y-75064587D01*
X132080000Y-76020395D01*
X133035808Y-75064587D01*
X137624192Y-75064587D01*
X138580000Y-76020395D01*
X139535808Y-75064587D01*
X139440044Y-74800186D01*
X139150429Y-74659296D01*
X138838892Y-74577616D01*
X138517405Y-74558282D01*
X138198325Y-74602039D01*
X137893912Y-74707205D01*
X137719956Y-74800186D01*
X137624192Y-75064587D01*
X133035808Y-75064587D01*
X132940044Y-74800186D01*
X132650429Y-74659296D01*
X132338892Y-74577616D01*
X132017405Y-74558282D01*
X131698325Y-74602039D01*
X131393912Y-74707205D01*
X131219956Y-74800186D01*
X131124192Y-75064587D01*
X127660000Y-75064587D01*
X127660000Y-71538967D01*
X130445000Y-71538967D01*
X130445000Y-71861033D01*
X130507832Y-72176912D01*
X130631082Y-72474463D01*
X130810013Y-72742252D01*
X131037748Y-72969987D01*
X131305537Y-73148918D01*
X131603088Y-73272168D01*
X131918967Y-73335000D01*
X132241033Y-73335000D01*
X132556912Y-73272168D01*
X132854463Y-73148918D01*
X133122252Y-72969987D01*
X133349987Y-72742252D01*
X133528918Y-72474463D01*
X133652168Y-72176912D01*
X133715000Y-71861033D01*
X133715000Y-71538967D01*
X136945000Y-71538967D01*
X136945000Y-71861033D01*
X137007832Y-72176912D01*
X137131082Y-72474463D01*
X137310013Y-72742252D01*
X137537748Y-72969987D01*
X137805537Y-73148918D01*
X138103088Y-73272168D01*
X138418967Y-73335000D01*
X138741033Y-73335000D01*
X139056912Y-73272168D01*
X139354463Y-73148918D01*
X139622252Y-72969987D01*
X139849987Y-72742252D01*
X140028918Y-72474463D01*
X140152168Y-72176912D01*
X140215000Y-71861033D01*
X140215000Y-71538967D01*
X140152168Y-71223088D01*
X140028918Y-70925537D01*
X139849987Y-70657748D01*
X139622252Y-70430013D01*
X139382776Y-70270000D01*
X145831928Y-70270000D01*
X145831928Y-71970000D01*
X145844188Y-72094482D01*
X145880498Y-72214180D01*
X145939463Y-72324494D01*
X146018815Y-72421185D01*
X146115506Y-72500537D01*
X146225820Y-72559502D01*
X146298380Y-72581513D01*
X146166525Y-72713368D01*
X146004010Y-72956589D01*
X145892068Y-73226842D01*
X145835000Y-73513740D01*
X145835000Y-73806260D01*
X145892068Y-74093158D01*
X146004010Y-74363411D01*
X146166525Y-74606632D01*
X146373368Y-74813475D01*
X146555534Y-74935195D01*
X146438645Y-75004822D01*
X146222412Y-75199731D01*
X146048359Y-75433080D01*
X145923175Y-75695901D01*
X145878524Y-75843110D01*
X145999845Y-76073000D01*
X147193000Y-76073000D01*
X147193000Y-76053000D01*
X147447000Y-76053000D01*
X147447000Y-76073000D01*
X149733000Y-76073000D01*
X149733000Y-76053000D01*
X149987000Y-76053000D01*
X149987000Y-76073000D01*
X151180155Y-76073000D01*
X151301476Y-75843110D01*
X151256825Y-75695901D01*
X151131641Y-75433080D01*
X150957588Y-75199731D01*
X150741355Y-75004822D01*
X150624466Y-74935195D01*
X150806632Y-74813475D01*
X151013475Y-74606632D01*
X151175990Y-74363411D01*
X151287932Y-74093158D01*
X151345000Y-73806260D01*
X151345000Y-73513740D01*
X151287932Y-73226842D01*
X151175990Y-72956589D01*
X151013475Y-72713368D01*
X150806632Y-72506525D01*
X150632240Y-72390000D01*
X150806632Y-72273475D01*
X150821593Y-72258514D01*
X157415000Y-72258514D01*
X157415000Y-72521486D01*
X157466304Y-72779405D01*
X157566939Y-73022359D01*
X157713038Y-73241013D01*
X157898987Y-73426962D01*
X158117641Y-73573061D01*
X158360595Y-73673696D01*
X158618514Y-73725000D01*
X158881486Y-73725000D01*
X159139405Y-73673696D01*
X159382359Y-73573061D01*
X159601013Y-73426962D01*
X159786962Y-73241013D01*
X159933061Y-73022359D01*
X160033696Y-72779405D01*
X160085000Y-72521486D01*
X160085000Y-72258514D01*
X160033696Y-72000595D01*
X159933061Y-71757641D01*
X159786962Y-71538987D01*
X159601013Y-71353038D01*
X159382359Y-71206939D01*
X159139405Y-71106304D01*
X158881486Y-71055000D01*
X158618514Y-71055000D01*
X158360595Y-71106304D01*
X158117641Y-71206939D01*
X157898987Y-71353038D01*
X157713038Y-71538987D01*
X157566939Y-71757641D01*
X157466304Y-72000595D01*
X157415000Y-72258514D01*
X150821593Y-72258514D01*
X151013475Y-72066632D01*
X151175990Y-71823411D01*
X151287932Y-71553158D01*
X151345000Y-71266260D01*
X151345000Y-70973740D01*
X151287932Y-70686842D01*
X151175990Y-70416589D01*
X151013475Y-70173368D01*
X150806632Y-69966525D01*
X150563411Y-69804010D01*
X150293158Y-69692068D01*
X150006260Y-69635000D01*
X149713740Y-69635000D01*
X149426842Y-69692068D01*
X149156589Y-69804010D01*
X148913368Y-69966525D01*
X148781513Y-70098380D01*
X148759502Y-70025820D01*
X148700537Y-69915506D01*
X148621185Y-69818815D01*
X148524494Y-69739463D01*
X148414180Y-69680498D01*
X148294482Y-69644188D01*
X148170000Y-69631928D01*
X146470000Y-69631928D01*
X146345518Y-69644188D01*
X146225820Y-69680498D01*
X146115506Y-69739463D01*
X146018815Y-69818815D01*
X145939463Y-69915506D01*
X145880498Y-70025820D01*
X145844188Y-70145518D01*
X145831928Y-70270000D01*
X139382776Y-70270000D01*
X139354463Y-70251082D01*
X139056912Y-70127832D01*
X138741033Y-70065000D01*
X138418967Y-70065000D01*
X138103088Y-70127832D01*
X137805537Y-70251082D01*
X137537748Y-70430013D01*
X137310013Y-70657748D01*
X137131082Y-70925537D01*
X137007832Y-71223088D01*
X136945000Y-71538967D01*
X133715000Y-71538967D01*
X133652168Y-71223088D01*
X133528918Y-70925537D01*
X133349987Y-70657748D01*
X133122252Y-70430013D01*
X132854463Y-70251082D01*
X132556912Y-70127832D01*
X132241033Y-70065000D01*
X131918967Y-70065000D01*
X131603088Y-70127832D01*
X131305537Y-70251082D01*
X131037748Y-70430013D01*
X130810013Y-70657748D01*
X130631082Y-70925537D01*
X130507832Y-71223088D01*
X130445000Y-71538967D01*
X127660000Y-71538967D01*
X127660000Y-67470881D01*
X128288724Y-67470881D01*
X128648912Y-67960548D01*
X129312882Y-68320849D01*
X130034385Y-68544694D01*
X130785695Y-68623480D01*
X131537938Y-68554178D01*
X132262208Y-68339452D01*
X132930670Y-67987555D01*
X132971088Y-67960548D01*
X133000537Y-67920512D01*
X154769783Y-67920512D01*
X154811213Y-68200130D01*
X154906397Y-68466292D01*
X154971616Y-68588309D01*
X154958815Y-68598815D01*
X154879463Y-68695506D01*
X154820498Y-68805820D01*
X154784188Y-68925518D01*
X154771928Y-69050000D01*
X154771928Y-70650000D01*
X154784188Y-70774482D01*
X154820498Y-70894180D01*
X154879463Y-71004494D01*
X154958815Y-71101185D01*
X155055506Y-71180537D01*
X155165820Y-71239502D01*
X155285518Y-71275812D01*
X155410000Y-71288072D01*
X157010000Y-71288072D01*
X157134482Y-71275812D01*
X157254180Y-71239502D01*
X157364494Y-71180537D01*
X157461185Y-71101185D01*
X157540537Y-71004494D01*
X157599502Y-70894180D01*
X157635812Y-70774482D01*
X157648072Y-70650000D01*
X157648072Y-69050000D01*
X157635812Y-68925518D01*
X157599502Y-68805820D01*
X157540537Y-68695506D01*
X157461185Y-68598815D01*
X157448242Y-68588193D01*
X157567571Y-68336004D01*
X157636300Y-68061816D01*
X157650217Y-67779488D01*
X157608787Y-67499870D01*
X157513603Y-67233708D01*
X157446671Y-67108486D01*
X157202702Y-67036903D01*
X156389605Y-67850000D01*
X156403748Y-67864143D01*
X156224143Y-68043748D01*
X156210000Y-68029605D01*
X156195858Y-68043748D01*
X156016253Y-67864143D01*
X156030395Y-67850000D01*
X155217298Y-67036903D01*
X154973329Y-67108486D01*
X154852429Y-67363996D01*
X154783700Y-67638184D01*
X154769783Y-67920512D01*
X133000537Y-67920512D01*
X133331276Y-67470881D01*
X130810000Y-64949605D01*
X128288724Y-67470881D01*
X127660000Y-67470881D01*
X127660000Y-66960914D01*
X128109119Y-67291276D01*
X130630395Y-64770000D01*
X130989605Y-64770000D01*
X133510881Y-67291276D01*
X134000548Y-66931088D01*
X134040589Y-66857298D01*
X155396903Y-66857298D01*
X156210000Y-67670395D01*
X157023097Y-66857298D01*
X156951514Y-66613329D01*
X156696004Y-66492429D01*
X156421816Y-66423700D01*
X156139488Y-66409783D01*
X155859870Y-66451213D01*
X155593708Y-66546397D01*
X155468486Y-66613329D01*
X155396903Y-66857298D01*
X134040589Y-66857298D01*
X134360849Y-66267118D01*
X134584694Y-65545615D01*
X134663480Y-64794305D01*
X134645498Y-64599117D01*
X174875000Y-64599117D01*
X174875000Y-64940883D01*
X174941675Y-65276081D01*
X175072463Y-65591831D01*
X175262337Y-65875998D01*
X175504002Y-66117663D01*
X175788169Y-66307537D01*
X176103919Y-66438325D01*
X176439117Y-66505000D01*
X176780883Y-66505000D01*
X176982589Y-66464878D01*
X177500001Y-66982290D01*
X177500000Y-79800299D01*
X177460518Y-79804188D01*
X177340820Y-79840498D01*
X177230506Y-79899463D01*
X177133815Y-79978815D01*
X177054463Y-80075506D01*
X176995498Y-80185820D01*
X176959188Y-80305518D01*
X176946928Y-80430000D01*
X176946928Y-82130000D01*
X176959188Y-82254482D01*
X176995498Y-82374180D01*
X177054463Y-82484494D01*
X177133815Y-82581185D01*
X177230506Y-82660537D01*
X177340820Y-82719502D01*
X177413380Y-82741513D01*
X177281525Y-82873368D01*
X177119010Y-83116589D01*
X177007068Y-83386842D01*
X176950000Y-83673740D01*
X176950000Y-83966260D01*
X177007068Y-84253158D01*
X177119010Y-84523411D01*
X177281525Y-84766632D01*
X177488368Y-84973475D01*
X177731589Y-85135990D01*
X178001842Y-85247932D01*
X178288740Y-85305000D01*
X178581260Y-85305000D01*
X178868158Y-85247932D01*
X179138411Y-85135990D01*
X179381632Y-84973475D01*
X179588475Y-84766632D01*
X179705000Y-84592240D01*
X179821525Y-84766632D01*
X180028368Y-84973475D01*
X180271589Y-85135990D01*
X180541842Y-85247932D01*
X180828740Y-85305000D01*
X181121260Y-85305000D01*
X181408158Y-85247932D01*
X181678411Y-85135990D01*
X181921632Y-84973475D01*
X182128475Y-84766632D01*
X182290990Y-84523411D01*
X182402932Y-84253158D01*
X182460000Y-83966260D01*
X182460000Y-83673740D01*
X182402932Y-83386842D01*
X182290990Y-83116589D01*
X182128475Y-82873368D01*
X181921632Y-82666525D01*
X181747240Y-82550000D01*
X181921632Y-82433475D01*
X182128475Y-82226632D01*
X182290990Y-81983411D01*
X182402932Y-81713158D01*
X182460000Y-81426260D01*
X182460000Y-81133740D01*
X182402932Y-80846842D01*
X182290990Y-80576589D01*
X182128475Y-80333368D01*
X181921632Y-80126525D01*
X181678411Y-79964010D01*
X181408158Y-79852068D01*
X181121260Y-79795000D01*
X180828740Y-79795000D01*
X180541842Y-79852068D01*
X180271589Y-79964010D01*
X180028368Y-80126525D01*
X179896513Y-80258380D01*
X179874502Y-80185820D01*
X179815537Y-80075506D01*
X179736185Y-79978815D01*
X179639494Y-79899463D01*
X179529180Y-79840498D01*
X179409482Y-79804188D01*
X179370000Y-79800299D01*
X179370000Y-71130000D01*
X202331928Y-71130000D01*
X202331928Y-74130000D01*
X202344188Y-74254482D01*
X202380498Y-74374180D01*
X202439463Y-74484494D01*
X202518815Y-74581185D01*
X202615506Y-74660537D01*
X202725820Y-74719502D01*
X202845518Y-74755812D01*
X202970000Y-74768072D01*
X205970000Y-74768072D01*
X206094482Y-74755812D01*
X206214180Y-74719502D01*
X206324494Y-74660537D01*
X206421185Y-74581185D01*
X206500537Y-74484494D01*
X206559502Y-74374180D01*
X206595812Y-74254482D01*
X206608072Y-74130000D01*
X206608072Y-71130000D01*
X206595812Y-71005518D01*
X206559502Y-70885820D01*
X206500537Y-70775506D01*
X206421185Y-70678815D01*
X206324494Y-70599463D01*
X206214180Y-70540498D01*
X206094482Y-70504188D01*
X205970000Y-70491928D01*
X202970000Y-70491928D01*
X202845518Y-70504188D01*
X202725820Y-70540498D01*
X202615506Y-70599463D01*
X202518815Y-70678815D01*
X202439463Y-70775506D01*
X202380498Y-70885820D01*
X202344188Y-71005518D01*
X202331928Y-71130000D01*
X179370000Y-71130000D01*
X179370000Y-67470881D01*
X214648724Y-67470881D01*
X215008912Y-67960548D01*
X215672882Y-68320849D01*
X216394385Y-68544694D01*
X217145695Y-68623480D01*
X217897938Y-68554178D01*
X218622208Y-68339452D01*
X219290670Y-67987555D01*
X219331088Y-67960548D01*
X219691276Y-67470881D01*
X217170000Y-64949605D01*
X214648724Y-67470881D01*
X179370000Y-67470881D01*
X179370000Y-66640935D01*
X179374524Y-66595000D01*
X179356472Y-66411708D01*
X179312610Y-66267118D01*
X179303007Y-66235460D01*
X179216186Y-66073028D01*
X179099344Y-65930656D01*
X179063659Y-65901370D01*
X178304878Y-65142589D01*
X178345000Y-64940883D01*
X178345000Y-64599117D01*
X179875000Y-64599117D01*
X179875000Y-64940883D01*
X179941675Y-65276081D01*
X180072463Y-65591831D01*
X180262337Y-65875998D01*
X180504002Y-66117663D01*
X180788169Y-66307537D01*
X181103919Y-66438325D01*
X181439117Y-66505000D01*
X181780883Y-66505000D01*
X182116081Y-66438325D01*
X182431831Y-66307537D01*
X182715998Y-66117663D01*
X182957663Y-65875998D01*
X183147537Y-65591831D01*
X183278325Y-65276081D01*
X183345000Y-64940883D01*
X183345000Y-64599117D01*
X184875000Y-64599117D01*
X184875000Y-64940883D01*
X184941675Y-65276081D01*
X185072463Y-65591831D01*
X185262337Y-65875998D01*
X185504002Y-66117663D01*
X185788169Y-66307537D01*
X186103919Y-66438325D01*
X186439117Y-66505000D01*
X186780883Y-66505000D01*
X187116081Y-66438325D01*
X187431831Y-66307537D01*
X187715998Y-66117663D01*
X187957663Y-65875998D01*
X188147537Y-65591831D01*
X188278325Y-65276081D01*
X188345000Y-64940883D01*
X188345000Y-64745695D01*
X213316520Y-64745695D01*
X213385822Y-65497938D01*
X213600548Y-66222208D01*
X213952445Y-66890670D01*
X213979452Y-66931088D01*
X214469119Y-67291276D01*
X216990395Y-64770000D01*
X214469119Y-62248724D01*
X213979452Y-62608912D01*
X213619151Y-63272882D01*
X213395306Y-63994385D01*
X213316520Y-64745695D01*
X188345000Y-64745695D01*
X188345000Y-64599117D01*
X188278325Y-64263919D01*
X188147537Y-63948169D01*
X187957663Y-63664002D01*
X187715998Y-63422337D01*
X187431831Y-63232463D01*
X187116081Y-63101675D01*
X186780883Y-63035000D01*
X186439117Y-63035000D01*
X186103919Y-63101675D01*
X185788169Y-63232463D01*
X185504002Y-63422337D01*
X185262337Y-63664002D01*
X185072463Y-63948169D01*
X184941675Y-64263919D01*
X184875000Y-64599117D01*
X183345000Y-64599117D01*
X183278325Y-64263919D01*
X183147537Y-63948169D01*
X182957663Y-63664002D01*
X182715998Y-63422337D01*
X182431831Y-63232463D01*
X182116081Y-63101675D01*
X181780883Y-63035000D01*
X181439117Y-63035000D01*
X181103919Y-63101675D01*
X180788169Y-63232463D01*
X180504002Y-63422337D01*
X180262337Y-63664002D01*
X180072463Y-63948169D01*
X179941675Y-64263919D01*
X179875000Y-64599117D01*
X178345000Y-64599117D01*
X178278325Y-64263919D01*
X178147537Y-63948169D01*
X177957663Y-63664002D01*
X177715998Y-63422337D01*
X177431831Y-63232463D01*
X177116081Y-63101675D01*
X176780883Y-63035000D01*
X176439117Y-63035000D01*
X176103919Y-63101675D01*
X175788169Y-63232463D01*
X175504002Y-63422337D01*
X175262337Y-63664002D01*
X175072463Y-63948169D01*
X174941675Y-64263919D01*
X174875000Y-64599117D01*
X134645498Y-64599117D01*
X134594178Y-64042062D01*
X134379452Y-63317792D01*
X134027555Y-62649330D01*
X134000548Y-62608912D01*
X133510881Y-62248724D01*
X130989605Y-64770000D01*
X130630395Y-64770000D01*
X130616253Y-64755858D01*
X130795858Y-64576253D01*
X130810000Y-64590395D01*
X133331276Y-62069119D01*
X133000914Y-61620000D01*
X214979086Y-61620000D01*
X214648724Y-62069119D01*
G04 #@! TA.AperFunction,Conductor*
D31*
G36*
X214648724Y-62069119D02*
G01*
X217170000Y-64590395D01*
X217184143Y-64576253D01*
X217363748Y-64755858D01*
X217349605Y-64770000D01*
X219870881Y-67291276D01*
X220320000Y-66960914D01*
X220320001Y-120999087D01*
X219870881Y-120668724D01*
X217349605Y-123190000D01*
X217363748Y-123204143D01*
X217184143Y-123383748D01*
X217170000Y-123369605D01*
X214648724Y-125890881D01*
X214979086Y-126340000D01*
X133000914Y-126340000D01*
X133331276Y-125890881D01*
X130810000Y-123369605D01*
X130795858Y-123383748D01*
X130616253Y-123204143D01*
X130630395Y-123190000D01*
X130989605Y-123190000D01*
X133510881Y-125711276D01*
X134000548Y-125351088D01*
X134360849Y-124687118D01*
X134584694Y-123965615D01*
X134663480Y-123214305D01*
X134659002Y-123165695D01*
X213316520Y-123165695D01*
X213385822Y-123917938D01*
X213600548Y-124642208D01*
X213952445Y-125310670D01*
X213979452Y-125351088D01*
X214469119Y-125711276D01*
X216990395Y-123190000D01*
X214469119Y-120668724D01*
X213979452Y-121028912D01*
X213619151Y-121692882D01*
X213395306Y-122414385D01*
X213316520Y-123165695D01*
X134659002Y-123165695D01*
X134594178Y-122462062D01*
X134393571Y-121785413D01*
X198434192Y-121785413D01*
X198529956Y-122049814D01*
X198819571Y-122190704D01*
X199131108Y-122272384D01*
X199452595Y-122291718D01*
X199771675Y-122247961D01*
X200076088Y-122142795D01*
X200250044Y-122049814D01*
X200345808Y-121785413D01*
X199390000Y-120829605D01*
X198434192Y-121785413D01*
X134393571Y-121785413D01*
X134379452Y-121737792D01*
X134027555Y-121069330D01*
X134000548Y-121028912D01*
X133570523Y-120712595D01*
X197748282Y-120712595D01*
X197792039Y-121031675D01*
X197897205Y-121336088D01*
X197990186Y-121510044D01*
X198254587Y-121605808D01*
X199210395Y-120650000D01*
X199569605Y-120650000D01*
X200525413Y-121605808D01*
X200789814Y-121510044D01*
X200930704Y-121220429D01*
X201012384Y-120908892D01*
X201031718Y-120587405D01*
X200987961Y-120268325D01*
X200882795Y-119963912D01*
X200789814Y-119789956D01*
X200525413Y-119694192D01*
X199569605Y-120650000D01*
X199210395Y-120650000D01*
X198254587Y-119694192D01*
X197990186Y-119789956D01*
X197849296Y-120079571D01*
X197767616Y-120391108D01*
X197748282Y-120712595D01*
X133570523Y-120712595D01*
X133510881Y-120668724D01*
X130989605Y-123190000D01*
X130630395Y-123190000D01*
X128109119Y-120668724D01*
X127660000Y-120999086D01*
X127660000Y-120489119D01*
X128288724Y-120489119D01*
X130810000Y-123010395D01*
X133331276Y-120489119D01*
X132971088Y-119999452D01*
X132307118Y-119639151D01*
X131585615Y-119415306D01*
X130834305Y-119336520D01*
X130082062Y-119405822D01*
X129357792Y-119620548D01*
X128689330Y-119972445D01*
X128648912Y-119999452D01*
X128288724Y-120489119D01*
X127660000Y-120489119D01*
X127660000Y-116485098D01*
X162815000Y-116485098D01*
X162815000Y-116954902D01*
X162906654Y-117415679D01*
X163086440Y-117849721D01*
X163347450Y-118240349D01*
X163679651Y-118572550D01*
X164070279Y-118833560D01*
X164504321Y-119013346D01*
X164965098Y-119105000D01*
X165434902Y-119105000D01*
X165895679Y-119013346D01*
X166329721Y-118833560D01*
X166720349Y-118572550D01*
X167052550Y-118240349D01*
X167313560Y-117849721D01*
X167493346Y-117415679D01*
X167585000Y-116954902D01*
X167585000Y-116485098D01*
X167493346Y-116024321D01*
X167313560Y-115590279D01*
X167233192Y-115470000D01*
X190661928Y-115470000D01*
X190661928Y-117470000D01*
X190674188Y-117594482D01*
X190710498Y-117714180D01*
X190769463Y-117824494D01*
X190848815Y-117921185D01*
X190945506Y-118000537D01*
X191055820Y-118059502D01*
X191175518Y-118095812D01*
X191300000Y-118108072D01*
X193300000Y-118108072D01*
X193424482Y-118095812D01*
X193544180Y-118059502D01*
X193654494Y-118000537D01*
X193751185Y-117921185D01*
X193830537Y-117824494D01*
X193889502Y-117714180D01*
X193925812Y-117594482D01*
X193938072Y-117470000D01*
X193938072Y-115470000D01*
X193925812Y-115345518D01*
X193889502Y-115225820D01*
X193830537Y-115115506D01*
X193751185Y-115018815D01*
X193654494Y-114939463D01*
X193544180Y-114880498D01*
X193424482Y-114844188D01*
X193300000Y-114831928D01*
X191300000Y-114831928D01*
X191175518Y-114844188D01*
X191055820Y-114880498D01*
X190945506Y-114939463D01*
X190848815Y-115018815D01*
X190769463Y-115115506D01*
X190710498Y-115225820D01*
X190674188Y-115345518D01*
X190661928Y-115470000D01*
X167233192Y-115470000D01*
X167052550Y-115199651D01*
X166720349Y-114867450D01*
X166329721Y-114606440D01*
X165895679Y-114426654D01*
X165434902Y-114335000D01*
X164965098Y-114335000D01*
X164504321Y-114426654D01*
X164070279Y-114606440D01*
X163679651Y-114867450D01*
X163347450Y-115199651D01*
X163086440Y-115590279D01*
X162906654Y-116024321D01*
X162815000Y-116485098D01*
X127660000Y-116485098D01*
X127660000Y-112868967D01*
X197755000Y-112868967D01*
X197755000Y-113191033D01*
X197817832Y-113506912D01*
X197941082Y-113804463D01*
X198120013Y-114072252D01*
X198347748Y-114299987D01*
X198347767Y-114300000D01*
X198347748Y-114300013D01*
X198120013Y-114527748D01*
X197941082Y-114795537D01*
X197817832Y-115093088D01*
X197755000Y-115408967D01*
X197755000Y-115731033D01*
X197817832Y-116046912D01*
X197941082Y-116344463D01*
X198120013Y-116612252D01*
X198347748Y-116839987D01*
X198347767Y-116840000D01*
X198347748Y-116840013D01*
X198120013Y-117067748D01*
X197941082Y-117335537D01*
X197817832Y-117633088D01*
X197755000Y-117948967D01*
X197755000Y-118271033D01*
X197817832Y-118586912D01*
X197941082Y-118884463D01*
X198120013Y-119152252D01*
X198347748Y-119379987D01*
X198456600Y-119452720D01*
X198434192Y-119514587D01*
X199390000Y-120470395D01*
X200345808Y-119514587D01*
X200323400Y-119452720D01*
X200432252Y-119379987D01*
X200563725Y-119248514D01*
X204405000Y-119248514D01*
X204405000Y-119511486D01*
X204456304Y-119769405D01*
X204556939Y-120012359D01*
X204703038Y-120231013D01*
X204888987Y-120416962D01*
X205107641Y-120563061D01*
X205350595Y-120663696D01*
X205608514Y-120715000D01*
X205871486Y-120715000D01*
X206129405Y-120663696D01*
X206372359Y-120563061D01*
X206591013Y-120416962D01*
X206776962Y-120231013D01*
X206923061Y-120012359D01*
X207023696Y-119769405D01*
X207075000Y-119511486D01*
X207075000Y-119248514D01*
X207074021Y-119243589D01*
X209435000Y-119243589D01*
X209435000Y-119516411D01*
X209488225Y-119783989D01*
X209592629Y-120036043D01*
X209744201Y-120262886D01*
X209937114Y-120455799D01*
X210163957Y-120607371D01*
X210416011Y-120711775D01*
X210683589Y-120765000D01*
X210956411Y-120765000D01*
X211223989Y-120711775D01*
X211476043Y-120607371D01*
X211653019Y-120489119D01*
X214648724Y-120489119D01*
X217170000Y-123010395D01*
X219691276Y-120489119D01*
X219331088Y-119999452D01*
X218667118Y-119639151D01*
X217945615Y-119415306D01*
X217194305Y-119336520D01*
X216442062Y-119405822D01*
X215717792Y-119620548D01*
X215049330Y-119972445D01*
X215008912Y-119999452D01*
X214648724Y-120489119D01*
X211653019Y-120489119D01*
X211702886Y-120455799D01*
X211895799Y-120262886D01*
X212047371Y-120036043D01*
X212151775Y-119783989D01*
X212205000Y-119516411D01*
X212205000Y-119243589D01*
X212151775Y-118976011D01*
X212047371Y-118723957D01*
X211895799Y-118497114D01*
X211702886Y-118304201D01*
X211476043Y-118152629D01*
X211376721Y-118111489D01*
X211418832Y-118096277D01*
X211531863Y-118035860D01*
X211597388Y-117796993D01*
X210820000Y-117019605D01*
X210042612Y-117796993D01*
X210108137Y-118035860D01*
X210266477Y-118110164D01*
X210163957Y-118152629D01*
X209937114Y-118304201D01*
X209744201Y-118497114D01*
X209592629Y-118723957D01*
X209488225Y-118976011D01*
X209435000Y-119243589D01*
X207074021Y-119243589D01*
X207023696Y-118990595D01*
X206923061Y-118747641D01*
X206776962Y-118528987D01*
X206591013Y-118343038D01*
X206372359Y-118196939D01*
X206129405Y-118096304D01*
X205871486Y-118045000D01*
X205608514Y-118045000D01*
X205350595Y-118096304D01*
X205107641Y-118196939D01*
X204888987Y-118343038D01*
X204703038Y-118528987D01*
X204556939Y-118747641D01*
X204456304Y-118990595D01*
X204405000Y-119248514D01*
X200563725Y-119248514D01*
X200659987Y-119152252D01*
X200733462Y-119042288D01*
X200843292Y-119031471D01*
X201019540Y-118978007D01*
X201181972Y-118891186D01*
X201324344Y-118774344D01*
X201353630Y-118738659D01*
X202558664Y-117533626D01*
X202594344Y-117504344D01*
X202711186Y-117361972D01*
X202798007Y-117199540D01*
X202835253Y-117076757D01*
X202851471Y-117023293D01*
X202862384Y-116912492D01*
X209430188Y-116912492D01*
X209471035Y-117182238D01*
X209563723Y-117438832D01*
X209624140Y-117551863D01*
X209863007Y-117617388D01*
X210640395Y-116840000D01*
X210999605Y-116840000D01*
X211776993Y-117617388D01*
X212015860Y-117551863D01*
X212131760Y-117304884D01*
X212197250Y-117040040D01*
X212209812Y-116767508D01*
X212168965Y-116497762D01*
X212076277Y-116241168D01*
X212015860Y-116128137D01*
X211776993Y-116062612D01*
X210999605Y-116840000D01*
X210640395Y-116840000D01*
X209863007Y-116062612D01*
X209624140Y-116128137D01*
X209508240Y-116375116D01*
X209442750Y-116639960D01*
X209430188Y-116912492D01*
X202862384Y-116912492D01*
X202869524Y-116840001D01*
X202865000Y-116794069D01*
X202865000Y-113550000D01*
X209431928Y-113550000D01*
X209431928Y-115050000D01*
X209444188Y-115174482D01*
X209480498Y-115294180D01*
X209539463Y-115404494D01*
X209618815Y-115501185D01*
X209715506Y-115580537D01*
X209825820Y-115639502D01*
X209945518Y-115675812D01*
X210070000Y-115688072D01*
X210096086Y-115688072D01*
X210042612Y-115883007D01*
X210820000Y-116660395D01*
X211597388Y-115883007D01*
X211543914Y-115688072D01*
X211570000Y-115688072D01*
X211694482Y-115675812D01*
X211814180Y-115639502D01*
X211924494Y-115580537D01*
X212021185Y-115501185D01*
X212100537Y-115404494D01*
X212159502Y-115294180D01*
X212195812Y-115174482D01*
X212208072Y-115050000D01*
X212208072Y-113550000D01*
X212195812Y-113425518D01*
X212159502Y-113305820D01*
X212100537Y-113195506D01*
X212021185Y-113098815D01*
X211924494Y-113019463D01*
X211814180Y-112960498D01*
X211694482Y-112924188D01*
X211570000Y-112911928D01*
X210070000Y-112911928D01*
X209945518Y-112924188D01*
X209825820Y-112960498D01*
X209715506Y-113019463D01*
X209618815Y-113098815D01*
X209539463Y-113195506D01*
X209480498Y-113305820D01*
X209444188Y-113425518D01*
X209431928Y-113550000D01*
X202865000Y-113550000D01*
X202865000Y-111628514D01*
X204405000Y-111628514D01*
X204405000Y-111891486D01*
X204456304Y-112149405D01*
X204556939Y-112392359D01*
X204703038Y-112611013D01*
X204888987Y-112796962D01*
X205107641Y-112943061D01*
X205350595Y-113043696D01*
X205608514Y-113095000D01*
X205871486Y-113095000D01*
X206129405Y-113043696D01*
X206372359Y-112943061D01*
X206591013Y-112796962D01*
X206776962Y-112611013D01*
X206923061Y-112392359D01*
X207023696Y-112149405D01*
X207075000Y-111891486D01*
X207075000Y-111628514D01*
X207023696Y-111370595D01*
X206923061Y-111127641D01*
X206776962Y-110908987D01*
X206591013Y-110723038D01*
X206372359Y-110576939D01*
X206129405Y-110476304D01*
X205871486Y-110425000D01*
X205608514Y-110425000D01*
X205350595Y-110476304D01*
X205107641Y-110576939D01*
X204888987Y-110723038D01*
X204703038Y-110908987D01*
X204556939Y-111127641D01*
X204456304Y-111370595D01*
X204405000Y-111628514D01*
X202865000Y-111628514D01*
X202865000Y-109078665D01*
X206845000Y-109078665D01*
X206845000Y-109361335D01*
X206900147Y-109638574D01*
X207008320Y-109899727D01*
X207165363Y-110134759D01*
X207365241Y-110334637D01*
X207600273Y-110491680D01*
X207861426Y-110599853D01*
X208138665Y-110655000D01*
X208421335Y-110655000D01*
X208698574Y-110599853D01*
X208959727Y-110491680D01*
X209194759Y-110334637D01*
X209394637Y-110134759D01*
X209551680Y-109899727D01*
X209659853Y-109638574D01*
X209715000Y-109361335D01*
X209715000Y-109078665D01*
X209659853Y-108801426D01*
X209551680Y-108540273D01*
X209394637Y-108305241D01*
X209194759Y-108105363D01*
X208959727Y-107948320D01*
X208698574Y-107840147D01*
X208421335Y-107785000D01*
X208138665Y-107785000D01*
X207861426Y-107840147D01*
X207600273Y-107948320D01*
X207365241Y-108105363D01*
X207165363Y-108305241D01*
X207008320Y-108540273D01*
X206900147Y-108801426D01*
X206845000Y-109078665D01*
X202865000Y-109078665D01*
X202865000Y-106469721D01*
X213765000Y-106469721D01*
X213765000Y-106890279D01*
X213847047Y-107302756D01*
X214007988Y-107691302D01*
X214241637Y-108040983D01*
X214539017Y-108338363D01*
X214888698Y-108572012D01*
X215277244Y-108732953D01*
X215689721Y-108815000D01*
X216110279Y-108815000D01*
X216522756Y-108732953D01*
X216911302Y-108572012D01*
X217260983Y-108338363D01*
X217558363Y-108040983D01*
X217792012Y-107691302D01*
X217952953Y-107302756D01*
X218035000Y-106890279D01*
X218035000Y-106469721D01*
X217952953Y-106057244D01*
X217792012Y-105668698D01*
X217558363Y-105319017D01*
X217260983Y-105021637D01*
X216911302Y-104787988D01*
X216522756Y-104627047D01*
X216110279Y-104545000D01*
X215689721Y-104545000D01*
X215277244Y-104627047D01*
X214888698Y-104787988D01*
X214539017Y-105021637D01*
X214241637Y-105319017D01*
X214007988Y-105668698D01*
X213847047Y-106057244D01*
X213765000Y-106469721D01*
X202865000Y-106469721D01*
X202865000Y-103022621D01*
X202974180Y-102989502D01*
X203084494Y-102930537D01*
X203181185Y-102851185D01*
X203260537Y-102754494D01*
X203319502Y-102644180D01*
X203355812Y-102524482D01*
X203368072Y-102400000D01*
X203368072Y-100800000D01*
X206841928Y-100800000D01*
X206841928Y-102400000D01*
X206854188Y-102524482D01*
X206890498Y-102644180D01*
X206949463Y-102754494D01*
X207028815Y-102851185D01*
X207125506Y-102930537D01*
X207235820Y-102989502D01*
X207355518Y-103025812D01*
X207480000Y-103038072D01*
X209080000Y-103038072D01*
X209204482Y-103025812D01*
X209324180Y-102989502D01*
X209434494Y-102930537D01*
X209531185Y-102851185D01*
X209610537Y-102754494D01*
X209669502Y-102644180D01*
X209705812Y-102524482D01*
X209718072Y-102400000D01*
X209718072Y-100800000D01*
X209705812Y-100675518D01*
X209669502Y-100555820D01*
X209610537Y-100445506D01*
X209531185Y-100348815D01*
X209434494Y-100269463D01*
X209324180Y-100210498D01*
X209204482Y-100174188D01*
X209080000Y-100161928D01*
X207480000Y-100161928D01*
X207355518Y-100174188D01*
X207235820Y-100210498D01*
X207125506Y-100269463D01*
X207028815Y-100348815D01*
X206949463Y-100445506D01*
X206890498Y-100555820D01*
X206854188Y-100675518D01*
X206841928Y-100800000D01*
X203368072Y-100800000D01*
X203355812Y-100675518D01*
X203319502Y-100555820D01*
X203260537Y-100445506D01*
X203181185Y-100348815D01*
X203084494Y-100269463D01*
X202974180Y-100210498D01*
X202854482Y-100174188D01*
X202730000Y-100161928D01*
X202722785Y-100161928D01*
X202740955Y-100100000D01*
X213761928Y-100100000D01*
X213761928Y-103100000D01*
X213774188Y-103224482D01*
X213810498Y-103344180D01*
X213869463Y-103454494D01*
X213948815Y-103551185D01*
X214045506Y-103630537D01*
X214155820Y-103689502D01*
X214275518Y-103725812D01*
X214400000Y-103738072D01*
X217400000Y-103738072D01*
X217524482Y-103725812D01*
X217644180Y-103689502D01*
X217754494Y-103630537D01*
X217851185Y-103551185D01*
X217930537Y-103454494D01*
X217989502Y-103344180D01*
X218025812Y-103224482D01*
X218038072Y-103100000D01*
X218038072Y-100100000D01*
X218025812Y-99975518D01*
X217989502Y-99855820D01*
X217930537Y-99745506D01*
X217851185Y-99648815D01*
X217754494Y-99569463D01*
X217644180Y-99510498D01*
X217524482Y-99474188D01*
X217400000Y-99461928D01*
X214400000Y-99461928D01*
X214275518Y-99474188D01*
X214155820Y-99510498D01*
X214045506Y-99569463D01*
X213948815Y-99648815D01*
X213869463Y-99745506D01*
X213810498Y-99855820D01*
X213774188Y-99975518D01*
X213761928Y-100100000D01*
X202740955Y-100100000D01*
X202743097Y-100092702D01*
X201930000Y-99279605D01*
X201116903Y-100092702D01*
X201137215Y-100161928D01*
X201130000Y-100161928D01*
X201005518Y-100174188D01*
X200885820Y-100210498D01*
X200775506Y-100269463D01*
X200678815Y-100348815D01*
X200599463Y-100445506D01*
X200540498Y-100555820D01*
X200504188Y-100675518D01*
X200491928Y-100800000D01*
X200491928Y-102400000D01*
X200504188Y-102524482D01*
X200540498Y-102644180D01*
X200599463Y-102754494D01*
X200678815Y-102851185D01*
X200775506Y-102930537D01*
X200885820Y-102989502D01*
X200995000Y-103022621D01*
X200995001Y-110159658D01*
X200987961Y-110108325D01*
X200882795Y-109803912D01*
X200789814Y-109629956D01*
X200525413Y-109534192D01*
X199569605Y-110490000D01*
X200525413Y-111445808D01*
X200789814Y-111350044D01*
X200930704Y-111060429D01*
X200995001Y-110815194D01*
X200995001Y-112718150D01*
X200962168Y-112553088D01*
X200838918Y-112255537D01*
X200659987Y-111987748D01*
X200432252Y-111760013D01*
X200323400Y-111687280D01*
X200345808Y-111625413D01*
X199390000Y-110669605D01*
X198434192Y-111625413D01*
X198456600Y-111687280D01*
X198347748Y-111760013D01*
X198120013Y-111987748D01*
X197941082Y-112255537D01*
X197817832Y-112553088D01*
X197755000Y-112868967D01*
X127660000Y-112868967D01*
X127660000Y-110552595D01*
X197748282Y-110552595D01*
X197792039Y-110871675D01*
X197897205Y-111176088D01*
X197990186Y-111350044D01*
X198254587Y-111445808D01*
X199210395Y-110490000D01*
X198254587Y-109534192D01*
X197990186Y-109629956D01*
X197849296Y-109919571D01*
X197767616Y-110231108D01*
X197748282Y-110552595D01*
X127660000Y-110552595D01*
X127660000Y-109354587D01*
X198434192Y-109354587D01*
X199390000Y-110310395D01*
X200345808Y-109354587D01*
X200250044Y-109090186D01*
X199960429Y-108949296D01*
X199648892Y-108867616D01*
X199327405Y-108848282D01*
X199008325Y-108892039D01*
X198703912Y-108997205D01*
X198529956Y-109090186D01*
X198434192Y-109354587D01*
X127660000Y-109354587D01*
X127660000Y-101485098D01*
X162815000Y-101485098D01*
X162815000Y-101954902D01*
X162906654Y-102415679D01*
X163086440Y-102849721D01*
X163347450Y-103240349D01*
X163679651Y-103572550D01*
X164070279Y-103833560D01*
X164504321Y-104013346D01*
X164965098Y-104105000D01*
X165434902Y-104105000D01*
X165895679Y-104013346D01*
X166329721Y-103833560D01*
X166720349Y-103572550D01*
X167052550Y-103240349D01*
X167313560Y-102849721D01*
X167493346Y-102415679D01*
X167585000Y-101954902D01*
X167585000Y-101485098D01*
X167493346Y-101024321D01*
X167313560Y-100590279D01*
X167052550Y-100199651D01*
X166720349Y-99867450D01*
X166329721Y-99606440D01*
X165895679Y-99426654D01*
X165434902Y-99335000D01*
X164965098Y-99335000D01*
X164504321Y-99426654D01*
X164070279Y-99606440D01*
X163679651Y-99867450D01*
X163347450Y-100199651D01*
X163086440Y-100590279D01*
X162906654Y-101024321D01*
X162815000Y-101485098D01*
X127660000Y-101485098D01*
X127660000Y-79878514D01*
X157415000Y-79878514D01*
X157415000Y-80141486D01*
X157466304Y-80399405D01*
X157566939Y-80642359D01*
X157713038Y-80861013D01*
X157898987Y-81046962D01*
X158117641Y-81193061D01*
X158360595Y-81293696D01*
X158618514Y-81345000D01*
X158881486Y-81345000D01*
X159139405Y-81293696D01*
X159382359Y-81193061D01*
X159601013Y-81046962D01*
X159786962Y-80861013D01*
X159933061Y-80642359D01*
X160033696Y-80399405D01*
X160085000Y-80141486D01*
X160085000Y-79878514D01*
X160063645Y-79771157D01*
X161447703Y-78387099D01*
X161645241Y-78584637D01*
X161877759Y-78740000D01*
X161645241Y-78895363D01*
X161445363Y-79095241D01*
X161288320Y-79330273D01*
X161180147Y-79591426D01*
X161125000Y-79868665D01*
X161125000Y-80151335D01*
X161180147Y-80428574D01*
X161288320Y-80689727D01*
X161445363Y-80924759D01*
X161645241Y-81124637D01*
X161877759Y-81280000D01*
X161645241Y-81435363D01*
X161445363Y-81635241D01*
X161288320Y-81870273D01*
X161180147Y-82131426D01*
X161125000Y-82408665D01*
X161125000Y-82691335D01*
X161180147Y-82968574D01*
X161288320Y-83229727D01*
X161445363Y-83464759D01*
X161645241Y-83664637D01*
X161877759Y-83820000D01*
X161645241Y-83975363D01*
X161445363Y-84175241D01*
X161288320Y-84410273D01*
X161180147Y-84671426D01*
X161125000Y-84948665D01*
X161125000Y-85231335D01*
X161180147Y-85508574D01*
X161288320Y-85769727D01*
X161445363Y-86004759D01*
X161645241Y-86204637D01*
X161877759Y-86360000D01*
X161645241Y-86515363D01*
X161445363Y-86715241D01*
X161288320Y-86950273D01*
X161180147Y-87211426D01*
X161125000Y-87488665D01*
X161125000Y-87771335D01*
X161180147Y-88048574D01*
X161288320Y-88309727D01*
X161445363Y-88544759D01*
X161645241Y-88744637D01*
X161880273Y-88901680D01*
X162141426Y-89009853D01*
X162418665Y-89065000D01*
X162701335Y-89065000D01*
X162978574Y-89009853D01*
X163239727Y-88901680D01*
X163474759Y-88744637D01*
X163674637Y-88544759D01*
X163831680Y-88309727D01*
X163939853Y-88048574D01*
X163995000Y-87771335D01*
X163995000Y-87488665D01*
X163939853Y-87211426D01*
X163831680Y-86950273D01*
X163674637Y-86715241D01*
X163474759Y-86515363D01*
X163242241Y-86360000D01*
X163474759Y-86204637D01*
X163674637Y-86004759D01*
X163831680Y-85769727D01*
X163939853Y-85508574D01*
X163995000Y-85231335D01*
X163995000Y-84948665D01*
X163939853Y-84671426D01*
X163831680Y-84410273D01*
X163674637Y-84175241D01*
X163474759Y-83975363D01*
X163242241Y-83820000D01*
X163474759Y-83664637D01*
X163674637Y-83464759D01*
X163831680Y-83229727D01*
X163939853Y-82968574D01*
X163995000Y-82691335D01*
X163995000Y-82408665D01*
X163939853Y-82131426D01*
X163831680Y-81870273D01*
X163674637Y-81635241D01*
X163474759Y-81435363D01*
X163242241Y-81280000D01*
X163474759Y-81124637D01*
X163674637Y-80924759D01*
X163831680Y-80689727D01*
X163939853Y-80428574D01*
X163995000Y-80151335D01*
X163995000Y-79868665D01*
X163939853Y-79591426D01*
X163831680Y-79330273D01*
X163674637Y-79095241D01*
X163474759Y-78895363D01*
X163242241Y-78740000D01*
X163474759Y-78584637D01*
X163674637Y-78384759D01*
X163831680Y-78149727D01*
X163939853Y-77888574D01*
X163995000Y-77611335D01*
X163995000Y-77328665D01*
X163939853Y-77051426D01*
X163831680Y-76790273D01*
X163674637Y-76555241D01*
X163474759Y-76355363D01*
X163242241Y-76200000D01*
X163474759Y-76044637D01*
X163674637Y-75844759D01*
X163831680Y-75609727D01*
X163939853Y-75348574D01*
X163995000Y-75071335D01*
X163995000Y-74788665D01*
X163939853Y-74511426D01*
X163831680Y-74250273D01*
X163674637Y-74015241D01*
X163474759Y-73815363D01*
X163242241Y-73660000D01*
X165606324Y-73660000D01*
X165610001Y-73697333D01*
X165610000Y-93942678D01*
X165606324Y-93980000D01*
X165610000Y-94017322D01*
X165610000Y-94017332D01*
X165620997Y-94128985D01*
X165664454Y-94272246D01*
X165735026Y-94404276D01*
X165774871Y-94452826D01*
X165829999Y-94520001D01*
X165859003Y-94543804D01*
X171960001Y-100644803D01*
X171960000Y-107246289D01*
X171916063Y-107290226D01*
X171802795Y-107459744D01*
X171724774Y-107648102D01*
X171685000Y-107848061D01*
X171685000Y-108051939D01*
X171724774Y-108251898D01*
X171802795Y-108440256D01*
X171916063Y-108609774D01*
X172060226Y-108753937D01*
X172229744Y-108867205D01*
X172418102Y-108945226D01*
X172618061Y-108985000D01*
X172821939Y-108985000D01*
X173021898Y-108945226D01*
X173210256Y-108867205D01*
X173379774Y-108753937D01*
X173523937Y-108609774D01*
X173637205Y-108440256D01*
X173715226Y-108251898D01*
X173755000Y-108051939D01*
X173755000Y-107848061D01*
X173715226Y-107648102D01*
X173637205Y-107459744D01*
X173523937Y-107290226D01*
X173480000Y-107246289D01*
X173480000Y-103155413D01*
X191344192Y-103155413D01*
X191439956Y-103419814D01*
X191729571Y-103560704D01*
X192041108Y-103642384D01*
X192362595Y-103661718D01*
X192681675Y-103617961D01*
X192986088Y-103512795D01*
X193160044Y-103419814D01*
X193255808Y-103155413D01*
X192300000Y-102199605D01*
X191344192Y-103155413D01*
X173480000Y-103155413D01*
X173480000Y-102082595D01*
X190658282Y-102082595D01*
X190702039Y-102401675D01*
X190807205Y-102706088D01*
X190900186Y-102880044D01*
X191164587Y-102975808D01*
X192120395Y-102020000D01*
X192479605Y-102020000D01*
X193435413Y-102975808D01*
X193699814Y-102880044D01*
X193840704Y-102590429D01*
X193922384Y-102278892D01*
X193941718Y-101957405D01*
X193897961Y-101638325D01*
X193792795Y-101333912D01*
X193699814Y-101159956D01*
X193435413Y-101064192D01*
X192479605Y-102020000D01*
X192120395Y-102020000D01*
X191164587Y-101064192D01*
X190900186Y-101159956D01*
X190759296Y-101449571D01*
X190677616Y-101761108D01*
X190658282Y-102082595D01*
X173480000Y-102082595D01*
X173480000Y-100884587D01*
X191344192Y-100884587D01*
X192300000Y-101840395D01*
X193255808Y-100884587D01*
X193160044Y-100620186D01*
X192870429Y-100479296D01*
X192558892Y-100397616D01*
X192237405Y-100378282D01*
X191918325Y-100422039D01*
X191613912Y-100527205D01*
X191439956Y-100620186D01*
X191344192Y-100884587D01*
X173480000Y-100884587D01*
X173480000Y-100367322D01*
X173483676Y-100329999D01*
X173480000Y-100292676D01*
X173480000Y-100292667D01*
X173469003Y-100181014D01*
X173425546Y-100037753D01*
X173392280Y-99975518D01*
X173354974Y-99905723D01*
X173283799Y-99818997D01*
X173260001Y-99789999D01*
X173231003Y-99766201D01*
X172635314Y-99170512D01*
X200489783Y-99170512D01*
X200531213Y-99450130D01*
X200626397Y-99716292D01*
X200693329Y-99841514D01*
X200937298Y-99913097D01*
X201750395Y-99100000D01*
X202109605Y-99100000D01*
X202922702Y-99913097D01*
X203166671Y-99841514D01*
X203287571Y-99586004D01*
X203356300Y-99311816D01*
X203370217Y-99029488D01*
X203328787Y-98749870D01*
X203233603Y-98483708D01*
X203166671Y-98358486D01*
X202922702Y-98286903D01*
X202109605Y-99100000D01*
X201750395Y-99100000D01*
X200937298Y-98286903D01*
X200693329Y-98358486D01*
X200572429Y-98613996D01*
X200503700Y-98888184D01*
X200489783Y-99170512D01*
X172635314Y-99170512D01*
X171572100Y-98107298D01*
X201116903Y-98107298D01*
X201930000Y-98920395D01*
X202743097Y-98107298D01*
X202671514Y-97863329D01*
X202416004Y-97742429D01*
X202141816Y-97673700D01*
X201859488Y-97659783D01*
X201579870Y-97701213D01*
X201313708Y-97796397D01*
X201188486Y-97863329D01*
X201116903Y-98107298D01*
X171572100Y-98107298D01*
X167130000Y-93665199D01*
X167130000Y-87488665D01*
X168745000Y-87488665D01*
X168745000Y-87771335D01*
X168800147Y-88048574D01*
X168908320Y-88309727D01*
X169065363Y-88544759D01*
X169265241Y-88744637D01*
X169500273Y-88901680D01*
X169761426Y-89009853D01*
X170038665Y-89065000D01*
X170321335Y-89065000D01*
X170598574Y-89009853D01*
X170859727Y-88901680D01*
X171094759Y-88744637D01*
X171294637Y-88544759D01*
X171451680Y-88309727D01*
X171559853Y-88048574D01*
X171615000Y-87771335D01*
X171615000Y-87488665D01*
X171559853Y-87211426D01*
X171451680Y-86950273D01*
X171294637Y-86715241D01*
X171094759Y-86515363D01*
X170859727Y-86358320D01*
X170849135Y-86353933D01*
X171035131Y-86242385D01*
X171243519Y-86053414D01*
X171411037Y-85827420D01*
X171531246Y-85573087D01*
X171571904Y-85439039D01*
X171449915Y-85217000D01*
X170307000Y-85217000D01*
X170307000Y-85237000D01*
X170053000Y-85237000D01*
X170053000Y-85217000D01*
X168910085Y-85217000D01*
X168788096Y-85439039D01*
X168828754Y-85573087D01*
X168948963Y-85827420D01*
X169116481Y-86053414D01*
X169324869Y-86242385D01*
X169510865Y-86353933D01*
X169500273Y-86358320D01*
X169265241Y-86515363D01*
X169065363Y-86715241D01*
X168908320Y-86950273D01*
X168800147Y-87211426D01*
X168745000Y-87488665D01*
X167130000Y-87488665D01*
X167130000Y-77328665D01*
X168745000Y-77328665D01*
X168745000Y-77611335D01*
X168800147Y-77888574D01*
X168908320Y-78149727D01*
X169065363Y-78384759D01*
X169265241Y-78584637D01*
X169497759Y-78740000D01*
X169265241Y-78895363D01*
X169065363Y-79095241D01*
X168908320Y-79330273D01*
X168800147Y-79591426D01*
X168745000Y-79868665D01*
X168745000Y-80151335D01*
X168800147Y-80428574D01*
X168908320Y-80689727D01*
X169065363Y-80924759D01*
X169265241Y-81124637D01*
X169497759Y-81280000D01*
X169265241Y-81435363D01*
X169065363Y-81635241D01*
X168908320Y-81870273D01*
X168800147Y-82131426D01*
X168745000Y-82408665D01*
X168745000Y-82691335D01*
X168800147Y-82968574D01*
X168908320Y-83229727D01*
X169065363Y-83464759D01*
X169265241Y-83664637D01*
X169500273Y-83821680D01*
X169510865Y-83826067D01*
X169324869Y-83937615D01*
X169116481Y-84126586D01*
X168948963Y-84352580D01*
X168828754Y-84606913D01*
X168788096Y-84740961D01*
X168910085Y-84963000D01*
X170053000Y-84963000D01*
X170053000Y-84943000D01*
X170307000Y-84943000D01*
X170307000Y-84963000D01*
X171449915Y-84963000D01*
X171571904Y-84740961D01*
X171531246Y-84606913D01*
X171411037Y-84352580D01*
X171243519Y-84126586D01*
X171035131Y-83937615D01*
X170849135Y-83826067D01*
X170859727Y-83821680D01*
X171094759Y-83664637D01*
X171294637Y-83464759D01*
X171451680Y-83229727D01*
X171559853Y-82968574D01*
X171615000Y-82691335D01*
X171615000Y-82408665D01*
X171559853Y-82131426D01*
X171451680Y-81870273D01*
X171294637Y-81635241D01*
X171094759Y-81435363D01*
X170862241Y-81280000D01*
X171094759Y-81124637D01*
X171274396Y-80945000D01*
X173690001Y-80945000D01*
X173690000Y-95204068D01*
X173685476Y-95250000D01*
X173690000Y-95295931D01*
X173690000Y-95437705D01*
X173629774Y-95583102D01*
X173590000Y-95783061D01*
X173590000Y-95986939D01*
X173629774Y-96186898D01*
X173707795Y-96375256D01*
X173821063Y-96544774D01*
X173965226Y-96688937D01*
X174134744Y-96802205D01*
X174323102Y-96880226D01*
X174523061Y-96920000D01*
X174726939Y-96920000D01*
X174926898Y-96880226D01*
X175115256Y-96802205D01*
X175260000Y-96705490D01*
X175404744Y-96802205D01*
X175593102Y-96880226D01*
X175793061Y-96920000D01*
X175996939Y-96920000D01*
X176196898Y-96880226D01*
X176385256Y-96802205D01*
X176554774Y-96688937D01*
X176698937Y-96544774D01*
X176812205Y-96375256D01*
X176890226Y-96186898D01*
X176930000Y-95986939D01*
X176930000Y-95783061D01*
X176890226Y-95583102D01*
X176830000Y-95437705D01*
X176830000Y-95295931D01*
X176834524Y-95250000D01*
X176816471Y-95066708D01*
X176763007Y-94890460D01*
X176676186Y-94728028D01*
X176559344Y-94585656D01*
X176416972Y-94468814D01*
X176254540Y-94381993D01*
X176078292Y-94328529D01*
X175940932Y-94315000D01*
X175895000Y-94310476D01*
X175849068Y-94315000D01*
X175560000Y-94315000D01*
X175560000Y-87419721D01*
X202335000Y-87419721D01*
X202335000Y-87840279D01*
X202417047Y-88252756D01*
X202577988Y-88641302D01*
X202811637Y-88990983D01*
X203109017Y-89288363D01*
X203458698Y-89522012D01*
X203847244Y-89682953D01*
X204259721Y-89765000D01*
X204680279Y-89765000D01*
X205092756Y-89682953D01*
X205481302Y-89522012D01*
X205830983Y-89288363D01*
X206128363Y-88990983D01*
X206362012Y-88641302D01*
X206522953Y-88252756D01*
X206605000Y-87840279D01*
X206605000Y-87419721D01*
X206522953Y-87007244D01*
X206362012Y-86618698D01*
X206128363Y-86269017D01*
X205830983Y-85971637D01*
X205481302Y-85737988D01*
X205092756Y-85577047D01*
X204680279Y-85495000D01*
X204259721Y-85495000D01*
X203847244Y-85577047D01*
X203458698Y-85737988D01*
X203109017Y-85971637D01*
X202811637Y-86269017D01*
X202577988Y-86618698D01*
X202417047Y-87007244D01*
X202335000Y-87419721D01*
X175560000Y-87419721D01*
X175560000Y-80055931D01*
X175564524Y-80010000D01*
X175560000Y-79964068D01*
X175560000Y-76786381D01*
X175603505Y-76757312D01*
X175817312Y-76543505D01*
X175985299Y-76292095D01*
X176101011Y-76012743D01*
X176160000Y-75716184D01*
X176160000Y-75413816D01*
X176101011Y-75117257D01*
X175985299Y-74837905D01*
X175817312Y-74586495D01*
X175750873Y-74520056D01*
X175769180Y-74514502D01*
X175879494Y-74455537D01*
X175976185Y-74376185D01*
X176055537Y-74279494D01*
X176114502Y-74169180D01*
X176150812Y-74049482D01*
X176163072Y-73925000D01*
X176163072Y-72125000D01*
X176150812Y-72000518D01*
X176114502Y-71880820D01*
X176055537Y-71770506D01*
X175976185Y-71673815D01*
X175879494Y-71594463D01*
X175769180Y-71535498D01*
X175649482Y-71499188D01*
X175525000Y-71486928D01*
X173725000Y-71486928D01*
X173600518Y-71499188D01*
X173480820Y-71535498D01*
X173370506Y-71594463D01*
X173273815Y-71673815D01*
X173194463Y-71770506D01*
X173135498Y-71880820D01*
X173099188Y-72000518D01*
X173086928Y-72125000D01*
X173086928Y-73925000D01*
X173099188Y-74049482D01*
X173135498Y-74169180D01*
X173194463Y-74279494D01*
X173273815Y-74376185D01*
X173370506Y-74455537D01*
X173480820Y-74514502D01*
X173499127Y-74520056D01*
X173432688Y-74586495D01*
X173264701Y-74837905D01*
X173148989Y-75117257D01*
X173090000Y-75413816D01*
X173090000Y-75716184D01*
X173148989Y-76012743D01*
X173264701Y-76292095D01*
X173432688Y-76543505D01*
X173646495Y-76757312D01*
X173690001Y-76786382D01*
X173690000Y-79075000D01*
X171274396Y-79075000D01*
X171094759Y-78895363D01*
X170862241Y-78740000D01*
X171094759Y-78584637D01*
X171294637Y-78384759D01*
X171451680Y-78149727D01*
X171559853Y-77888574D01*
X171615000Y-77611335D01*
X171615000Y-77328665D01*
X171559853Y-77051426D01*
X171451680Y-76790273D01*
X171294637Y-76555241D01*
X171094759Y-76355363D01*
X170859727Y-76198320D01*
X170849135Y-76193933D01*
X171035131Y-76082385D01*
X171243519Y-75893414D01*
X171411037Y-75667420D01*
X171531246Y-75413087D01*
X171571904Y-75279039D01*
X171449915Y-75057000D01*
X170307000Y-75057000D01*
X170307000Y-75077000D01*
X170053000Y-75077000D01*
X170053000Y-75057000D01*
X168910085Y-75057000D01*
X168788096Y-75279039D01*
X168828754Y-75413087D01*
X168948963Y-75667420D01*
X169116481Y-75893414D01*
X169324869Y-76082385D01*
X169510865Y-76193933D01*
X169500273Y-76198320D01*
X169265241Y-76355363D01*
X169065363Y-76555241D01*
X168908320Y-76790273D01*
X168800147Y-77051426D01*
X168745000Y-77328665D01*
X167130000Y-77328665D01*
X167130000Y-73974801D01*
X167954802Y-73150000D01*
X168961957Y-73150000D01*
X169065363Y-73304759D01*
X169265241Y-73504637D01*
X169500273Y-73661680D01*
X169510865Y-73666067D01*
X169324869Y-73777615D01*
X169116481Y-73966586D01*
X168948963Y-74192580D01*
X168828754Y-74446913D01*
X168788096Y-74580961D01*
X168910085Y-74803000D01*
X170053000Y-74803000D01*
X170053000Y-74783000D01*
X170307000Y-74783000D01*
X170307000Y-74803000D01*
X171449915Y-74803000D01*
X171571904Y-74580961D01*
X171531246Y-74446913D01*
X171411037Y-74192580D01*
X171243519Y-73966586D01*
X171035131Y-73777615D01*
X170849135Y-73666067D01*
X170859727Y-73661680D01*
X171094759Y-73504637D01*
X171294637Y-73304759D01*
X171451680Y-73069727D01*
X171559853Y-72808574D01*
X171615000Y-72531335D01*
X171615000Y-72248665D01*
X171559853Y-71971426D01*
X171451680Y-71710273D01*
X171294637Y-71475241D01*
X171094759Y-71275363D01*
X170862241Y-71120000D01*
X171094759Y-70964637D01*
X171294637Y-70764759D01*
X171451680Y-70529727D01*
X171559853Y-70268574D01*
X171615000Y-69991335D01*
X171615000Y-69708665D01*
X171559853Y-69431426D01*
X171451680Y-69170273D01*
X171294637Y-68935241D01*
X171094759Y-68735363D01*
X170859727Y-68578320D01*
X170598574Y-68470147D01*
X170321335Y-68415000D01*
X170038665Y-68415000D01*
X169761426Y-68470147D01*
X169500273Y-68578320D01*
X169265241Y-68735363D01*
X169065363Y-68935241D01*
X168908320Y-69170273D01*
X168800147Y-69431426D01*
X168745000Y-69708665D01*
X168745000Y-69991335D01*
X168800147Y-70268574D01*
X168908320Y-70529727D01*
X169065363Y-70764759D01*
X169265241Y-70964637D01*
X169497759Y-71120000D01*
X169265241Y-71275363D01*
X169065363Y-71475241D01*
X168961957Y-71630000D01*
X167677322Y-71630000D01*
X167639999Y-71626324D01*
X167602676Y-71630000D01*
X167602667Y-71630000D01*
X167491014Y-71640997D01*
X167347753Y-71684454D01*
X167215724Y-71755026D01*
X167099999Y-71849999D01*
X167076201Y-71878997D01*
X165858998Y-73096201D01*
X165830000Y-73119999D01*
X165806202Y-73148997D01*
X165806201Y-73148998D01*
X165735026Y-73235724D01*
X165664454Y-73367754D01*
X165646494Y-73426962D01*
X165622933Y-73504637D01*
X165620998Y-73511015D01*
X165606324Y-73660000D01*
X163242241Y-73660000D01*
X163474759Y-73504637D01*
X163674637Y-73304759D01*
X163831680Y-73069727D01*
X163939853Y-72808574D01*
X163995000Y-72531335D01*
X163995000Y-72248665D01*
X163939853Y-71971426D01*
X163831680Y-71710273D01*
X163674637Y-71475241D01*
X163476039Y-71276643D01*
X163484482Y-71275812D01*
X163604180Y-71239502D01*
X163714494Y-71180537D01*
X163811185Y-71101185D01*
X163890537Y-71004494D01*
X163949502Y-70894180D01*
X163985812Y-70774482D01*
X163998072Y-70650000D01*
X163998072Y-69050000D01*
X163985812Y-68925518D01*
X163949502Y-68805820D01*
X163890537Y-68695506D01*
X163811185Y-68598815D01*
X163714494Y-68519463D01*
X163604180Y-68460498D01*
X163484482Y-68424188D01*
X163360000Y-68411928D01*
X161760000Y-68411928D01*
X161635518Y-68424188D01*
X161515820Y-68460498D01*
X161405506Y-68519463D01*
X161308815Y-68598815D01*
X161229463Y-68695506D01*
X161170498Y-68805820D01*
X161134188Y-68925518D01*
X161121928Y-69050000D01*
X161121928Y-70650000D01*
X161134188Y-70774482D01*
X161170498Y-70894180D01*
X161229463Y-71004494D01*
X161308815Y-71101185D01*
X161405506Y-71180537D01*
X161515820Y-71239502D01*
X161635518Y-71275812D01*
X161643961Y-71276643D01*
X161445363Y-71475241D01*
X161288320Y-71710273D01*
X161180147Y-71971426D01*
X161125000Y-72248665D01*
X161125000Y-72531335D01*
X161180147Y-72808574D01*
X161288320Y-73069727D01*
X161445363Y-73304759D01*
X161645241Y-73504637D01*
X161877759Y-73660000D01*
X161645241Y-73815363D01*
X161445363Y-74015241D01*
X161288320Y-74250273D01*
X161180147Y-74511426D01*
X161125000Y-74788665D01*
X161125000Y-75071335D01*
X161180147Y-75348574D01*
X161288320Y-75609727D01*
X161445363Y-75844759D01*
X161645241Y-76044637D01*
X161877759Y-76200000D01*
X161645241Y-76355363D01*
X161445363Y-76555241D01*
X161341957Y-76710000D01*
X161327322Y-76710000D01*
X161289999Y-76706324D01*
X161252676Y-76710000D01*
X161252667Y-76710000D01*
X161141014Y-76720997D01*
X160997753Y-76764454D01*
X160865724Y-76835026D01*
X160865722Y-76835027D01*
X160865723Y-76835027D01*
X160778996Y-76906201D01*
X160778992Y-76906205D01*
X160749999Y-76929999D01*
X160726205Y-76958992D01*
X158988843Y-78696355D01*
X158881486Y-78675000D01*
X158618514Y-78675000D01*
X158360595Y-78726304D01*
X158117641Y-78826939D01*
X157898987Y-78973038D01*
X157713038Y-79158987D01*
X157566939Y-79377641D01*
X157466304Y-79620595D01*
X157415000Y-79878514D01*
X127660000Y-79878514D01*
X127660000Y-77335413D01*
X131124192Y-77335413D01*
X131219956Y-77599814D01*
X131509571Y-77740704D01*
X131821108Y-77822384D01*
X132142595Y-77841718D01*
X132461675Y-77797961D01*
X132766088Y-77692795D01*
X132940044Y-77599814D01*
X133035808Y-77335413D01*
X137624192Y-77335413D01*
X137719956Y-77599814D01*
X138009571Y-77740704D01*
X138321108Y-77822384D01*
X138642595Y-77841718D01*
X138961675Y-77797961D01*
X139266088Y-77692795D01*
X139440044Y-77599814D01*
X139535808Y-77335413D01*
X138580000Y-76379605D01*
X137624192Y-77335413D01*
X133035808Y-77335413D01*
X132080000Y-76379605D01*
X131124192Y-77335413D01*
X127660000Y-77335413D01*
X127660000Y-76262595D01*
X130438282Y-76262595D01*
X130482039Y-76581675D01*
X130587205Y-76886088D01*
X130680186Y-77060044D01*
X130944587Y-77155808D01*
X131900395Y-76200000D01*
X132259605Y-76200000D01*
X133215413Y-77155808D01*
X133479814Y-77060044D01*
X133620704Y-76770429D01*
X133702384Y-76458892D01*
X133714189Y-76262595D01*
X136938282Y-76262595D01*
X136982039Y-76581675D01*
X137087205Y-76886088D01*
X137180186Y-77060044D01*
X137444587Y-77155808D01*
X138400395Y-76200000D01*
X138759605Y-76200000D01*
X139715413Y-77155808D01*
X139979814Y-77060044D01*
X140120704Y-76770429D01*
X140176690Y-76556890D01*
X145878524Y-76556890D01*
X145923175Y-76704099D01*
X146048359Y-76966920D01*
X146222412Y-77200269D01*
X146438645Y-77395178D01*
X146688748Y-77544157D01*
X146963109Y-77641481D01*
X147193000Y-77520814D01*
X147193000Y-76327000D01*
X147447000Y-76327000D01*
X147447000Y-77520814D01*
X147676891Y-77641481D01*
X147951252Y-77544157D01*
X148201355Y-77395178D01*
X148417588Y-77200269D01*
X148590000Y-76969120D01*
X148762412Y-77200269D01*
X148978645Y-77395178D01*
X149228748Y-77544157D01*
X149503109Y-77641481D01*
X149733000Y-77520814D01*
X149733000Y-76327000D01*
X149987000Y-76327000D01*
X149987000Y-77520814D01*
X150216891Y-77641481D01*
X150491252Y-77544157D01*
X150741355Y-77395178D01*
X150957588Y-77200269D01*
X151131641Y-76966920D01*
X151256825Y-76704099D01*
X151301476Y-76556890D01*
X151180155Y-76327000D01*
X149987000Y-76327000D01*
X149733000Y-76327000D01*
X147447000Y-76327000D01*
X147193000Y-76327000D01*
X145999845Y-76327000D01*
X145878524Y-76556890D01*
X140176690Y-76556890D01*
X140202384Y-76458892D01*
X140221718Y-76137405D01*
X140177961Y-75818325D01*
X140072795Y-75513912D01*
X139979814Y-75339956D01*
X139715413Y-75244192D01*
X138759605Y-76200000D01*
X138400395Y-76200000D01*
X137444587Y-75244192D01*
X137180186Y-75339956D01*
X137039296Y-75629571D01*
X136957616Y-75941108D01*
X136938282Y-76262595D01*
X133714189Y-76262595D01*
X133721718Y-76137405D01*
X133677961Y-75818325D01*
X133572795Y-75513912D01*
X133479814Y-75339956D01*
X133215413Y-75244192D01*
X132259605Y-76200000D01*
X131900395Y-76200000D01*
X130944587Y-75244192D01*
X130680186Y-75339956D01*
X130539296Y-75629571D01*
X130457616Y-75941108D01*
X130438282Y-76262595D01*
X127660000Y-76262595D01*
X127660000Y-75064587D01*
X131124192Y-75064587D01*
X132080000Y-76020395D01*
X133035808Y-75064587D01*
X137624192Y-75064587D01*
X138580000Y-76020395D01*
X139535808Y-75064587D01*
X139440044Y-74800186D01*
X139150429Y-74659296D01*
X138838892Y-74577616D01*
X138517405Y-74558282D01*
X138198325Y-74602039D01*
X137893912Y-74707205D01*
X137719956Y-74800186D01*
X137624192Y-75064587D01*
X133035808Y-75064587D01*
X132940044Y-74800186D01*
X132650429Y-74659296D01*
X132338892Y-74577616D01*
X132017405Y-74558282D01*
X131698325Y-74602039D01*
X131393912Y-74707205D01*
X131219956Y-74800186D01*
X131124192Y-75064587D01*
X127660000Y-75064587D01*
X127660000Y-71538967D01*
X130445000Y-71538967D01*
X130445000Y-71861033D01*
X130507832Y-72176912D01*
X130631082Y-72474463D01*
X130810013Y-72742252D01*
X131037748Y-72969987D01*
X131305537Y-73148918D01*
X131603088Y-73272168D01*
X131918967Y-73335000D01*
X132241033Y-73335000D01*
X132556912Y-73272168D01*
X132854463Y-73148918D01*
X133122252Y-72969987D01*
X133349987Y-72742252D01*
X133528918Y-72474463D01*
X133652168Y-72176912D01*
X133715000Y-71861033D01*
X133715000Y-71538967D01*
X136945000Y-71538967D01*
X136945000Y-71861033D01*
X137007832Y-72176912D01*
X137131082Y-72474463D01*
X137310013Y-72742252D01*
X137537748Y-72969987D01*
X137805537Y-73148918D01*
X138103088Y-73272168D01*
X138418967Y-73335000D01*
X138741033Y-73335000D01*
X139056912Y-73272168D01*
X139354463Y-73148918D01*
X139622252Y-72969987D01*
X139849987Y-72742252D01*
X140028918Y-72474463D01*
X140152168Y-72176912D01*
X140215000Y-71861033D01*
X140215000Y-71538967D01*
X140152168Y-71223088D01*
X140028918Y-70925537D01*
X139849987Y-70657748D01*
X139622252Y-70430013D01*
X139382776Y-70270000D01*
X145831928Y-70270000D01*
X145831928Y-71970000D01*
X145844188Y-72094482D01*
X145880498Y-72214180D01*
X145939463Y-72324494D01*
X146018815Y-72421185D01*
X146115506Y-72500537D01*
X146225820Y-72559502D01*
X146298380Y-72581513D01*
X146166525Y-72713368D01*
X146004010Y-72956589D01*
X145892068Y-73226842D01*
X145835000Y-73513740D01*
X145835000Y-73806260D01*
X145892068Y-74093158D01*
X146004010Y-74363411D01*
X146166525Y-74606632D01*
X146373368Y-74813475D01*
X146555534Y-74935195D01*
X146438645Y-75004822D01*
X146222412Y-75199731D01*
X146048359Y-75433080D01*
X145923175Y-75695901D01*
X145878524Y-75843110D01*
X145999845Y-76073000D01*
X147193000Y-76073000D01*
X147193000Y-76053000D01*
X147447000Y-76053000D01*
X147447000Y-76073000D01*
X149733000Y-76073000D01*
X149733000Y-76053000D01*
X149987000Y-76053000D01*
X149987000Y-76073000D01*
X151180155Y-76073000D01*
X151301476Y-75843110D01*
X151256825Y-75695901D01*
X151131641Y-75433080D01*
X150957588Y-75199731D01*
X150741355Y-75004822D01*
X150624466Y-74935195D01*
X150806632Y-74813475D01*
X151013475Y-74606632D01*
X151175990Y-74363411D01*
X151287932Y-74093158D01*
X151345000Y-73806260D01*
X151345000Y-73513740D01*
X151287932Y-73226842D01*
X151175990Y-72956589D01*
X151013475Y-72713368D01*
X150806632Y-72506525D01*
X150632240Y-72390000D01*
X150806632Y-72273475D01*
X150821593Y-72258514D01*
X157415000Y-72258514D01*
X157415000Y-72521486D01*
X157466304Y-72779405D01*
X157566939Y-73022359D01*
X157713038Y-73241013D01*
X157898987Y-73426962D01*
X158117641Y-73573061D01*
X158360595Y-73673696D01*
X158618514Y-73725000D01*
X158881486Y-73725000D01*
X159139405Y-73673696D01*
X159382359Y-73573061D01*
X159601013Y-73426962D01*
X159786962Y-73241013D01*
X159933061Y-73022359D01*
X160033696Y-72779405D01*
X160085000Y-72521486D01*
X160085000Y-72258514D01*
X160033696Y-72000595D01*
X159933061Y-71757641D01*
X159786962Y-71538987D01*
X159601013Y-71353038D01*
X159382359Y-71206939D01*
X159139405Y-71106304D01*
X158881486Y-71055000D01*
X158618514Y-71055000D01*
X158360595Y-71106304D01*
X158117641Y-71206939D01*
X157898987Y-71353038D01*
X157713038Y-71538987D01*
X157566939Y-71757641D01*
X157466304Y-72000595D01*
X157415000Y-72258514D01*
X150821593Y-72258514D01*
X151013475Y-72066632D01*
X151175990Y-71823411D01*
X151287932Y-71553158D01*
X151345000Y-71266260D01*
X151345000Y-70973740D01*
X151287932Y-70686842D01*
X151175990Y-70416589D01*
X151013475Y-70173368D01*
X150806632Y-69966525D01*
X150563411Y-69804010D01*
X150293158Y-69692068D01*
X150006260Y-69635000D01*
X149713740Y-69635000D01*
X149426842Y-69692068D01*
X149156589Y-69804010D01*
X148913368Y-69966525D01*
X148781513Y-70098380D01*
X148759502Y-70025820D01*
X148700537Y-69915506D01*
X148621185Y-69818815D01*
X148524494Y-69739463D01*
X148414180Y-69680498D01*
X148294482Y-69644188D01*
X148170000Y-69631928D01*
X146470000Y-69631928D01*
X146345518Y-69644188D01*
X146225820Y-69680498D01*
X146115506Y-69739463D01*
X146018815Y-69818815D01*
X145939463Y-69915506D01*
X145880498Y-70025820D01*
X145844188Y-70145518D01*
X145831928Y-70270000D01*
X139382776Y-70270000D01*
X139354463Y-70251082D01*
X139056912Y-70127832D01*
X138741033Y-70065000D01*
X138418967Y-70065000D01*
X138103088Y-70127832D01*
X137805537Y-70251082D01*
X137537748Y-70430013D01*
X137310013Y-70657748D01*
X137131082Y-70925537D01*
X137007832Y-71223088D01*
X136945000Y-71538967D01*
X133715000Y-71538967D01*
X133652168Y-71223088D01*
X133528918Y-70925537D01*
X133349987Y-70657748D01*
X133122252Y-70430013D01*
X132854463Y-70251082D01*
X132556912Y-70127832D01*
X132241033Y-70065000D01*
X131918967Y-70065000D01*
X131603088Y-70127832D01*
X131305537Y-70251082D01*
X131037748Y-70430013D01*
X130810013Y-70657748D01*
X130631082Y-70925537D01*
X130507832Y-71223088D01*
X130445000Y-71538967D01*
X127660000Y-71538967D01*
X127660000Y-67470881D01*
X128288724Y-67470881D01*
X128648912Y-67960548D01*
X129312882Y-68320849D01*
X130034385Y-68544694D01*
X130785695Y-68623480D01*
X131537938Y-68554178D01*
X132262208Y-68339452D01*
X132930670Y-67987555D01*
X132971088Y-67960548D01*
X133000537Y-67920512D01*
X154769783Y-67920512D01*
X154811213Y-68200130D01*
X154906397Y-68466292D01*
X154971616Y-68588309D01*
X154958815Y-68598815D01*
X154879463Y-68695506D01*
X154820498Y-68805820D01*
X154784188Y-68925518D01*
X154771928Y-69050000D01*
X154771928Y-70650000D01*
X154784188Y-70774482D01*
X154820498Y-70894180D01*
X154879463Y-71004494D01*
X154958815Y-71101185D01*
X155055506Y-71180537D01*
X155165820Y-71239502D01*
X155285518Y-71275812D01*
X155410000Y-71288072D01*
X157010000Y-71288072D01*
X157134482Y-71275812D01*
X157254180Y-71239502D01*
X157364494Y-71180537D01*
X157461185Y-71101185D01*
X157540537Y-71004494D01*
X157599502Y-70894180D01*
X157635812Y-70774482D01*
X157648072Y-70650000D01*
X157648072Y-69050000D01*
X157635812Y-68925518D01*
X157599502Y-68805820D01*
X157540537Y-68695506D01*
X157461185Y-68598815D01*
X157448242Y-68588193D01*
X157567571Y-68336004D01*
X157636300Y-68061816D01*
X157650217Y-67779488D01*
X157608787Y-67499870D01*
X157513603Y-67233708D01*
X157446671Y-67108486D01*
X157202702Y-67036903D01*
X156389605Y-67850000D01*
X156403748Y-67864143D01*
X156224143Y-68043748D01*
X156210000Y-68029605D01*
X156195858Y-68043748D01*
X156016253Y-67864143D01*
X156030395Y-67850000D01*
X155217298Y-67036903D01*
X154973329Y-67108486D01*
X154852429Y-67363996D01*
X154783700Y-67638184D01*
X154769783Y-67920512D01*
X133000537Y-67920512D01*
X133331276Y-67470881D01*
X130810000Y-64949605D01*
X128288724Y-67470881D01*
X127660000Y-67470881D01*
X127660000Y-66960914D01*
X128109119Y-67291276D01*
X130630395Y-64770000D01*
X130989605Y-64770000D01*
X133510881Y-67291276D01*
X134000548Y-66931088D01*
X134040589Y-66857298D01*
X155396903Y-66857298D01*
X156210000Y-67670395D01*
X157023097Y-66857298D01*
X156951514Y-66613329D01*
X156696004Y-66492429D01*
X156421816Y-66423700D01*
X156139488Y-66409783D01*
X155859870Y-66451213D01*
X155593708Y-66546397D01*
X155468486Y-66613329D01*
X155396903Y-66857298D01*
X134040589Y-66857298D01*
X134360849Y-66267118D01*
X134584694Y-65545615D01*
X134663480Y-64794305D01*
X134645498Y-64599117D01*
X174875000Y-64599117D01*
X174875000Y-64940883D01*
X174941675Y-65276081D01*
X175072463Y-65591831D01*
X175262337Y-65875998D01*
X175504002Y-66117663D01*
X175788169Y-66307537D01*
X176103919Y-66438325D01*
X176439117Y-66505000D01*
X176780883Y-66505000D01*
X176982589Y-66464878D01*
X177500001Y-66982290D01*
X177500000Y-79800299D01*
X177460518Y-79804188D01*
X177340820Y-79840498D01*
X177230506Y-79899463D01*
X177133815Y-79978815D01*
X177054463Y-80075506D01*
X176995498Y-80185820D01*
X176959188Y-80305518D01*
X176946928Y-80430000D01*
X176946928Y-82130000D01*
X176959188Y-82254482D01*
X176995498Y-82374180D01*
X177054463Y-82484494D01*
X177133815Y-82581185D01*
X177230506Y-82660537D01*
X177340820Y-82719502D01*
X177413380Y-82741513D01*
X177281525Y-82873368D01*
X177119010Y-83116589D01*
X177007068Y-83386842D01*
X176950000Y-83673740D01*
X176950000Y-83966260D01*
X177007068Y-84253158D01*
X177119010Y-84523411D01*
X177281525Y-84766632D01*
X177488368Y-84973475D01*
X177731589Y-85135990D01*
X178001842Y-85247932D01*
X178288740Y-85305000D01*
X178581260Y-85305000D01*
X178868158Y-85247932D01*
X179138411Y-85135990D01*
X179381632Y-84973475D01*
X179588475Y-84766632D01*
X179705000Y-84592240D01*
X179821525Y-84766632D01*
X180028368Y-84973475D01*
X180271589Y-85135990D01*
X180541842Y-85247932D01*
X180828740Y-85305000D01*
X181121260Y-85305000D01*
X181408158Y-85247932D01*
X181678411Y-85135990D01*
X181921632Y-84973475D01*
X182128475Y-84766632D01*
X182290990Y-84523411D01*
X182402932Y-84253158D01*
X182460000Y-83966260D01*
X182460000Y-83673740D01*
X182402932Y-83386842D01*
X182290990Y-83116589D01*
X182128475Y-82873368D01*
X181921632Y-82666525D01*
X181747240Y-82550000D01*
X181921632Y-82433475D01*
X182128475Y-82226632D01*
X182290990Y-81983411D01*
X182402932Y-81713158D01*
X182460000Y-81426260D01*
X182460000Y-81133740D01*
X182402932Y-80846842D01*
X182290990Y-80576589D01*
X182128475Y-80333368D01*
X181921632Y-80126525D01*
X181678411Y-79964010D01*
X181408158Y-79852068D01*
X181121260Y-79795000D01*
X180828740Y-79795000D01*
X180541842Y-79852068D01*
X180271589Y-79964010D01*
X180028368Y-80126525D01*
X179896513Y-80258380D01*
X179874502Y-80185820D01*
X179815537Y-80075506D01*
X179736185Y-79978815D01*
X179639494Y-79899463D01*
X179529180Y-79840498D01*
X179409482Y-79804188D01*
X179370000Y-79800299D01*
X179370000Y-71130000D01*
X202331928Y-71130000D01*
X202331928Y-74130000D01*
X202344188Y-74254482D01*
X202380498Y-74374180D01*
X202439463Y-74484494D01*
X202518815Y-74581185D01*
X202615506Y-74660537D01*
X202725820Y-74719502D01*
X202845518Y-74755812D01*
X202970000Y-74768072D01*
X205970000Y-74768072D01*
X206094482Y-74755812D01*
X206214180Y-74719502D01*
X206324494Y-74660537D01*
X206421185Y-74581185D01*
X206500537Y-74484494D01*
X206559502Y-74374180D01*
X206595812Y-74254482D01*
X206608072Y-74130000D01*
X206608072Y-71130000D01*
X206595812Y-71005518D01*
X206559502Y-70885820D01*
X206500537Y-70775506D01*
X206421185Y-70678815D01*
X206324494Y-70599463D01*
X206214180Y-70540498D01*
X206094482Y-70504188D01*
X205970000Y-70491928D01*
X202970000Y-70491928D01*
X202845518Y-70504188D01*
X202725820Y-70540498D01*
X202615506Y-70599463D01*
X202518815Y-70678815D01*
X202439463Y-70775506D01*
X202380498Y-70885820D01*
X202344188Y-71005518D01*
X202331928Y-71130000D01*
X179370000Y-71130000D01*
X179370000Y-67470881D01*
X214648724Y-67470881D01*
X215008912Y-67960548D01*
X215672882Y-68320849D01*
X216394385Y-68544694D01*
X217145695Y-68623480D01*
X217897938Y-68554178D01*
X218622208Y-68339452D01*
X219290670Y-67987555D01*
X219331088Y-67960548D01*
X219691276Y-67470881D01*
X217170000Y-64949605D01*
X214648724Y-67470881D01*
X179370000Y-67470881D01*
X179370000Y-66640935D01*
X179374524Y-66595000D01*
X179356472Y-66411708D01*
X179312610Y-66267118D01*
X179303007Y-66235460D01*
X179216186Y-66073028D01*
X179099344Y-65930656D01*
X179063659Y-65901370D01*
X178304878Y-65142589D01*
X178345000Y-64940883D01*
X178345000Y-64599117D01*
X179875000Y-64599117D01*
X179875000Y-64940883D01*
X179941675Y-65276081D01*
X180072463Y-65591831D01*
X180262337Y-65875998D01*
X180504002Y-66117663D01*
X180788169Y-66307537D01*
X181103919Y-66438325D01*
X181439117Y-66505000D01*
X181780883Y-66505000D01*
X182116081Y-66438325D01*
X182431831Y-66307537D01*
X182715998Y-66117663D01*
X182957663Y-65875998D01*
X183147537Y-65591831D01*
X183278325Y-65276081D01*
X183345000Y-64940883D01*
X183345000Y-64599117D01*
X184875000Y-64599117D01*
X184875000Y-64940883D01*
X184941675Y-65276081D01*
X185072463Y-65591831D01*
X185262337Y-65875998D01*
X185504002Y-66117663D01*
X185788169Y-66307537D01*
X186103919Y-66438325D01*
X186439117Y-66505000D01*
X186780883Y-66505000D01*
X187116081Y-66438325D01*
X187431831Y-66307537D01*
X187715998Y-66117663D01*
X187957663Y-65875998D01*
X188147537Y-65591831D01*
X188278325Y-65276081D01*
X188345000Y-64940883D01*
X188345000Y-64745695D01*
X213316520Y-64745695D01*
X213385822Y-65497938D01*
X213600548Y-66222208D01*
X213952445Y-66890670D01*
X213979452Y-66931088D01*
X214469119Y-67291276D01*
X216990395Y-64770000D01*
X214469119Y-62248724D01*
X213979452Y-62608912D01*
X213619151Y-63272882D01*
X213395306Y-63994385D01*
X213316520Y-64745695D01*
X188345000Y-64745695D01*
X188345000Y-64599117D01*
X188278325Y-64263919D01*
X188147537Y-63948169D01*
X187957663Y-63664002D01*
X187715998Y-63422337D01*
X187431831Y-63232463D01*
X187116081Y-63101675D01*
X186780883Y-63035000D01*
X186439117Y-63035000D01*
X186103919Y-63101675D01*
X185788169Y-63232463D01*
X185504002Y-63422337D01*
X185262337Y-63664002D01*
X185072463Y-63948169D01*
X184941675Y-64263919D01*
X184875000Y-64599117D01*
X183345000Y-64599117D01*
X183278325Y-64263919D01*
X183147537Y-63948169D01*
X182957663Y-63664002D01*
X182715998Y-63422337D01*
X182431831Y-63232463D01*
X182116081Y-63101675D01*
X181780883Y-63035000D01*
X181439117Y-63035000D01*
X181103919Y-63101675D01*
X180788169Y-63232463D01*
X180504002Y-63422337D01*
X180262337Y-63664002D01*
X180072463Y-63948169D01*
X179941675Y-64263919D01*
X179875000Y-64599117D01*
X178345000Y-64599117D01*
X178278325Y-64263919D01*
X178147537Y-63948169D01*
X177957663Y-63664002D01*
X177715998Y-63422337D01*
X177431831Y-63232463D01*
X177116081Y-63101675D01*
X176780883Y-63035000D01*
X176439117Y-63035000D01*
X176103919Y-63101675D01*
X175788169Y-63232463D01*
X175504002Y-63422337D01*
X175262337Y-63664002D01*
X175072463Y-63948169D01*
X174941675Y-64263919D01*
X174875000Y-64599117D01*
X134645498Y-64599117D01*
X134594178Y-64042062D01*
X134379452Y-63317792D01*
X134027555Y-62649330D01*
X134000548Y-62608912D01*
X133510881Y-62248724D01*
X130989605Y-64770000D01*
X130630395Y-64770000D01*
X130616253Y-64755858D01*
X130795858Y-64576253D01*
X130810000Y-64590395D01*
X133331276Y-62069119D01*
X133000914Y-61620000D01*
X214979086Y-61620000D01*
X214648724Y-62069119D01*
G37*
G04 #@! TD.AperFunction*
M02*
