M48
; DRILL file {KiCad (5.1.9)-1} date 01/16/21 12:12:49
; FORMAT={-:-/ absolute / metric / decimal}
; #@! TF.CreationDate,2021-01-16T12:12:49+09:00
; #@! TF.GenerationSoftware,Kicad,Pcbnew,(5.1.9)-1
; #@! TF.FileFunction,Plated,1,2,PTH
FMAT,2
METRIC
T1C0.400
T2C0.700
T3C0.800
T4C0.900
T5C1.000
T6C1.090
T7C1.100
T8C1.200
T9C1.520
T10C3.200
%
G90
G05
T1
X129.54Y-73.66
X129.54Y-83.82
X129.54Y-93.98
X129.54Y-104.14
X129.54Y-114.3
X139.7Y-63.5
X139.7Y-80.01
X139.7Y-93.98
X139.7Y-104.14
X139.7Y-114.3
X139.7Y-124.46
X149.86Y-63.5
X149.86Y-93.98
X149.86Y-104.14
X149.86Y-114.3
X149.86Y-124.46
X153.67Y-80.01
X160.02Y-63.5
X160.02Y-93.98
X160.02Y-104.14
X160.02Y-114.3
X160.02Y-124.46
X170.18Y-63.5
X170.18Y-93.98
X170.18Y-104.14
X170.18Y-114.3
X170.18Y-124.46
X172.72Y-107.95
X174.625Y-95.885
X175.895Y-95.885
X180.34Y-86.36
X180.34Y-93.98
X180.34Y-104.14
X180.34Y-114.3
X180.34Y-124.46
X190.5Y-63.5
X190.5Y-73.66
X190.5Y-83.82
X190.5Y-93.98
X190.5Y-104.14
X190.5Y-124.46
X200.66Y-63.5
X200.66Y-73.66
X200.66Y-83.82
X200.66Y-93.98
X200.66Y-124.46
X210.82Y-63.5
X210.82Y-73.66
X210.82Y-83.82
X210.82Y-93.98
X210.82Y-104.14
X210.82Y-124.46
X218.44Y-73.66
X218.44Y-83.82
X218.44Y-93.98
X218.44Y-114.3
T2
X158.75Y-72.39
X158.75Y-80.01
X205.74Y-111.76
X205.74Y-119.38
T3
X156.21Y-67.85
X156.21Y-69.85
X162.56Y-69.85
X162.56Y-72.39
X162.56Y-74.93
X162.56Y-77.47
X162.56Y-80.01
X162.56Y-82.55
X162.56Y-85.09
X162.56Y-87.63
X170.18Y-69.85
X170.18Y-72.39
X170.18Y-74.93
X170.18Y-77.47
X170.18Y-80.01
X170.18Y-82.55
X170.18Y-85.09
X170.18Y-87.63
X201.93Y-99.1
X201.93Y-101.6
X208.28Y-101.6
X208.28Y-109.22
X210.82Y-114.3
X210.82Y-116.84
X210.82Y-119.38
T4
X174.625Y-73.025
X174.625Y-75.565
T5
X147.32Y-71.12
X147.32Y-73.66
X147.32Y-76.2
X149.86Y-71.12
X149.86Y-73.66
X149.86Y-76.2
X178.435Y-81.28
X178.435Y-83.82
X180.975Y-81.28
X180.975Y-83.82
X192.3Y-102.02
X192.3Y-116.47
T6
X199.39Y-110.49
X199.39Y-113.03
X199.39Y-115.57
X199.39Y-118.11
X199.39Y-120.65
T7
X132.08Y-71.7
X132.08Y-76.2
X138.58Y-71.7
X138.58Y-76.2
T8
X176.61Y-64.77
X181.61Y-64.77
X186.61Y-64.77
X204.47Y-72.63
X204.47Y-87.63
T9
X215.9Y-101.6
X215.9Y-106.68
T10
X130.81Y-64.77
X130.81Y-123.19
X217.17Y-64.77
X217.17Y-123.19
T0
M30
